<mxfile host="app.diagrams.net" modified="2023-05-06T20:47:17.189Z" agent="Mozilla/5.0 (Macintosh; Intel Mac OS X 10_15_7) AppleWebKit/605.1.15 (KHTML, like Gecko) Version/15.6.1 Safari/605.1.15" etag="Klyh0qrblphZ7cA39JLX" version="21.2.3" type="device">
  <diagram name="Page-1" id="UAieh_hnSA7pFcs_WjZF">
    <mxGraphModel dx="4929" dy="1634" grid="1" gridSize="10" guides="1" tooltips="1" connect="1" arrows="1" fold="1" page="1" pageScale="1" pageWidth="827" pageHeight="1169" math="0" shadow="0">
      <root>
        <mxCell id="0" />
        <mxCell id="1" parent="0" />
        <mxCell id="f_wC157JiwR1pDFYYjTe-6" value="&lt;p style=&quot;margin:0px;margin-top:4px;text-align:center;&quot;&gt;&lt;i&gt;&amp;lt;&amp;lt;Interface&amp;gt;&amp;gt;&lt;/i&gt;&lt;br&gt;&lt;i&gt;PUT USER&lt;/i&gt;&lt;/p&gt;&lt;hr size=&quot;1&quot;&gt;&lt;p style=&quot;margin:0px;margin-left:4px;&quot;&gt;&lt;/p&gt;&lt;p style=&quot;margin:0px;margin-left:4px;&quot;&gt;+ method1(Type): Type&lt;br&gt;+ method2(Type, Type): Type&lt;/p&gt;" style="verticalAlign=top;align=left;overflow=fill;fontSize=12;fontFamily=Helvetica;html=1;whiteSpace=wrap;" parent="1" vertex="1">
          <mxGeometry x="-940" y="89" width="190" height="140" as="geometry" />
        </mxCell>
        <mxCell id="f_wC157JiwR1pDFYYjTe-7" value="&lt;p style=&quot;margin:0px;margin-top:4px;text-align:center;&quot;&gt;&lt;i&gt;&amp;lt;&amp;lt;Interface&amp;gt;&amp;gt;&lt;/i&gt;&lt;/p&gt;&lt;p style=&quot;margin:0px;margin-top:4px;text-align:center;&quot;&gt;&lt;i&gt;CHECK USER&lt;br&gt;&lt;/i&gt;&lt;/p&gt;&lt;hr&gt;&lt;p style=&quot;margin:0px;margin-left:4px;&quot;&gt;&lt;/p&gt;&lt;p style=&quot;margin:0px;margin-left:4px;&quot;&gt;+ method1(Type): Type&lt;br&gt;+ method2(Type, Type): Type&lt;/p&gt;" style="verticalAlign=top;align=left;overflow=fill;fontSize=12;fontFamily=Helvetica;html=1;whiteSpace=wrap;" parent="1" vertex="1">
          <mxGeometry x="-739" y="89" width="190" height="140" as="geometry" />
        </mxCell>
        <mxCell id="f_wC157JiwR1pDFYYjTe-14" style="edgeStyle=orthogonalEdgeStyle;rounded=0;orthogonalLoop=1;jettySize=auto;html=1;exitX=0;exitY=0.25;exitDx=0;exitDy=0;entryX=1;entryY=0.25;entryDx=0;entryDy=0;endArrow=none;endFill=0;" parent="1" source="f_wC157JiwR1pDFYYjTe-10" edge="1">
          <mxGeometry relative="1" as="geometry">
            <mxPoint x="-558" y="365" as="targetPoint" />
            <Array as="points">
              <mxPoint x="-379" y="360" />
              <mxPoint x="-468" y="360" />
              <mxPoint x="-468" y="363" />
            </Array>
          </mxGeometry>
        </mxCell>
        <mxCell id="f_wC157JiwR1pDFYYjTe-10" value="LOGIN" style="swimlane;fontStyle=1;align=center;verticalAlign=top;childLayout=stackLayout;horizontal=1;startSize=28;horizontalStack=0;resizeParent=1;resizeParentMax=0;resizeLast=0;collapsible=1;marginBottom=0;whiteSpace=wrap;html=1;" parent="1" vertex="1">
          <mxGeometry x="-499" y="360" width="169" height="84" as="geometry">
            <mxRectangle x="160" y="290" width="130" height="30" as="alternateBounds" />
          </mxGeometry>
        </mxCell>
        <mxCell id="f_wC157JiwR1pDFYYjTe-11" value="+ field: type" style="text;strokeColor=none;fillColor=none;align=left;verticalAlign=top;spacingLeft=4;spacingRight=4;overflow=hidden;rotatable=0;points=[[0,0.5],[1,0.5]];portConstraint=eastwest;whiteSpace=wrap;html=1;" parent="f_wC157JiwR1pDFYYjTe-10" vertex="1">
          <mxGeometry y="28" width="169" height="22" as="geometry" />
        </mxCell>
        <mxCell id="f_wC157JiwR1pDFYYjTe-12" value="" style="line;strokeWidth=1;fillColor=none;align=left;verticalAlign=middle;spacingTop=-1;spacingLeft=3;spacingRight=3;rotatable=0;labelPosition=right;points=[];portConstraint=eastwest;strokeColor=inherit;" parent="f_wC157JiwR1pDFYYjTe-10" vertex="1">
          <mxGeometry y="50" width="169" height="8" as="geometry" />
        </mxCell>
        <mxCell id="f_wC157JiwR1pDFYYjTe-13" value="+enterTheSystem() : boolean" style="text;strokeColor=none;fillColor=none;align=left;verticalAlign=top;spacingLeft=4;spacingRight=4;overflow=hidden;rotatable=0;points=[[0,0.5],[1,0.5]];portConstraint=eastwest;whiteSpace=wrap;html=1;" parent="f_wC157JiwR1pDFYYjTe-10" vertex="1">
          <mxGeometry y="58" width="169" height="26" as="geometry" />
        </mxCell>
        <mxCell id="f_wC157JiwR1pDFYYjTe-15" value="&lt;i style=&quot;font-weight: normal;&quot;&gt;USER&lt;/i&gt;" style="swimlane;fontStyle=1;align=center;verticalAlign=top;childLayout=stackLayout;horizontal=1;startSize=26;horizontalStack=0;resizeParent=1;resizeParentMax=0;resizeLast=0;collapsible=1;marginBottom=0;whiteSpace=wrap;html=1;" parent="1" vertex="1">
          <mxGeometry x="1140" y="50" width="160" height="104" as="geometry">
            <mxRectangle x="640" y="50" width="80" height="30" as="alternateBounds" />
          </mxGeometry>
        </mxCell>
        <mxCell id="f_wC157JiwR1pDFYYjTe-16" value="- username: String&lt;br&gt;- password: password&lt;br&gt;- email: String" style="text;strokeColor=none;fillColor=none;align=left;verticalAlign=top;spacingLeft=4;spacingRight=4;overflow=hidden;rotatable=0;points=[[0,0.5],[1,0.5]];portConstraint=eastwest;whiteSpace=wrap;html=1;" parent="f_wC157JiwR1pDFYYjTe-15" vertex="1">
          <mxGeometry y="26" width="160" height="44" as="geometry" />
        </mxCell>
        <mxCell id="f_wC157JiwR1pDFYYjTe-17" value="" style="line;strokeWidth=1;fillColor=none;align=left;verticalAlign=middle;spacingTop=-1;spacingLeft=3;spacingRight=3;rotatable=0;labelPosition=right;points=[];portConstraint=eastwest;strokeColor=inherit;" parent="f_wC157JiwR1pDFYYjTe-15" vertex="1">
          <mxGeometry y="70" width="160" height="8" as="geometry" />
        </mxCell>
        <mxCell id="f_wC157JiwR1pDFYYjTe-18" value="+ method(type): type" style="text;strokeColor=none;fillColor=none;align=left;verticalAlign=top;spacingLeft=4;spacingRight=4;overflow=hidden;rotatable=0;points=[[0,0.5],[1,0.5]];portConstraint=eastwest;whiteSpace=wrap;html=1;" parent="f_wC157JiwR1pDFYYjTe-15" vertex="1">
          <mxGeometry y="78" width="160" height="26" as="geometry" />
        </mxCell>
        <mxCell id="f_wC157JiwR1pDFYYjTe-260" style="edgeStyle=orthogonalEdgeStyle;rounded=0;orthogonalLoop=1;jettySize=auto;html=1;exitX=0.5;exitY=0;exitDx=0;exitDy=0;entryX=0.491;entryY=0.991;entryDx=0;entryDy=0;entryPerimeter=0;endArrow=block;endFill=0;" parent="1" source="f_wC157JiwR1pDFYYjTe-19" target="f_wC157JiwR1pDFYYjTe-18" edge="1">
          <mxGeometry relative="1" as="geometry" />
        </mxCell>
        <mxCell id="f_wC157JiwR1pDFYYjTe-269" style="edgeStyle=orthogonalEdgeStyle;rounded=0;orthogonalLoop=1;jettySize=auto;html=1;exitX=0.5;exitY=1;exitDx=0;exitDy=0;entryX=0.5;entryY=0;entryDx=0;entryDy=0;endArrow=classic;endFill=1;dashed=1;dashPattern=8 8;" parent="1" source="f_wC157JiwR1pDFYYjTe-19" target="f_wC157JiwR1pDFYYjTe-115" edge="1">
          <mxGeometry relative="1" as="geometry">
            <mxPoint x="925" y="520" as="targetPoint" />
            <Array as="points">
              <mxPoint x="901" y="510" />
              <mxPoint x="901" y="510" />
            </Array>
          </mxGeometry>
        </mxCell>
        <mxCell id="f_wC157JiwR1pDFYYjTe-495" style="edgeStyle=orthogonalEdgeStyle;rounded=0;orthogonalLoop=1;jettySize=auto;html=1;exitX=0;exitY=1;exitDx=0;exitDy=0;startArrow=diamond;startFill=0;" parent="1" source="f_wC157JiwR1pDFYYjTe-19" edge="1">
          <mxGeometry relative="1" as="geometry">
            <mxPoint x="440" y="1799" as="targetPoint" />
            <Array as="points">
              <mxPoint x="736" y="560" />
              <mxPoint x="440" y="560" />
            </Array>
          </mxGeometry>
        </mxCell>
        <mxCell id="1QSR1i9DhKROp5-wo-e_-230" style="edgeStyle=orthogonalEdgeStyle;rounded=0;orthogonalLoop=1;jettySize=auto;html=1;exitX=0.5;exitY=1;exitDx=0;exitDy=0;entryX=0;entryY=0;entryDx=0;entryDy=0;dashed=1;dashPattern=12 12;" edge="1" parent="1" source="f_wC157JiwR1pDFYYjTe-19" target="1QSR1i9DhKROp5-wo-e_-157">
          <mxGeometry relative="1" as="geometry">
            <mxPoint x="2770" y="1120" as="targetPoint" />
            <Array as="points">
              <mxPoint x="901" y="610" />
              <mxPoint x="2250" y="610" />
              <mxPoint x="2250" y="1074" />
            </Array>
          </mxGeometry>
        </mxCell>
        <mxCell id="f_wC157JiwR1pDFYYjTe-19" value="CLIENT" style="swimlane;fontStyle=1;align=center;verticalAlign=top;childLayout=stackLayout;horizontal=1;startSize=26;horizontalStack=0;resizeParent=1;resizeParentMax=0;resizeLast=0;collapsible=1;marginBottom=0;whiteSpace=wrap;html=1;" parent="1" vertex="1">
          <mxGeometry x="736" y="224" width="330" height="290" as="geometry">
            <mxRectangle x="520" y="200" width="80" height="30" as="alternateBounds" />
          </mxGeometry>
        </mxCell>
        <mxCell id="f_wC157JiwR1pDFYYjTe-20" value="&lt;font style=&quot;font-size: 10px;&quot;&gt;- activeSessions: static ArrayList&amp;lt;Client&amp;gt;&lt;br&gt;+ allAccounts:ArrayList&amp;lt;BankAccount&amp;gt;&lt;br&gt;+ allRequestedServices: ArrayList&amp;lt;requestServices&amp;gt;&lt;br&gt;+ address: String&lt;br&gt;+ phoneNum:int&lt;br&gt;+ proof_of_salary: String&lt;br&gt;+ proof_of_employment: String&lt;br&gt;+ proof_of_residence: String&lt;br&gt;+date_of_birth: Date&lt;br&gt;+identificationNumber: int&lt;br&gt;&lt;/font&gt;" style="text;strokeColor=none;fillColor=none;align=left;verticalAlign=top;spacingLeft=4;spacingRight=4;overflow=hidden;rotatable=0;points=[[0,0.5],[1,0.5]];portConstraint=eastwest;whiteSpace=wrap;html=1;" parent="f_wC157JiwR1pDFYYjTe-19" vertex="1">
          <mxGeometry y="26" width="330" height="144" as="geometry" />
        </mxCell>
        <mxCell id="f_wC157JiwR1pDFYYjTe-21" value="" style="line;strokeWidth=1;fillColor=none;align=left;verticalAlign=middle;spacingTop=-1;spacingLeft=3;spacingRight=3;rotatable=0;labelPosition=right;points=[];portConstraint=eastwest;strokeColor=inherit;" parent="f_wC157JiwR1pDFYYjTe-19" vertex="1">
          <mxGeometry y="170" width="330" height="8" as="geometry" />
        </mxCell>
        <mxCell id="f_wC157JiwR1pDFYYjTe-22" value="&lt;font style=&quot;font-size: 10px;&quot;&gt;- Client():void&lt;br&gt;+ logIn(userName, password) :boolean&lt;br&gt;+ logOut() :boolean&lt;br style=&quot;border-color: var(--border-color);&quot;&gt;+ signUp(): boolean&lt;br&gt;+ addAccount(BankAccount account) : boolean&lt;br&gt;+ requestService(): void&lt;br&gt;+ reportIssue(issue technical_issue):boolean&lt;/font&gt;" style="text;strokeColor=none;fillColor=none;align=left;verticalAlign=top;spacingLeft=4;spacingRight=4;overflow=hidden;rotatable=0;points=[[0,0.5],[1,0.5]];portConstraint=eastwest;whiteSpace=wrap;html=1;" parent="f_wC157JiwR1pDFYYjTe-19" vertex="1">
          <mxGeometry y="178" width="330" height="112" as="geometry" />
        </mxCell>
        <mxCell id="f_wC157JiwR1pDFYYjTe-259" style="edgeStyle=orthogonalEdgeStyle;rounded=0;orthogonalLoop=1;jettySize=auto;html=1;exitX=0.5;exitY=0;exitDx=0;exitDy=0;entryX=0.492;entryY=1.01;entryDx=0;entryDy=0;entryPerimeter=0;endArrow=block;endFill=0;" parent="1" source="f_wC157JiwR1pDFYYjTe-31" target="f_wC157JiwR1pDFYYjTe-18" edge="1">
          <mxGeometry relative="1" as="geometry">
            <mxPoint x="1190" y="175" as="targetPoint" />
          </mxGeometry>
        </mxCell>
        <mxCell id="f_wC157JiwR1pDFYYjTe-490" style="edgeStyle=orthogonalEdgeStyle;rounded=0;orthogonalLoop=1;jettySize=auto;html=1;exitX=1;exitY=1;exitDx=0;exitDy=0;entryX=0.5;entryY=0;entryDx=0;entryDy=0;dashed=1;dashPattern=12 12;endArrow=none;endFill=0;startArrow=classic;startFill=1;" parent="1" source="f_wC157JiwR1pDFYYjTe-31" target="f_wC157JiwR1pDFYYjTe-208" edge="1">
          <mxGeometry relative="1" as="geometry">
            <mxPoint x="1540" y="1870" as="targetPoint" />
            <Array as="points">
              <mxPoint x="1650" y="640" />
              <mxPoint x="1800" y="640" />
              <mxPoint x="1800" y="1280" />
              <mxPoint x="1546" y="1280" />
            </Array>
          </mxGeometry>
        </mxCell>
        <mxCell id="f_wC157JiwR1pDFYYjTe-491" style="edgeStyle=orthogonalEdgeStyle;rounded=0;orthogonalLoop=1;jettySize=auto;html=1;exitX=1;exitY=1;exitDx=0;exitDy=0;entryX=0.5;entryY=0;entryDx=0;entryDy=0;dashed=1;dashPattern=12 12;endArrow=none;endFill=0;startArrow=classic;startFill=1;" parent="1" source="f_wC157JiwR1pDFYYjTe-31" target="f_wC157JiwR1pDFYYjTe-212" edge="1">
          <mxGeometry relative="1" as="geometry">
            <mxPoint x="1790" y="2040" as="targetPoint" />
            <Array as="points">
              <mxPoint x="1650" y="640" />
              <mxPoint x="1800" y="640" />
              <mxPoint x="1800" y="2116" />
            </Array>
          </mxGeometry>
        </mxCell>
        <mxCell id="f_wC157JiwR1pDFYYjTe-492" style="edgeStyle=orthogonalEdgeStyle;rounded=0;orthogonalLoop=1;jettySize=auto;html=1;exitX=1;exitY=1;exitDx=0;exitDy=0;dashed=1;dashPattern=12 12;endArrow=none;endFill=0;startArrow=classic;startFill=1;entryX=0.5;entryY=0;entryDx=0;entryDy=0;" parent="1" source="f_wC157JiwR1pDFYYjTe-31" target="f_wC157JiwR1pDFYYjTe-216" edge="1">
          <mxGeometry relative="1" as="geometry">
            <mxPoint x="1970" y="1730" as="targetPoint" />
            <Array as="points">
              <mxPoint x="1650" y="640" />
              <mxPoint x="1800" y="640" />
              <mxPoint x="1800" y="1280" />
              <mxPoint x="2071" y="1280" />
            </Array>
          </mxGeometry>
        </mxCell>
        <mxCell id="1QSR1i9DhKROp5-wo-e_-42" style="edgeStyle=orthogonalEdgeStyle;rounded=0;orthogonalLoop=1;jettySize=auto;html=1;exitX=0;exitY=1;exitDx=0;exitDy=0;entryX=0.25;entryY=0;entryDx=0;entryDy=0;endArrow=none;endFill=0;startArrow=diamond;startFill=0;" edge="1" parent="1" source="f_wC157JiwR1pDFYYjTe-31" target="1QSR1i9DhKROp5-wo-e_-18">
          <mxGeometry relative="1" as="geometry">
            <mxPoint x="-140" y="1964.4444444444443" as="targetPoint" />
            <Array as="points">
              <mxPoint x="1330" y="580" />
              <mxPoint x="440" y="580" />
              <mxPoint x="440" y="960" />
              <mxPoint x="-1179" y="960" />
            </Array>
          </mxGeometry>
        </mxCell>
        <mxCell id="1QSR1i9DhKROp5-wo-e_-43" value="resolve theft/damage" style="edgeLabel;html=1;align=center;verticalAlign=middle;resizable=0;points=[];" vertex="1" connectable="0" parent="1QSR1i9DhKROp5-wo-e_-42">
          <mxGeometry x="0.5051" y="-3" relative="1" as="geometry">
            <mxPoint x="1" y="10" as="offset" />
          </mxGeometry>
        </mxCell>
        <mxCell id="1QSR1i9DhKROp5-wo-e_-186" style="edgeStyle=orthogonalEdgeStyle;rounded=0;orthogonalLoop=1;jettySize=auto;html=1;exitX=1;exitY=1;exitDx=0;exitDy=0;entryX=0.25;entryY=0;entryDx=0;entryDy=0;dashed=1;endArrow=none;endFill=0;dashPattern=8 8;" edge="1" parent="1" source="f_wC157JiwR1pDFYYjTe-31" target="1QSR1i9DhKROp5-wo-e_-92">
          <mxGeometry relative="1" as="geometry">
            <mxPoint x="2190" y="1760" as="targetPoint" />
            <Array as="points">
              <mxPoint x="1650" y="640" />
              <mxPoint x="1800" y="640" />
              <mxPoint x="1800" y="1280" />
              <mxPoint x="2320" y="1280" />
            </Array>
          </mxGeometry>
        </mxCell>
        <mxCell id="f_wC157JiwR1pDFYYjTe-31" value="BANKER" style="swimlane;fontStyle=1;align=center;verticalAlign=top;childLayout=stackLayout;horizontal=1;startSize=26;horizontalStack=0;resizeParent=1;resizeParentMax=0;resizeLast=0;collapsible=1;marginBottom=0;whiteSpace=wrap;html=1;" parent="1" vertex="1">
          <mxGeometry x="1330" y="224" width="320" height="280" as="geometry">
            <mxRectangle x="1330" y="224" width="80" height="30" as="alternateBounds" />
          </mxGeometry>
        </mxCell>
        <mxCell id="f_wC157JiwR1pDFYYjTe-32" value="&lt;font style=&quot;font-size: 10px;&quot;&gt;- activeSessions: static ArrayList&amp;lt;Banker&amp;gt;&lt;br&gt;+ hireDate: date&lt;br&gt;+ branch: String&lt;br&gt;+ unhandledRequests:static ArrayList&amp;lt;requestServices&amp;gt;&lt;br&gt;+ allClientIssues:static ArrayList&amp;lt;theft_management&amp;gt;&lt;/font&gt;" style="text;strokeColor=none;fillColor=none;align=left;verticalAlign=top;spacingLeft=4;spacingRight=4;overflow=hidden;rotatable=0;points=[[0,0.5],[1,0.5]];portConstraint=eastwest;whiteSpace=wrap;html=1;" parent="f_wC157JiwR1pDFYYjTe-31" vertex="1">
          <mxGeometry y="26" width="320" height="104" as="geometry" />
        </mxCell>
        <mxCell id="f_wC157JiwR1pDFYYjTe-33" value="" style="line;strokeWidth=1;fillColor=none;align=left;verticalAlign=middle;spacingTop=-1;spacingLeft=3;spacingRight=3;rotatable=0;labelPosition=right;points=[];portConstraint=eastwest;strokeColor=inherit;" parent="f_wC157JiwR1pDFYYjTe-31" vertex="1">
          <mxGeometry y="130" width="320" height="8" as="geometry" />
        </mxCell>
        <mxCell id="f_wC157JiwR1pDFYYjTe-34" value="&lt;font style=&quot;font-size: 10px;&quot;&gt;- Banker():void&lt;br&gt;+ logIn(userName, password) :void&lt;br style=&quot;border-color: var(--border-color);&quot;&gt;+ logOut(): void&lt;br style=&quot;border-color: var(--border-color);&quot;&gt;+ signUp(): void&lt;br&gt;+ static getActiveBankers(): void&lt;br&gt;+ handleRequest(): boolean&lt;/font&gt;" style="text;strokeColor=none;fillColor=none;align=left;verticalAlign=top;spacingLeft=4;spacingRight=4;overflow=hidden;rotatable=0;points=[[0,0.5],[1,0.5]];portConstraint=eastwest;whiteSpace=wrap;html=1;" parent="f_wC157JiwR1pDFYYjTe-31" vertex="1">
          <mxGeometry y="138" width="320" height="142" as="geometry" />
        </mxCell>
        <mxCell id="f_wC157JiwR1pDFYYjTe-41" style="edgeStyle=orthogonalEdgeStyle;rounded=0;orthogonalLoop=1;jettySize=auto;html=1;exitX=0.5;exitY=0;exitDx=0;exitDy=0;entryX=0.5;entryY=1;entryDx=0;entryDy=0;dashed=1;endArrow=block;endFill=0;" parent="1" source="f_wC157JiwR1pDFYYjTe-36" target="f_wC157JiwR1pDFYYjTe-7" edge="1">
          <mxGeometry relative="1" as="geometry" />
        </mxCell>
        <mxCell id="f_wC157JiwR1pDFYYjTe-42" style="edgeStyle=orthogonalEdgeStyle;rounded=0;orthogonalLoop=1;jettySize=auto;html=1;exitX=0.5;exitY=0;exitDx=0;exitDy=0;dashed=1;endArrow=block;endFill=0;" parent="1" source="f_wC157JiwR1pDFYYjTe-36" target="f_wC157JiwR1pDFYYjTe-6" edge="1">
          <mxGeometry relative="1" as="geometry" />
        </mxCell>
        <mxCell id="f_wC157JiwR1pDFYYjTe-36" value="&lt;b style=&quot;border-color: var(--border-color);&quot;&gt;MAIN DATABASE CHECKER&lt;br&gt;&lt;/b&gt;" style="swimlane;fontStyle=1;align=center;verticalAlign=top;childLayout=stackLayout;horizontal=1;startSize=40;horizontalStack=0;resizeParent=1;resizeParentMax=0;resizeLast=0;collapsible=1;marginBottom=0;whiteSpace=wrap;html=1;" parent="1" vertex="1">
          <mxGeometry x="-719" y="340" width="160" height="100" as="geometry">
            <mxRectangle x="-60" y="290" width="200" height="30" as="alternateBounds" />
          </mxGeometry>
        </mxCell>
        <mxCell id="f_wC157JiwR1pDFYYjTe-37" value="+ field: type" style="text;strokeColor=none;fillColor=none;align=left;verticalAlign=top;spacingLeft=4;spacingRight=4;overflow=hidden;rotatable=0;points=[[0,0.5],[1,0.5]];portConstraint=eastwest;whiteSpace=wrap;html=1;" parent="f_wC157JiwR1pDFYYjTe-36" vertex="1">
          <mxGeometry y="40" width="160" height="26" as="geometry" />
        </mxCell>
        <mxCell id="f_wC157JiwR1pDFYYjTe-38" value="" style="line;strokeWidth=1;fillColor=none;align=left;verticalAlign=middle;spacingTop=-1;spacingLeft=3;spacingRight=3;rotatable=0;labelPosition=right;points=[];portConstraint=eastwest;strokeColor=inherit;" parent="f_wC157JiwR1pDFYYjTe-36" vertex="1">
          <mxGeometry y="66" width="160" height="8" as="geometry" />
        </mxCell>
        <mxCell id="f_wC157JiwR1pDFYYjTe-39" value="+ method(type): type" style="text;strokeColor=none;fillColor=none;align=left;verticalAlign=top;spacingLeft=4;spacingRight=4;overflow=hidden;rotatable=0;points=[[0,0.5],[1,0.5]];portConstraint=eastwest;whiteSpace=wrap;html=1;" parent="f_wC157JiwR1pDFYYjTe-36" vertex="1">
          <mxGeometry y="74" width="160" height="26" as="geometry" />
        </mxCell>
        <mxCell id="f_wC157JiwR1pDFYYjTe-49" style="edgeStyle=orthogonalEdgeStyle;rounded=0;orthogonalLoop=1;jettySize=auto;html=1;exitX=0;exitY=0.25;exitDx=0;exitDy=0;entryX=1;entryY=0.25;entryDx=0;entryDy=0;" parent="1" source="f_wC157JiwR1pDFYYjTe-45" target="f_wC157JiwR1pDFYYjTe-36" edge="1">
          <mxGeometry relative="1" as="geometry" />
        </mxCell>
        <mxCell id="f_wC157JiwR1pDFYYjTe-45" value="LOG OUT" style="swimlane;fontStyle=1;align=center;verticalAlign=top;childLayout=stackLayout;horizontal=1;startSize=28;horizontalStack=0;resizeParent=1;resizeParentMax=0;resizeLast=0;collapsible=1;marginBottom=0;whiteSpace=wrap;html=1;" parent="1" vertex="1">
          <mxGeometry x="-499" y="480" width="169" height="84" as="geometry">
            <mxRectangle x="160" y="290" width="130" height="30" as="alternateBounds" />
          </mxGeometry>
        </mxCell>
        <mxCell id="f_wC157JiwR1pDFYYjTe-46" value="+ field: type" style="text;strokeColor=none;fillColor=none;align=left;verticalAlign=top;spacingLeft=4;spacingRight=4;overflow=hidden;rotatable=0;points=[[0,0.5],[1,0.5]];portConstraint=eastwest;whiteSpace=wrap;html=1;" parent="f_wC157JiwR1pDFYYjTe-45" vertex="1">
          <mxGeometry y="28" width="169" height="22" as="geometry" />
        </mxCell>
        <mxCell id="f_wC157JiwR1pDFYYjTe-47" value="" style="line;strokeWidth=1;fillColor=none;align=left;verticalAlign=middle;spacingTop=-1;spacingLeft=3;spacingRight=3;rotatable=0;labelPosition=right;points=[];portConstraint=eastwest;strokeColor=inherit;" parent="f_wC157JiwR1pDFYYjTe-45" vertex="1">
          <mxGeometry y="50" width="169" height="8" as="geometry" />
        </mxCell>
        <mxCell id="f_wC157JiwR1pDFYYjTe-48" value="+enterTheSystem() : boolean" style="text;strokeColor=none;fillColor=none;align=left;verticalAlign=top;spacingLeft=4;spacingRight=4;overflow=hidden;rotatable=0;points=[[0,0.5],[1,0.5]];portConstraint=eastwest;whiteSpace=wrap;html=1;" parent="f_wC157JiwR1pDFYYjTe-45" vertex="1">
          <mxGeometry y="58" width="169" height="26" as="geometry" />
        </mxCell>
        <mxCell id="f_wC157JiwR1pDFYYjTe-50" value="«interface»&lt;br&gt;&lt;b&gt;ENTER THE SYSTEM(COMMAND)&lt;/b&gt;" style="html=1;whiteSpace=wrap;" parent="1" vertex="1">
          <mxGeometry x="-20" y="494" width="130" height="50" as="geometry" />
        </mxCell>
        <mxCell id="f_wC157JiwR1pDFYYjTe-51" value="SIGN UP" style="swimlane;fontStyle=1;align=center;verticalAlign=top;childLayout=stackLayout;horizontal=1;startSize=28;horizontalStack=0;resizeParent=1;resizeParentMax=0;resizeLast=0;collapsible=1;marginBottom=0;whiteSpace=wrap;html=1;" parent="1" vertex="1">
          <mxGeometry x="-499" y="610" width="169" height="84" as="geometry">
            <mxRectangle x="160" y="290" width="130" height="30" as="alternateBounds" />
          </mxGeometry>
        </mxCell>
        <mxCell id="f_wC157JiwR1pDFYYjTe-52" value="+ field: type" style="text;strokeColor=none;fillColor=none;align=left;verticalAlign=top;spacingLeft=4;spacingRight=4;overflow=hidden;rotatable=0;points=[[0,0.5],[1,0.5]];portConstraint=eastwest;whiteSpace=wrap;html=1;" parent="f_wC157JiwR1pDFYYjTe-51" vertex="1">
          <mxGeometry y="28" width="169" height="22" as="geometry" />
        </mxCell>
        <mxCell id="f_wC157JiwR1pDFYYjTe-53" value="" style="line;strokeWidth=1;fillColor=none;align=left;verticalAlign=middle;spacingTop=-1;spacingLeft=3;spacingRight=3;rotatable=0;labelPosition=right;points=[];portConstraint=eastwest;strokeColor=inherit;" parent="f_wC157JiwR1pDFYYjTe-51" vertex="1">
          <mxGeometry y="50" width="169" height="8" as="geometry" />
        </mxCell>
        <mxCell id="f_wC157JiwR1pDFYYjTe-54" value="+enterTheSystem() : boolean" style="text;strokeColor=none;fillColor=none;align=left;verticalAlign=top;spacingLeft=4;spacingRight=4;overflow=hidden;rotatable=0;points=[[0,0.5],[1,0.5]];portConstraint=eastwest;whiteSpace=wrap;html=1;" parent="f_wC157JiwR1pDFYYjTe-51" vertex="1">
          <mxGeometry y="58" width="169" height="26" as="geometry" />
        </mxCell>
        <mxCell id="f_wC157JiwR1pDFYYjTe-55" style="edgeStyle=orthogonalEdgeStyle;rounded=0;orthogonalLoop=1;jettySize=auto;html=1;exitX=0;exitY=0.5;exitDx=0;exitDy=0;entryX=1;entryY=0.25;entryDx=0;entryDy=0;" parent="1" source="f_wC157JiwR1pDFYYjTe-52" target="f_wC157JiwR1pDFYYjTe-36" edge="1">
          <mxGeometry relative="1" as="geometry" />
        </mxCell>
        <mxCell id="f_wC157JiwR1pDFYYjTe-56" style="edgeStyle=orthogonalEdgeStyle;rounded=0;orthogonalLoop=1;jettySize=auto;html=1;exitX=1;exitY=0.5;exitDx=0;exitDy=0;entryX=0;entryY=0.5;entryDx=0;entryDy=0;dashed=1;" parent="1" source="f_wC157JiwR1pDFYYjTe-11" target="f_wC157JiwR1pDFYYjTe-50" edge="1">
          <mxGeometry relative="1" as="geometry" />
        </mxCell>
        <mxCell id="f_wC157JiwR1pDFYYjTe-57" style="edgeStyle=orthogonalEdgeStyle;rounded=0;orthogonalLoop=1;jettySize=auto;html=1;exitX=1;exitY=0.5;exitDx=0;exitDy=0;entryX=0;entryY=0.5;entryDx=0;entryDy=0;dashed=1;" parent="1" source="f_wC157JiwR1pDFYYjTe-46" target="f_wC157JiwR1pDFYYjTe-50" edge="1">
          <mxGeometry relative="1" as="geometry">
            <mxPoint x="-19" y="430" as="targetPoint" />
          </mxGeometry>
        </mxCell>
        <mxCell id="f_wC157JiwR1pDFYYjTe-58" style="edgeStyle=orthogonalEdgeStyle;rounded=0;orthogonalLoop=1;jettySize=auto;html=1;exitX=1;exitY=0.5;exitDx=0;exitDy=0;entryX=0;entryY=0.5;entryDx=0;entryDy=0;dashed=1;" parent="1" source="f_wC157JiwR1pDFYYjTe-52" target="f_wC157JiwR1pDFYYjTe-50" edge="1">
          <mxGeometry relative="1" as="geometry" />
        </mxCell>
        <mxCell id="f_wC157JiwR1pDFYYjTe-152" style="edgeStyle=orthogonalEdgeStyle;rounded=0;orthogonalLoop=1;jettySize=auto;html=1;exitX=0.5;exitY=0;exitDx=0;exitDy=0;entryX=0.5;entryY=1.017;entryDx=0;entryDy=0;entryPerimeter=0;dashed=1;dashPattern=8 8;endArrow=block;endFill=0;" parent="1" source="f_wC157JiwR1pDFYYjTe-67" target="f_wC157JiwR1pDFYYjTe-118" edge="1">
          <mxGeometry relative="1" as="geometry">
            <mxPoint x="911" y="800" as="targetPoint" />
          </mxGeometry>
        </mxCell>
        <mxCell id="1QSR1i9DhKROp5-wo-e_-71" style="edgeStyle=orthogonalEdgeStyle;rounded=0;orthogonalLoop=1;jettySize=auto;html=1;exitX=0.5;exitY=1;exitDx=0;exitDy=0;entryX=0.5;entryY=0;entryDx=0;entryDy=0;endArrow=block;endFill=0;" edge="1" parent="1" source="f_wC157JiwR1pDFYYjTe-67" target="1QSR1i9DhKROp5-wo-e_-65">
          <mxGeometry relative="1" as="geometry">
            <mxPoint x="980" y="1020" as="targetPoint" />
            <Array as="points">
              <mxPoint x="980" y="1040" />
              <mxPoint x="911" y="1040" />
            </Array>
          </mxGeometry>
        </mxCell>
        <mxCell id="f_wC157JiwR1pDFYYjTe-67" value="INTERNATIONAL ACCOUNT" style="swimlane;fontStyle=1;align=center;verticalAlign=top;childLayout=stackLayout;horizontal=1;startSize=40;horizontalStack=0;resizeParent=1;resizeParentMax=0;resizeLast=0;collapsible=1;marginBottom=0;whiteSpace=wrap;html=1;" parent="1" vertex="1">
          <mxGeometry x="900" y="870" width="160" height="134" as="geometry">
            <mxRectangle x="640" y="50" width="80" height="30" as="alternateBounds" />
          </mxGeometry>
        </mxCell>
        <mxCell id="f_wC157JiwR1pDFYYjTe-68" value="+ IBAN: int&lt;br&gt;+swiftCode: int" style="text;strokeColor=none;fillColor=none;align=left;verticalAlign=top;spacingLeft=4;spacingRight=4;overflow=hidden;rotatable=0;points=[[0,0.5],[1,0.5]];portConstraint=eastwest;whiteSpace=wrap;html=1;" parent="f_wC157JiwR1pDFYYjTe-67" vertex="1">
          <mxGeometry y="40" width="160" height="40" as="geometry" />
        </mxCell>
        <mxCell id="f_wC157JiwR1pDFYYjTe-69" value="" style="line;strokeWidth=1;fillColor=none;align=left;verticalAlign=middle;spacingTop=-1;spacingLeft=3;spacingRight=3;rotatable=0;labelPosition=right;points=[];portConstraint=eastwest;strokeColor=inherit;" parent="f_wC157JiwR1pDFYYjTe-67" vertex="1">
          <mxGeometry y="80" width="160" height="8" as="geometry" />
        </mxCell>
        <mxCell id="f_wC157JiwR1pDFYYjTe-70" value="+ executeTransfer() :void&lt;br&gt;+findBanker(): void" style="text;strokeColor=none;fillColor=none;align=left;verticalAlign=top;spacingLeft=4;spacingRight=4;overflow=hidden;rotatable=0;points=[[0,0.5],[1,0.5]];portConstraint=eastwest;whiteSpace=wrap;html=1;" parent="f_wC157JiwR1pDFYYjTe-67" vertex="1">
          <mxGeometry y="88" width="160" height="46" as="geometry" />
        </mxCell>
        <mxCell id="f_wC157JiwR1pDFYYjTe-290" style="edgeStyle=orthogonalEdgeStyle;rounded=0;orthogonalLoop=1;jettySize=auto;html=1;exitX=1;exitY=0;exitDx=0;exitDy=0;entryX=0;entryY=0;entryDx=0;entryDy=0;" parent="1" source="f_wC157JiwR1pDFYYjTe-115" target="f_wC157JiwR1pDFYYjTe-161" edge="1">
          <mxGeometry relative="1" as="geometry">
            <Array as="points">
              <mxPoint x="1720" y="684" />
              <mxPoint x="1720" y="40" />
            </Array>
          </mxGeometry>
        </mxCell>
        <mxCell id="f_wC157JiwR1pDFYYjTe-115" value="&lt;span style=&quot;font-weight: normal;&quot;&gt;&lt;i&gt;&amp;lt;&amp;lt;interface&amp;gt;&amp;gt;&lt;br&gt;transfer&lt;/i&gt;&lt;/span&gt;" style="swimlane;fontStyle=1;align=center;verticalAlign=top;childLayout=stackLayout;horizontal=1;startSize=40;horizontalStack=0;resizeParent=1;resizeParentMax=0;resizeLast=0;collapsible=1;marginBottom=0;whiteSpace=wrap;html=1;" parent="1" vertex="1">
          <mxGeometry x="770.5" y="684" width="261" height="114" as="geometry">
            <mxRectangle x="750" y="200" width="80" height="30" as="alternateBounds" />
          </mxGeometry>
        </mxCell>
        <mxCell id="f_wC157JiwR1pDFYYjTe-116" value="+targetAccount_ID : String" style="text;strokeColor=none;fillColor=none;align=left;verticalAlign=top;spacingLeft=4;spacingRight=4;overflow=hidden;rotatable=0;points=[[0,0.5],[1,0.5]];portConstraint=eastwest;whiteSpace=wrap;html=1;" parent="f_wC157JiwR1pDFYYjTe-115" vertex="1">
          <mxGeometry y="40" width="261" height="26" as="geometry" />
        </mxCell>
        <mxCell id="f_wC157JiwR1pDFYYjTe-117" value="" style="line;strokeWidth=1;fillColor=none;align=left;verticalAlign=middle;spacingTop=-1;spacingLeft=3;spacingRight=3;rotatable=0;labelPosition=right;points=[];portConstraint=eastwest;strokeColor=inherit;" parent="f_wC157JiwR1pDFYYjTe-115" vertex="1">
          <mxGeometry y="66" width="261" height="8" as="geometry" />
        </mxCell>
        <mxCell id="f_wC157JiwR1pDFYYjTe-118" value="+Transfer(targetAccount BankAccount)&lt;br&gt;+ executeTransfer() :void" style="text;strokeColor=none;fillColor=none;align=left;verticalAlign=top;spacingLeft=4;spacingRight=4;overflow=hidden;rotatable=0;points=[[0,0.5],[1,0.5]];portConstraint=eastwest;whiteSpace=wrap;html=1;" parent="f_wC157JiwR1pDFYYjTe-115" vertex="1">
          <mxGeometry y="74" width="261" height="40" as="geometry" />
        </mxCell>
        <mxCell id="f_wC157JiwR1pDFYYjTe-153" style="edgeStyle=orthogonalEdgeStyle;rounded=0;orthogonalLoop=1;jettySize=auto;html=1;exitX=0.5;exitY=0;exitDx=0;exitDy=0;entryX=0.501;entryY=1.024;entryDx=0;entryDy=0;entryPerimeter=0;endArrow=block;endFill=0;dashed=1;dashPattern=8 8;" parent="1" source="f_wC157JiwR1pDFYYjTe-127" target="f_wC157JiwR1pDFYYjTe-118" edge="1">
          <mxGeometry relative="1" as="geometry" />
        </mxCell>
        <mxCell id="1QSR1i9DhKROp5-wo-e_-72" style="edgeStyle=orthogonalEdgeStyle;rounded=0;orthogonalLoop=1;jettySize=auto;html=1;exitX=0.5;exitY=1;exitDx=0;exitDy=0;entryX=0.5;entryY=0;entryDx=0;entryDy=0;endArrow=block;endFill=0;" edge="1" parent="1" source="f_wC157JiwR1pDFYYjTe-127" target="1QSR1i9DhKROp5-wo-e_-65">
          <mxGeometry relative="1" as="geometry">
            <mxPoint x="1170.0638297872338" y="1030" as="targetPoint" />
            <Array as="points">
              <mxPoint x="1170" y="1040" />
              <mxPoint x="911" y="1040" />
            </Array>
          </mxGeometry>
        </mxCell>
        <mxCell id="f_wC157JiwR1pDFYYjTe-127" value="INTERNAL ACCOUNT" style="swimlane;fontStyle=1;align=center;verticalAlign=top;childLayout=stackLayout;horizontal=1;startSize=26;horizontalStack=0;resizeParent=1;resizeParentMax=0;resizeLast=0;collapsible=1;marginBottom=0;whiteSpace=wrap;html=1;" parent="1" vertex="1">
          <mxGeometry x="1090" y="870" width="160" height="120" as="geometry">
            <mxRectangle x="750" y="200" width="80" height="30" as="alternateBounds" />
          </mxGeometry>
        </mxCell>
        <mxCell id="f_wC157JiwR1pDFYYjTe-128" value="+" style="text;strokeColor=none;fillColor=none;align=left;verticalAlign=top;spacingLeft=4;spacingRight=4;overflow=hidden;rotatable=0;points=[[0,0.5],[1,0.5]];portConstraint=eastwest;whiteSpace=wrap;html=1;" parent="f_wC157JiwR1pDFYYjTe-127" vertex="1">
          <mxGeometry y="26" width="160" height="26" as="geometry" />
        </mxCell>
        <mxCell id="f_wC157JiwR1pDFYYjTe-129" value="" style="line;strokeWidth=1;fillColor=none;align=left;verticalAlign=middle;spacingTop=-1;spacingLeft=3;spacingRight=3;rotatable=0;labelPosition=right;points=[];portConstraint=eastwest;strokeColor=inherit;" parent="f_wC157JiwR1pDFYYjTe-127" vertex="1">
          <mxGeometry y="52" width="160" height="8" as="geometry" />
        </mxCell>
        <mxCell id="f_wC157JiwR1pDFYYjTe-130" value="+ executeTransfer() :void&lt;br&gt;+findBanker(): void" style="text;strokeColor=none;fillColor=none;align=left;verticalAlign=top;spacingLeft=4;spacingRight=4;overflow=hidden;rotatable=0;points=[[0,0.5],[1,0.5]];portConstraint=eastwest;whiteSpace=wrap;html=1;" parent="f_wC157JiwR1pDFYYjTe-127" vertex="1">
          <mxGeometry y="60" width="160" height="60" as="geometry" />
        </mxCell>
        <mxCell id="f_wC157JiwR1pDFYYjTe-149" style="edgeStyle=orthogonalEdgeStyle;rounded=0;orthogonalLoop=1;jettySize=auto;html=1;exitX=0.5;exitY=0;exitDx=0;exitDy=0;entryX=0.5;entryY=1;entryDx=0;entryDy=0;endArrow=block;endFill=0;dashed=1;dashPattern=8 8;" parent="1" source="f_wC157JiwR1pDFYYjTe-131" target="f_wC157JiwR1pDFYYjTe-115" edge="1">
          <mxGeometry relative="1" as="geometry">
            <mxPoint x="901" y="810" as="targetPoint" />
          </mxGeometry>
        </mxCell>
        <mxCell id="1QSR1i9DhKROp5-wo-e_-69" style="edgeStyle=orthogonalEdgeStyle;rounded=0;orthogonalLoop=1;jettySize=auto;html=1;exitX=0.5;exitY=1;exitDx=0;exitDy=0;endArrow=block;endFill=0;" edge="1" parent="1" source="f_wC157JiwR1pDFYYjTe-131" target="1QSR1i9DhKROp5-wo-e_-65">
          <mxGeometry relative="1" as="geometry">
            <mxPoint x="589.9827586206898" y="1010" as="targetPoint" />
            <Array as="points">
              <mxPoint x="590" y="1040" />
              <mxPoint x="911" y="1040" />
            </Array>
          </mxGeometry>
        </mxCell>
        <mxCell id="f_wC157JiwR1pDFYYjTe-131" value="OWN ACCOUNT" style="swimlane;fontStyle=1;align=center;verticalAlign=top;childLayout=stackLayout;horizontal=1;startSize=26;horizontalStack=0;resizeParent=1;resizeParentMax=0;resizeLast=0;collapsible=1;marginBottom=0;whiteSpace=wrap;html=1;" parent="1" vertex="1">
          <mxGeometry x="510" y="870" width="160" height="120" as="geometry">
            <mxRectangle x="750" y="200" width="80" height="30" as="alternateBounds" />
          </mxGeometry>
        </mxCell>
        <mxCell id="f_wC157JiwR1pDFYYjTe-132" value="+" style="text;strokeColor=none;fillColor=none;align=left;verticalAlign=top;spacingLeft=4;spacingRight=4;overflow=hidden;rotatable=0;points=[[0,0.5],[1,0.5]];portConstraint=eastwest;whiteSpace=wrap;html=1;" parent="f_wC157JiwR1pDFYYjTe-131" vertex="1">
          <mxGeometry y="26" width="160" height="26" as="geometry" />
        </mxCell>
        <mxCell id="f_wC157JiwR1pDFYYjTe-133" value="" style="line;strokeWidth=1;fillColor=none;align=left;verticalAlign=middle;spacingTop=-1;spacingLeft=3;spacingRight=3;rotatable=0;labelPosition=right;points=[];portConstraint=eastwest;strokeColor=inherit;" parent="f_wC157JiwR1pDFYYjTe-131" vertex="1">
          <mxGeometry y="52" width="160" height="8" as="geometry" />
        </mxCell>
        <mxCell id="f_wC157JiwR1pDFYYjTe-134" value="+ executeTransfer() :void&lt;br&gt;+findBanker(): void" style="text;strokeColor=none;fillColor=none;align=left;verticalAlign=top;spacingLeft=4;spacingRight=4;overflow=hidden;rotatable=0;points=[[0,0.5],[1,0.5]];portConstraint=eastwest;whiteSpace=wrap;html=1;" parent="f_wC157JiwR1pDFYYjTe-131" vertex="1">
          <mxGeometry y="60" width="160" height="60" as="geometry" />
        </mxCell>
        <mxCell id="f_wC157JiwR1pDFYYjTe-151" style="edgeStyle=orthogonalEdgeStyle;rounded=0;orthogonalLoop=1;jettySize=auto;html=1;exitX=0.5;exitY=0;exitDx=0;exitDy=0;entryX=0.501;entryY=1.003;entryDx=0;entryDy=0;entryPerimeter=0;dashed=1;dashPattern=8 8;endArrow=block;endFill=0;" parent="1" source="f_wC157JiwR1pDFYYjTe-136" target="f_wC157JiwR1pDFYYjTe-118" edge="1">
          <mxGeometry relative="1" as="geometry">
            <mxPoint x="901" y="800" as="targetPoint" />
          </mxGeometry>
        </mxCell>
        <mxCell id="1QSR1i9DhKROp5-wo-e_-70" style="edgeStyle=orthogonalEdgeStyle;rounded=0;orthogonalLoop=1;jettySize=auto;html=1;exitX=0.5;exitY=1;exitDx=0;exitDy=0;entryX=0.5;entryY=0;entryDx=0;entryDy=0;endArrow=block;endFill=0;" edge="1" parent="1" source="f_wC157JiwR1pDFYYjTe-136" target="1QSR1i9DhKROp5-wo-e_-65">
          <mxGeometry relative="1" as="geometry">
            <mxPoint x="791.0024813895784" y="1010" as="targetPoint" />
            <Array as="points">
              <mxPoint x="791" y="1040" />
              <mxPoint x="911" y="1040" />
            </Array>
          </mxGeometry>
        </mxCell>
        <mxCell id="f_wC157JiwR1pDFYYjTe-136" value="DOMESTIC ACCOUNT" style="swimlane;fontStyle=1;align=center;verticalAlign=top;childLayout=stackLayout;horizontal=1;startSize=26;horizontalStack=0;resizeParent=1;resizeParentMax=0;resizeLast=0;collapsible=1;marginBottom=0;whiteSpace=wrap;html=1;" parent="1" vertex="1">
          <mxGeometry x="711" y="870" width="160" height="120" as="geometry">
            <mxRectangle x="750" y="200" width="80" height="30" as="alternateBounds" />
          </mxGeometry>
        </mxCell>
        <mxCell id="f_wC157JiwR1pDFYYjTe-137" value="+IBAN: int" style="text;strokeColor=none;fillColor=none;align=left;verticalAlign=top;spacingLeft=4;spacingRight=4;overflow=hidden;rotatable=0;points=[[0,0.5],[1,0.5]];portConstraint=eastwest;whiteSpace=wrap;html=1;" parent="f_wC157JiwR1pDFYYjTe-136" vertex="1">
          <mxGeometry y="26" width="160" height="26" as="geometry" />
        </mxCell>
        <mxCell id="f_wC157JiwR1pDFYYjTe-138" value="" style="line;strokeWidth=1;fillColor=none;align=left;verticalAlign=middle;spacingTop=-1;spacingLeft=3;spacingRight=3;rotatable=0;labelPosition=right;points=[];portConstraint=eastwest;strokeColor=inherit;" parent="f_wC157JiwR1pDFYYjTe-136" vertex="1">
          <mxGeometry y="52" width="160" height="8" as="geometry" />
        </mxCell>
        <mxCell id="f_wC157JiwR1pDFYYjTe-139" value="+ executeTransfer() :void&lt;br&gt;+findBanker(): void" style="text;strokeColor=none;fillColor=none;align=left;verticalAlign=top;spacingLeft=4;spacingRight=4;overflow=hidden;rotatable=0;points=[[0,0.5],[1,0.5]];portConstraint=eastwest;whiteSpace=wrap;html=1;" parent="f_wC157JiwR1pDFYYjTe-136" vertex="1">
          <mxGeometry y="60" width="160" height="60" as="geometry" />
        </mxCell>
        <mxCell id="f_wC157JiwR1pDFYYjTe-385" style="edgeStyle=orthogonalEdgeStyle;rounded=0;orthogonalLoop=1;jettySize=auto;html=1;exitX=1;exitY=0.25;exitDx=0;exitDy=0;entryX=0.5;entryY=0;entryDx=0;entryDy=0;endArrow=diamond;endFill=0;startArrow=none;startFill=0;" parent="1" source="f_wC157JiwR1pDFYYjTe-161" target="f_wC157JiwR1pDFYYjTe-380" edge="1">
          <mxGeometry relative="1" as="geometry" />
        </mxCell>
        <mxCell id="1QSR1i9DhKROp5-wo-e_-167" style="edgeStyle=orthogonalEdgeStyle;rounded=0;orthogonalLoop=1;jettySize=auto;html=1;exitX=1;exitY=0;exitDx=0;exitDy=0;entryX=0.5;entryY=0;entryDx=0;entryDy=0;startArrow=diamond;startFill=0;" edge="1" parent="1" source="f_wC157JiwR1pDFYYjTe-161" target="f_wC157JiwR1pDFYYjTe-305">
          <mxGeometry relative="1" as="geometry">
            <mxPoint x="3310" y="1240" as="targetPoint" />
            <Array as="points">
              <mxPoint x="3175" y="40" />
            </Array>
          </mxGeometry>
        </mxCell>
        <mxCell id="1QSR1i9DhKROp5-wo-e_-206" style="edgeStyle=orthogonalEdgeStyle;rounded=0;orthogonalLoop=1;jettySize=auto;html=1;exitX=0.503;exitY=0.998;exitDx=0;exitDy=0;exitPerimeter=0;entryX=0.114;entryY=-0.002;entryDx=0;entryDy=0;entryPerimeter=0;endArrow=diamond;endFill=0;" edge="1" parent="1" source="f_wC157JiwR1pDFYYjTe-164" target="1QSR1i9DhKROp5-wo-e_-92">
          <mxGeometry relative="1" as="geometry">
            <mxPoint x="2190" y="1860.8333333333333" as="targetPoint" />
          </mxGeometry>
        </mxCell>
        <mxCell id="f_wC157JiwR1pDFYYjTe-161" value="&lt;span style=&quot;font-weight: 400;&quot;&gt;&lt;i&gt;BANK ACCOUNT&lt;/i&gt;&lt;/span&gt;" style="swimlane;fontStyle=1;align=center;verticalAlign=top;childLayout=stackLayout;horizontal=1;startSize=40;horizontalStack=0;resizeParent=1;resizeParentMax=0;resizeLast=0;collapsible=1;marginBottom=0;whiteSpace=wrap;html=1;" parent="1" vertex="1">
          <mxGeometry x="1990" y="40" width="290" height="320" as="geometry">
            <mxRectangle x="750" y="200" width="80" height="30" as="alternateBounds" />
          </mxGeometry>
        </mxCell>
        <mxCell id="f_wC157JiwR1pDFYYjTe-162" value="&lt;font style=&quot;font-size: 10px;&quot;&gt;+ accountType: String&lt;br&gt;+ accountNumber : String&lt;br&gt;+ balance: int&lt;br&gt;+ currency: String&lt;br&gt;+ status: boolean&lt;br&gt;+ userId: int&lt;br&gt;+ issueDate: date&lt;br&gt;+ allTransfers: ArrayList&amp;lt;transfer&amp;gt;&lt;br&gt;+ allPaymentServices: ArrayList&amp;lt;paymentServices&amp;gt;&lt;br&gt;+allTransactions:ArrayList&amp;lt;TRANSACTION&amp;gt;&lt;br&gt;&lt;/font&gt;" style="text;strokeColor=none;fillColor=none;align=left;verticalAlign=top;spacingLeft=4;spacingRight=4;overflow=hidden;rotatable=0;points=[[0,0.5],[1,0.5]];portConstraint=eastwest;whiteSpace=wrap;html=1;" parent="f_wC157JiwR1pDFYYjTe-161" vertex="1">
          <mxGeometry y="40" width="290" height="150" as="geometry" />
        </mxCell>
        <mxCell id="f_wC157JiwR1pDFYYjTe-163" value="" style="line;strokeWidth=1;fillColor=none;align=left;verticalAlign=middle;spacingTop=-1;spacingLeft=3;spacingRight=3;rotatable=0;labelPosition=right;points=[];portConstraint=eastwest;strokeColor=inherit;" parent="f_wC157JiwR1pDFYYjTe-161" vertex="1">
          <mxGeometry y="190" width="290" height="8" as="geometry" />
        </mxCell>
        <mxCell id="f_wC157JiwR1pDFYYjTe-164" value="&lt;font style=&quot;font-size: 10px;&quot;&gt;+ makeTransfer(Transfer t): void&lt;br&gt;+static newBankAccountRequest(BankAccount &amp;nbsp;B_A)&lt;br&gt;+findBanker()&lt;br&gt;+addAccount(bankAccount)&lt;br&gt;+ executeRequest(): boolean&lt;br style=&quot;border-color: var(--border-color);&quot;&gt;&lt;span style=&quot;&quot;&gt;+ cancelRequest(): boolean&lt;/span&gt;&lt;br&gt;&lt;/font&gt;" style="text;strokeColor=none;fillColor=none;align=left;verticalAlign=top;spacingLeft=4;spacingRight=4;overflow=hidden;rotatable=0;points=[[0,0.5],[1,0.5]];portConstraint=eastwest;whiteSpace=wrap;html=1;" parent="f_wC157JiwR1pDFYYjTe-161" vertex="1">
          <mxGeometry y="198" width="290" height="122" as="geometry" />
        </mxCell>
        <mxCell id="1QSR1i9DhKROp5-wo-e_-151" style="edgeStyle=orthogonalEdgeStyle;rounded=0;orthogonalLoop=1;jettySize=auto;html=1;exitX=0.5;exitY=1;exitDx=0;exitDy=0;entryX=0.5;entryY=0;entryDx=0;entryDy=0;endArrow=block;endFill=0;" edge="1" parent="1" source="f_wC157JiwR1pDFYYjTe-197" target="1QSR1i9DhKROp5-wo-e_-145">
          <mxGeometry relative="1" as="geometry">
            <mxPoint x="251" y="2130" as="targetPoint" />
            <Array as="points">
              <mxPoint x="251" y="2160" />
              <mxPoint x="60" y="2160" />
            </Array>
          </mxGeometry>
        </mxCell>
        <mxCell id="f_wC157JiwR1pDFYYjTe-197" value="REQUEST LOAN" style="swimlane;fontStyle=1;align=center;verticalAlign=top;childLayout=stackLayout;horizontal=1;startSize=26;horizontalStack=0;resizeParent=1;resizeParentMax=0;resizeLast=0;collapsible=1;marginBottom=0;whiteSpace=wrap;html=1;" parent="1" vertex="1">
          <mxGeometry x="171" y="1991" width="160" height="138" as="geometry">
            <mxRectangle x="750" y="200" width="80" height="30" as="alternateBounds" />
          </mxGeometry>
        </mxCell>
        <mxCell id="f_wC157JiwR1pDFYYjTe-198" value="&lt;font style=&quot;font-size: 10px;&quot;&gt;+ status: int&lt;br&gt;+ loan_amount: double&lt;br&gt;+ requested_interest_rate:double&lt;/font&gt;" style="text;strokeColor=none;fillColor=none;align=left;verticalAlign=top;spacingLeft=4;spacingRight=4;overflow=hidden;rotatable=0;points=[[0,0.5],[1,0.5]];portConstraint=eastwest;whiteSpace=wrap;html=1;" parent="f_wC157JiwR1pDFYYjTe-197" vertex="1">
          <mxGeometry y="26" width="160" height="64" as="geometry" />
        </mxCell>
        <mxCell id="f_wC157JiwR1pDFYYjTe-199" value="" style="line;strokeWidth=1;fillColor=none;align=left;verticalAlign=middle;spacingTop=-1;spacingLeft=3;spacingRight=3;rotatable=0;labelPosition=right;points=[];portConstraint=eastwest;strokeColor=inherit;" parent="f_wC157JiwR1pDFYYjTe-197" vertex="1">
          <mxGeometry y="90" width="160" height="8" as="geometry" />
        </mxCell>
        <mxCell id="f_wC157JiwR1pDFYYjTe-200" value="+ requestService(): boolean&lt;br style=&quot;border-color: var(--border-color);&quot;&gt;+ cancelRequest(): boolean" style="text;strokeColor=none;fillColor=none;align=left;verticalAlign=top;spacingLeft=4;spacingRight=4;overflow=hidden;rotatable=0;points=[[0,0.5],[1,0.5]];portConstraint=eastwest;whiteSpace=wrap;html=1;" parent="f_wC157JiwR1pDFYYjTe-197" vertex="1">
          <mxGeometry y="98" width="160" height="40" as="geometry" />
        </mxCell>
        <mxCell id="1QSR1i9DhKROp5-wo-e_-113" style="edgeStyle=orthogonalEdgeStyle;rounded=0;orthogonalLoop=1;jettySize=auto;html=1;exitX=0.5;exitY=1;exitDx=0;exitDy=0;entryX=0.5;entryY=0;entryDx=0;entryDy=0;endArrow=classic;endFill=1;" edge="1" parent="1" source="f_wC157JiwR1pDFYYjTe-202" target="1QSR1i9DhKROp5-wo-e_-96">
          <mxGeometry relative="1" as="geometry">
            <mxPoint x="440" y="2310" as="targetPoint" />
          </mxGeometry>
        </mxCell>
        <mxCell id="1QSR1i9DhKROp5-wo-e_-152" style="edgeStyle=orthogonalEdgeStyle;rounded=0;orthogonalLoop=1;jettySize=auto;html=1;exitX=0.5;exitY=1;exitDx=0;exitDy=0;entryX=0.5;entryY=0;entryDx=0;entryDy=0;endArrow=block;endFill=0;" edge="1" parent="1" source="f_wC157JiwR1pDFYYjTe-202" target="1QSR1i9DhKROp5-wo-e_-145">
          <mxGeometry relative="1" as="geometry">
            <mxPoint x="270" y="2220" as="targetPoint" />
            <Array as="points">
              <mxPoint x="441" y="2160" />
              <mxPoint x="60" y="2160" />
            </Array>
          </mxGeometry>
        </mxCell>
        <mxCell id="f_wC157JiwR1pDFYYjTe-202" value="REQUEST CREDIT CARD" style="swimlane;fontStyle=1;align=center;verticalAlign=top;childLayout=stackLayout;horizontal=1;startSize=26;horizontalStack=0;resizeParent=1;resizeParentMax=0;resizeLast=0;collapsible=1;marginBottom=0;whiteSpace=wrap;html=1;" parent="1" vertex="1">
          <mxGeometry x="361" y="1991" width="160" height="138" as="geometry">
            <mxRectangle x="750" y="200" width="80" height="30" as="alternateBounds" />
          </mxGeometry>
        </mxCell>
        <mxCell id="f_wC157JiwR1pDFYYjTe-203" value="&lt;font style=&quot;font-size: 10px;&quot;&gt;+ status: int&lt;br&gt;+ type :&amp;nbsp;APPLICATION_TYPE&lt;br&gt;+ desired_credit_card_limit: int&lt;br&gt;+ employment_status: int&lt;br&gt;&lt;/font&gt;" style="text;strokeColor=none;fillColor=none;align=left;verticalAlign=top;spacingLeft=4;spacingRight=4;overflow=hidden;rotatable=0;points=[[0,0.5],[1,0.5]];portConstraint=eastwest;whiteSpace=wrap;html=1;" parent="f_wC157JiwR1pDFYYjTe-202" vertex="1">
          <mxGeometry y="26" width="160" height="64" as="geometry" />
        </mxCell>
        <mxCell id="f_wC157JiwR1pDFYYjTe-204" value="" style="line;strokeWidth=1;fillColor=none;align=left;verticalAlign=middle;spacingTop=-1;spacingLeft=3;spacingRight=3;rotatable=0;labelPosition=right;points=[];portConstraint=eastwest;strokeColor=inherit;" parent="f_wC157JiwR1pDFYYjTe-202" vertex="1">
          <mxGeometry y="90" width="160" height="8" as="geometry" />
        </mxCell>
        <mxCell id="f_wC157JiwR1pDFYYjTe-205" value="+ requestService(): boolean&lt;br style=&quot;border-color: var(--border-color);&quot;&gt;+ cancelRequest(): boolean" style="text;strokeColor=none;fillColor=none;align=left;verticalAlign=top;spacingLeft=4;spacingRight=4;overflow=hidden;rotatable=0;points=[[0,0.5],[1,0.5]];portConstraint=eastwest;whiteSpace=wrap;html=1;" parent="f_wC157JiwR1pDFYYjTe-202" vertex="1">
          <mxGeometry y="98" width="160" height="40" as="geometry" />
        </mxCell>
        <mxCell id="f_wC157JiwR1pDFYYjTe-477" style="edgeStyle=orthogonalEdgeStyle;rounded=0;orthogonalLoop=1;jettySize=auto;html=1;exitX=0.25;exitY=0;exitDx=0;exitDy=0;entryX=1;entryY=0.25;entryDx=0;entryDy=0;dashed=1;dashPattern=12 12;endArrow=block;endFill=0;" parent="1" source="f_wC157JiwR1pDFYYjTe-208" target="f_wC157JiwR1pDFYYjTe-236" edge="1">
          <mxGeometry relative="1" as="geometry">
            <mxPoint x="1350" y="1820" as="targetPoint" />
            <Array as="points">
              <mxPoint x="1498" y="1920" />
              <mxPoint x="1350" y="1920" />
              <mxPoint x="1350" y="1791" />
            </Array>
          </mxGeometry>
        </mxCell>
        <mxCell id="f_wC157JiwR1pDFYYjTe-483" style="edgeStyle=orthogonalEdgeStyle;rounded=0;orthogonalLoop=1;jettySize=auto;html=1;exitX=0.75;exitY=0;exitDx=0;exitDy=0;entryX=0;entryY=0.25;entryDx=0;entryDy=0;dashed=1;dashPattern=8 8;endArrow=block;endFill=0;" parent="1" source="f_wC157JiwR1pDFYYjTe-208" target="f_wC157JiwR1pDFYYjTe-331" edge="1">
          <mxGeometry relative="1" as="geometry">
            <mxPoint x="2240" y="1810" as="targetPoint" />
            <Array as="points">
              <mxPoint x="1593" y="1960" />
              <mxPoint x="2330" y="1960" />
              <mxPoint x="2330" y="1788" />
            </Array>
          </mxGeometry>
        </mxCell>
        <mxCell id="f_wC157JiwR1pDFYYjTe-597" style="edgeStyle=orthogonalEdgeStyle;rounded=0;orthogonalLoop=1;jettySize=auto;html=1;exitX=0;exitY=0;exitDx=0;exitDy=0;entryX=0.5;entryY=1;entryDx=0;entryDy=0;endArrow=none;endFill=0;startArrow=diamond;startFill=0;" parent="1" source="f_wC157JiwR1pDFYYjTe-208" target="f_wC157JiwR1pDFYYjTe-161" edge="1">
          <mxGeometry relative="1" as="geometry">
            <mxPoint x="1920" y="210" as="targetPoint" />
            <Array as="points">
              <mxPoint x="1451" y="1200" />
              <mxPoint x="2135" y="1200" />
            </Array>
          </mxGeometry>
        </mxCell>
        <mxCell id="1QSR1i9DhKROp5-wo-e_-133" style="edgeStyle=orthogonalEdgeStyle;rounded=0;orthogonalLoop=1;jettySize=auto;html=1;exitX=0.25;exitY=1;exitDx=0;exitDy=0;entryX=0.5;entryY=0;entryDx=0;entryDy=0;startArrow=block;startFill=0;endArrow=none;endFill=0;" edge="1" parent="1" source="f_wC157JiwR1pDFYYjTe-208" target="1QSR1i9DhKROp5-wo-e_-127">
          <mxGeometry relative="1" as="geometry" />
        </mxCell>
        <mxCell id="1QSR1i9DhKROp5-wo-e_-135" style="edgeStyle=orthogonalEdgeStyle;rounded=0;orthogonalLoop=1;jettySize=auto;html=1;exitX=0.25;exitY=1;exitDx=0;exitDy=0;endArrow=none;endFill=0;startArrow=block;startFill=0;" edge="1" parent="1" source="f_wC157JiwR1pDFYYjTe-208" target="1QSR1i9DhKROp5-wo-e_-123">
          <mxGeometry relative="1" as="geometry" />
        </mxCell>
        <mxCell id="f_wC157JiwR1pDFYYjTe-208" value="LOAN" style="swimlane;fontStyle=1;align=center;verticalAlign=top;childLayout=stackLayout;horizontal=1;startSize=40;horizontalStack=0;resizeParent=1;resizeParentMax=0;resizeLast=0;collapsible=1;marginBottom=0;whiteSpace=wrap;html=1;" parent="1" vertex="1">
          <mxGeometry x="1451" y="2116" width="190" height="324" as="geometry">
            <mxRectangle x="750" y="200" width="80" height="30" as="alternateBounds" />
          </mxGeometry>
        </mxCell>
        <mxCell id="f_wC157JiwR1pDFYYjTe-209" value="+ terms: String&lt;br&gt;+ amount: int&lt;br&gt;+ existenceDate: date&lt;br&gt;+ interestRate: int&lt;br&gt;+ collateral: String&lt;br&gt;+status: int" style="text;strokeColor=none;fillColor=none;align=left;verticalAlign=top;spacingLeft=4;spacingRight=4;overflow=hidden;rotatable=0;points=[[0,0.5],[1,0.5]];portConstraint=eastwest;whiteSpace=wrap;html=1;" parent="f_wC157JiwR1pDFYYjTe-208" vertex="1">
          <mxGeometry y="40" width="190" height="90" as="geometry" />
        </mxCell>
        <mxCell id="f_wC157JiwR1pDFYYjTe-210" value="" style="line;strokeWidth=1;fillColor=none;align=left;verticalAlign=middle;spacingTop=-1;spacingLeft=3;spacingRight=3;rotatable=0;labelPosition=right;points=[];portConstraint=eastwest;strokeColor=inherit;" parent="f_wC157JiwR1pDFYYjTe-208" vertex="1">
          <mxGeometry y="130" width="190" height="8" as="geometry" />
        </mxCell>
        <mxCell id="f_wC157JiwR1pDFYYjTe-211" value="+ requestLoan(): boolean&lt;br&gt;+ cancelLoan(): boolean&lt;br style=&quot;border-color: var(--border-color);&quot;&gt;+ executeRequest(): boolean&lt;br&gt;+ cancelRequest(): boolean&lt;br&gt;+ loanPayment(): boolean&lt;br&gt;+ cancelLoanPayment(): boolean&lt;br&gt;+ executePayment(): boolean&lt;br style=&quot;border-color: var(--border-color);&quot;&gt;+ cancelPayment(): boolean&lt;br&gt;+ findBanker(): void&lt;br&gt;" style="text;strokeColor=none;fillColor=none;align=left;verticalAlign=top;spacingLeft=4;spacingRight=4;overflow=hidden;rotatable=0;points=[[0,0.5],[1,0.5]];portConstraint=eastwest;whiteSpace=wrap;html=1;" parent="f_wC157JiwR1pDFYYjTe-208" vertex="1">
          <mxGeometry y="138" width="190" height="186" as="geometry" />
        </mxCell>
        <mxCell id="f_wC157JiwR1pDFYYjTe-478" style="edgeStyle=orthogonalEdgeStyle;rounded=0;orthogonalLoop=1;jettySize=auto;html=1;exitX=0.25;exitY=0;exitDx=0;exitDy=0;entryX=1;entryY=0.25;entryDx=0;entryDy=0;dashed=1;dashPattern=8 8;endArrow=block;endFill=0;" parent="1" source="f_wC157JiwR1pDFYYjTe-212" target="f_wC157JiwR1pDFYYjTe-236" edge="1">
          <mxGeometry relative="1" as="geometry">
            <Array as="points">
              <mxPoint x="1731" y="1920" />
              <mxPoint x="1350" y="1920" />
              <mxPoint x="1350" y="1791" />
            </Array>
          </mxGeometry>
        </mxCell>
        <mxCell id="f_wC157JiwR1pDFYYjTe-482" style="edgeStyle=orthogonalEdgeStyle;rounded=0;orthogonalLoop=1;jettySize=auto;html=1;exitX=0.75;exitY=0;exitDx=0;exitDy=0;entryX=0;entryY=0.25;entryDx=0;entryDy=0;dashed=1;dashPattern=8 8;endArrow=block;endFill=0;" parent="1" source="f_wC157JiwR1pDFYYjTe-212" target="f_wC157JiwR1pDFYYjTe-331" edge="1">
          <mxGeometry relative="1" as="geometry">
            <Array as="points">
              <mxPoint x="1851" y="1960" />
              <mxPoint x="2330" y="1960" />
              <mxPoint x="2330" y="1788" />
            </Array>
          </mxGeometry>
        </mxCell>
        <mxCell id="f_wC157JiwR1pDFYYjTe-598" style="edgeStyle=orthogonalEdgeStyle;rounded=0;orthogonalLoop=1;jettySize=auto;html=1;exitX=0;exitY=0;exitDx=0;exitDy=0;entryX=0.509;entryY=1.022;entryDx=0;entryDy=0;entryPerimeter=0;endArrow=none;endFill=0;startArrow=diamond;startFill=0;" parent="1" source="f_wC157JiwR1pDFYYjTe-212" target="f_wC157JiwR1pDFYYjTe-164" edge="1">
          <mxGeometry relative="1" as="geometry">
            <mxPoint x="1930" y="160" as="targetPoint" />
            <Array as="points">
              <mxPoint x="1671" y="1200" />
              <mxPoint x="2138" y="1200" />
            </Array>
          </mxGeometry>
        </mxCell>
        <mxCell id="1QSR1i9DhKROp5-wo-e_-6" style="edgeStyle=orthogonalEdgeStyle;rounded=0;orthogonalLoop=1;jettySize=auto;html=1;exitX=1;exitY=0;exitDx=0;exitDy=0;entryX=0;entryY=0.5;entryDx=0;entryDy=0;endArrow=diamond;endFill=0;startArrow=none;startFill=0;" edge="1" parent="1" source="f_wC157JiwR1pDFYYjTe-212" target="f_wC157JiwR1pDFYYjTe-373">
          <mxGeometry relative="1" as="geometry">
            <mxPoint x="2280" y="430" as="targetPoint" />
          </mxGeometry>
        </mxCell>
        <mxCell id="f_wC157JiwR1pDFYYjTe-212" value="CREDIT CARD" style="swimlane;fontStyle=1;align=center;verticalAlign=top;childLayout=stackLayout;horizontal=1;startSize=40;horizontalStack=0;resizeParent=1;resizeParentMax=0;resizeLast=0;collapsible=1;marginBottom=0;whiteSpace=wrap;html=1;" parent="1" vertex="1">
          <mxGeometry x="1671" y="2116" width="240" height="310" as="geometry">
            <mxRectangle x="750" y="200" width="80" height="30" as="alternateBounds" />
          </mxGeometry>
        </mxCell>
        <mxCell id="f_wC157JiwR1pDFYYjTe-213" value="+ status: int&lt;br&gt;+ expirationDate: date&lt;br&gt;+ limit: int&lt;br&gt;+ card_id: int&lt;br&gt;+ CVV: int&lt;br&gt;+holderName:String" style="text;strokeColor=none;fillColor=none;align=left;verticalAlign=top;spacingLeft=4;spacingRight=4;overflow=hidden;rotatable=0;points=[[0,0.5],[1,0.5]];portConstraint=eastwest;whiteSpace=wrap;html=1;" parent="f_wC157JiwR1pDFYYjTe-212" vertex="1">
          <mxGeometry y="40" width="240" height="90" as="geometry" />
        </mxCell>
        <mxCell id="f_wC157JiwR1pDFYYjTe-214" value="" style="line;strokeWidth=1;fillColor=none;align=left;verticalAlign=middle;spacingTop=-1;spacingLeft=3;spacingRight=3;rotatable=0;labelPosition=right;points=[];portConstraint=eastwest;strokeColor=inherit;" parent="f_wC157JiwR1pDFYYjTe-212" vertex="1">
          <mxGeometry y="130" width="240" height="8" as="geometry" />
        </mxCell>
        <mxCell id="f_wC157JiwR1pDFYYjTe-215" value="+ requestCreditCard(): boolean&lt;br&gt;+ cancelCreditCard(): boolean&lt;br style=&quot;border-color: var(--border-color);&quot;&gt;+ executeRequest():&amp;nbsp;boolean&lt;br&gt;+ cancelRequest():&amp;nbsp;boolean&lt;br&gt;+ creditCardBillPayment():boolean&lt;br&gt;+ cancelCreditCardBillPayment():boolean&lt;br&gt;+ executePayment(): boolean&lt;br style=&quot;border-color: var(--border-color);&quot;&gt;+ cancelPayment(): boolean&lt;br&gt;+ findBanker(): void" style="text;strokeColor=none;fillColor=none;align=left;verticalAlign=top;spacingLeft=4;spacingRight=4;overflow=hidden;rotatable=0;points=[[0,0.5],[1,0.5]];portConstraint=eastwest;whiteSpace=wrap;html=1;" parent="f_wC157JiwR1pDFYYjTe-212" vertex="1">
          <mxGeometry y="138" width="240" height="172" as="geometry" />
        </mxCell>
        <mxCell id="f_wC157JiwR1pDFYYjTe-479" style="edgeStyle=orthogonalEdgeStyle;rounded=0;orthogonalLoop=1;jettySize=auto;html=1;exitX=0.25;exitY=0;exitDx=0;exitDy=0;entryX=1;entryY=0.25;entryDx=0;entryDy=0;endArrow=block;endFill=0;dashed=1;dashPattern=8 8;" parent="1" source="f_wC157JiwR1pDFYYjTe-216" target="f_wC157JiwR1pDFYYjTe-236" edge="1">
          <mxGeometry relative="1" as="geometry">
            <Array as="points">
              <mxPoint x="2001" y="1920" />
              <mxPoint x="1350" y="1920" />
              <mxPoint x="1350" y="1791" />
            </Array>
          </mxGeometry>
        </mxCell>
        <mxCell id="f_wC157JiwR1pDFYYjTe-480" style="edgeStyle=orthogonalEdgeStyle;rounded=0;orthogonalLoop=1;jettySize=auto;html=1;exitX=0.75;exitY=0;exitDx=0;exitDy=0;entryX=0;entryY=0.25;entryDx=0;entryDy=0;dashed=1;dashPattern=8 8;endArrow=block;endFill=0;" parent="1" source="f_wC157JiwR1pDFYYjTe-216" target="f_wC157JiwR1pDFYYjTe-331" edge="1">
          <mxGeometry relative="1" as="geometry">
            <Array as="points">
              <mxPoint x="2141" y="1960" />
              <mxPoint x="2330" y="1960" />
              <mxPoint x="2330" y="1788" />
            </Array>
          </mxGeometry>
        </mxCell>
        <mxCell id="f_wC157JiwR1pDFYYjTe-599" style="edgeStyle=orthogonalEdgeStyle;rounded=0;orthogonalLoop=1;jettySize=auto;html=1;exitX=0;exitY=0;exitDx=0;exitDy=0;entryX=0.505;entryY=1.009;entryDx=0;entryDy=0;entryPerimeter=0;endArrow=none;endFill=0;startArrow=diamond;startFill=0;" parent="1" source="f_wC157JiwR1pDFYYjTe-216" target="f_wC157JiwR1pDFYYjTe-164" edge="1">
          <mxGeometry relative="1" as="geometry">
            <mxPoint x="1931" y="156" as="targetPoint" />
            <Array as="points">
              <mxPoint x="1931" y="1200" />
              <mxPoint x="2137" y="1200" />
            </Array>
          </mxGeometry>
        </mxCell>
        <mxCell id="f_wC157JiwR1pDFYYjTe-216" value="CERTIFICATE" style="swimlane;fontStyle=1;align=center;verticalAlign=top;childLayout=stackLayout;horizontal=1;startSize=40;horizontalStack=0;resizeParent=1;resizeParentMax=0;resizeLast=0;collapsible=1;marginBottom=0;whiteSpace=wrap;html=1;" parent="1" vertex="1">
          <mxGeometry x="1931" y="2116" width="280" height="260" as="geometry">
            <mxRectangle x="750" y="200" width="80" height="30" as="alternateBounds" />
          </mxGeometry>
        </mxCell>
        <mxCell id="f_wC157JiwR1pDFYYjTe-217" value="+status : int" style="text;strokeColor=none;fillColor=none;align=left;verticalAlign=top;spacingLeft=4;spacingRight=4;overflow=hidden;rotatable=0;points=[[0,0.5],[1,0.5]];portConstraint=eastwest;whiteSpace=wrap;html=1;" parent="f_wC157JiwR1pDFYYjTe-216" vertex="1">
          <mxGeometry y="40" width="280" height="26" as="geometry" />
        </mxCell>
        <mxCell id="f_wC157JiwR1pDFYYjTe-218" value="" style="line;strokeWidth=1;fillColor=none;align=left;verticalAlign=middle;spacingTop=-1;spacingLeft=3;spacingRight=3;rotatable=0;labelPosition=right;points=[];portConstraint=eastwest;strokeColor=inherit;" parent="f_wC157JiwR1pDFYYjTe-216" vertex="1">
          <mxGeometry y="66" width="280" height="8" as="geometry" />
        </mxCell>
        <mxCell id="f_wC157JiwR1pDFYYjTe-219" value="+ requestCertificate(): boolean&lt;br&gt;+ cancelCertificate(): boolean&lt;br style=&quot;border-color: var(--border-color);&quot;&gt;+ executeRequest():&amp;nbsp;boolean&lt;br&gt;+ cancelRequest():&amp;nbsp;boolean&lt;br&gt;+ certificateInvestmentPayment(): boolean&lt;br&gt;+ cancelCertificateInvestmentPayment(): boolean&lt;br&gt;+ executePayment(): boolean&lt;br style=&quot;border-color: var(--border-color);&quot;&gt;+ cancelPayment(): boolean&lt;br&gt;+ findBanker(): void" style="text;strokeColor=none;fillColor=none;align=left;verticalAlign=top;spacingLeft=4;spacingRight=4;overflow=hidden;rotatable=0;points=[[0,0.5],[1,0.5]];portConstraint=eastwest;whiteSpace=wrap;html=1;" parent="f_wC157JiwR1pDFYYjTe-216" vertex="1">
          <mxGeometry y="74" width="280" height="186" as="geometry" />
        </mxCell>
        <mxCell id="1QSR1i9DhKROp5-wo-e_-153" style="edgeStyle=orthogonalEdgeStyle;rounded=0;orthogonalLoop=1;jettySize=auto;html=1;exitX=0.5;exitY=1;exitDx=0;exitDy=0;entryX=0.5;entryY=0;entryDx=0;entryDy=0;endArrow=block;endFill=0;" edge="1" parent="1" source="f_wC157JiwR1pDFYYjTe-220" target="1QSR1i9DhKROp5-wo-e_-145">
          <mxGeometry relative="1" as="geometry">
            <mxPoint x="210" y="2190" as="targetPoint" />
            <Array as="points">
              <mxPoint x="631" y="2160" />
              <mxPoint x="60" y="2160" />
            </Array>
          </mxGeometry>
        </mxCell>
        <mxCell id="f_wC157JiwR1pDFYYjTe-220" value="REQUEST CERTIFICATE" style="swimlane;fontStyle=1;align=center;verticalAlign=top;childLayout=stackLayout;horizontal=1;startSize=26;horizontalStack=0;resizeParent=1;resizeParentMax=0;resizeLast=0;collapsible=1;marginBottom=0;whiteSpace=wrap;html=1;" parent="1" vertex="1">
          <mxGeometry x="551" y="1991" width="160" height="100" as="geometry">
            <mxRectangle x="750" y="200" width="80" height="30" as="alternateBounds" />
          </mxGeometry>
        </mxCell>
        <mxCell id="f_wC157JiwR1pDFYYjTe-221" value="+ status: int" style="text;strokeColor=none;fillColor=none;align=left;verticalAlign=top;spacingLeft=4;spacingRight=4;overflow=hidden;rotatable=0;points=[[0,0.5],[1,0.5]];portConstraint=eastwest;whiteSpace=wrap;html=1;" parent="f_wC157JiwR1pDFYYjTe-220" vertex="1">
          <mxGeometry y="26" width="160" height="26" as="geometry" />
        </mxCell>
        <mxCell id="f_wC157JiwR1pDFYYjTe-222" value="" style="line;strokeWidth=1;fillColor=none;align=left;verticalAlign=middle;spacingTop=-1;spacingLeft=3;spacingRight=3;rotatable=0;labelPosition=right;points=[];portConstraint=eastwest;strokeColor=inherit;" parent="f_wC157JiwR1pDFYYjTe-220" vertex="1">
          <mxGeometry y="52" width="160" height="8" as="geometry" />
        </mxCell>
        <mxCell id="f_wC157JiwR1pDFYYjTe-223" value="+&amp;nbsp;requestService(): boolean&lt;br&gt;+ cancelRequest(): boolean" style="text;strokeColor=none;fillColor=none;align=left;verticalAlign=top;spacingLeft=4;spacingRight=4;overflow=hidden;rotatable=0;points=[[0,0.5],[1,0.5]];portConstraint=eastwest;whiteSpace=wrap;html=1;" parent="f_wC157JiwR1pDFYYjTe-220" vertex="1">
          <mxGeometry y="60" width="160" height="40" as="geometry" />
        </mxCell>
        <mxCell id="1QSR1i9DhKROp5-wo-e_-185" style="edgeStyle=orthogonalEdgeStyle;rounded=0;orthogonalLoop=1;jettySize=auto;html=1;exitX=1;exitY=0.25;exitDx=0;exitDy=0;entryX=0;entryY=0;entryDx=0;entryDy=0;dashed=1;dashPattern=12 12;endArrow=none;endFill=0;startArrow=block;startFill=0;" edge="1" parent="1" source="f_wC157JiwR1pDFYYjTe-236" target="1QSR1i9DhKROp5-wo-e_-92">
          <mxGeometry relative="1" as="geometry">
            <mxPoint x="1660" y="1860" as="targetPoint" />
            <Array as="points">
              <mxPoint x="1350" y="1791" />
              <mxPoint x="1350" y="1920" />
              <mxPoint x="2250" y="1920" />
            </Array>
          </mxGeometry>
        </mxCell>
        <mxCell id="1QSR1i9DhKROp5-wo-e_-194" style="edgeStyle=orthogonalEdgeStyle;rounded=0;orthogonalLoop=1;jettySize=auto;html=1;exitX=0;exitY=0.25;exitDx=0;exitDy=0;entryX=1;entryY=0.25;entryDx=0;entryDy=0;endArrow=diamond;endFill=0;startArrow=classic;startFill=1;" edge="1" parent="1" source="f_wC157JiwR1pDFYYjTe-236" target="f_wC157JiwR1pDFYYjTe-593">
          <mxGeometry relative="1" as="geometry">
            <Array as="points">
              <mxPoint x="960" y="1791" />
              <mxPoint x="960" y="2019" />
            </Array>
          </mxGeometry>
        </mxCell>
        <mxCell id="f_wC157JiwR1pDFYYjTe-236" value="&lt;span style=&quot;font-weight: normal;&quot;&gt;&lt;i&gt;&amp;lt;&amp;lt;interface&amp;gt;&amp;gt;&lt;br&gt;REQUEST RECEIVERS&lt;/i&gt;&lt;/span&gt;" style="swimlane;fontStyle=1;align=center;verticalAlign=top;childLayout=stackLayout;horizontal=1;startSize=40;horizontalStack=0;resizeParent=1;resizeParentMax=0;resizeLast=0;collapsible=1;marginBottom=0;whiteSpace=wrap;html=1;" parent="1" vertex="1">
          <mxGeometry x="1156" y="1769" width="170" height="88" as="geometry">
            <mxRectangle x="750" y="200" width="80" height="30" as="alternateBounds" />
          </mxGeometry>
        </mxCell>
        <mxCell id="f_wC157JiwR1pDFYYjTe-237" value="" style="line;strokeWidth=1;fillColor=none;align=left;verticalAlign=middle;spacingTop=-1;spacingLeft=3;spacingRight=3;rotatable=0;labelPosition=right;points=[];portConstraint=eastwest;strokeColor=inherit;" parent="f_wC157JiwR1pDFYYjTe-236" vertex="1">
          <mxGeometry y="40" width="170" height="8" as="geometry" />
        </mxCell>
        <mxCell id="f_wC157JiwR1pDFYYjTe-238" value="+ executeRequest(): boolean&lt;br&gt;+ cancelRequest(): boolean" style="text;strokeColor=none;fillColor=none;align=left;verticalAlign=top;spacingLeft=4;spacingRight=4;overflow=hidden;rotatable=0;points=[[0,0.5],[1,0.5]];portConstraint=eastwest;whiteSpace=wrap;html=1;" parent="f_wC157JiwR1pDFYYjTe-236" vertex="1">
          <mxGeometry y="48" width="170" height="40" as="geometry" />
        </mxCell>
        <mxCell id="f_wC157JiwR1pDFYYjTe-512" style="edgeStyle=orthogonalEdgeStyle;rounded=0;orthogonalLoop=1;jettySize=auto;html=1;exitX=0.5;exitY=0;exitDx=0;exitDy=0;entryX=0.49;entryY=0.992;entryDx=0;entryDy=0;entryPerimeter=0;endArrow=block;endFill=0;" parent="1" source="f_wC157JiwR1pDFYYjTe-252" target="f_wC157JiwR1pDFYYjTe-18" edge="1">
          <mxGeometry relative="1" as="geometry">
            <Array as="points">
              <mxPoint x="1218" y="224" />
              <mxPoint x="1218" y="189" />
            </Array>
          </mxGeometry>
        </mxCell>
        <mxCell id="1QSR1i9DhKROp5-wo-e_-90" style="edgeStyle=orthogonalEdgeStyle;rounded=0;orthogonalLoop=1;jettySize=auto;html=1;exitX=0;exitY=1;exitDx=0;exitDy=0;startArrow=diamond;startFill=0;endArrow=none;endFill=0;entryX=1;entryY=0;entryDx=0;entryDy=0;" edge="1" parent="1" source="f_wC157JiwR1pDFYYjTe-252" target="1QSR1i9DhKROp5-wo-e_-14">
          <mxGeometry relative="1" as="geometry">
            <mxPoint x="-890" y="1750" as="targetPoint" />
            <Array as="points">
              <mxPoint x="1080" y="550" />
              <mxPoint x="380" y="550" />
              <mxPoint x="380" y="1000" />
              <mxPoint x="-781" y="1000" />
            </Array>
          </mxGeometry>
        </mxCell>
        <mxCell id="f_wC157JiwR1pDFYYjTe-252" value="ADMIN" style="swimlane;fontStyle=1;align=center;verticalAlign=top;childLayout=stackLayout;horizontal=1;startSize=26;horizontalStack=0;resizeParent=1;resizeParentMax=0;resizeLast=0;collapsible=1;marginBottom=0;whiteSpace=wrap;html=1;" parent="1" vertex="1">
          <mxGeometry x="1080" y="224" width="230" height="280" as="geometry">
            <mxRectangle x="750" y="200" width="80" height="30" as="alternateBounds" />
          </mxGeometry>
        </mxCell>
        <mxCell id="f_wC157JiwR1pDFYYjTe-253" value="&lt;font style=&quot;font-size: 10px;&quot;&gt;- activeSessions:static ArrayList&amp;lt;Admin&amp;gt;&lt;br&gt;+ privilegeLevel: int&amp;nbsp;&lt;br&gt;+ departement: String&lt;br&gt;&lt;font style=&quot;font-size: 10px;&quot;&gt;+ static allTechnicalIssues: &amp;lt;technical_issues&amp;gt;&lt;/font&gt;&lt;/font&gt;" style="text;strokeColor=none;fillColor=none;align=left;verticalAlign=top;spacingLeft=4;spacingRight=4;overflow=hidden;rotatable=0;points=[[0,0.5],[1,0.5]];portConstraint=eastwest;whiteSpace=wrap;html=1;" parent="f_wC157JiwR1pDFYYjTe-252" vertex="1">
          <mxGeometry y="26" width="230" height="74" as="geometry" />
        </mxCell>
        <mxCell id="f_wC157JiwR1pDFYYjTe-254" value="" style="line;strokeWidth=1;fillColor=none;align=left;verticalAlign=middle;spacingTop=-1;spacingLeft=3;spacingRight=3;rotatable=0;labelPosition=right;points=[];portConstraint=eastwest;strokeColor=inherit;" parent="f_wC157JiwR1pDFYYjTe-252" vertex="1">
          <mxGeometry y="100" width="230" height="8" as="geometry" />
        </mxCell>
        <mxCell id="f_wC157JiwR1pDFYYjTe-255" value="&lt;font style=&quot;font-size: 10px;&quot;&gt;- Admin():void&lt;br&gt;+ logIn(userName, password) :void&lt;br style=&quot;border-color: var(--border-color);&quot;&gt;+ logOut(): void&lt;br style=&quot;border-color: var(--border-color);&quot;&gt;+ signUp(): void&lt;/font&gt;" style="text;strokeColor=none;fillColor=none;align=left;verticalAlign=top;spacingLeft=4;spacingRight=4;overflow=hidden;rotatable=0;points=[[0,0.5],[1,0.5]];portConstraint=eastwest;whiteSpace=wrap;html=1;" parent="f_wC157JiwR1pDFYYjTe-252" vertex="1">
          <mxGeometry y="108" width="230" height="172" as="geometry" />
        </mxCell>
        <mxCell id="f_wC157JiwR1pDFYYjTe-286" style="edgeStyle=orthogonalEdgeStyle;rounded=0;orthogonalLoop=1;jettySize=auto;html=1;exitX=0.5;exitY=0;exitDx=0;exitDy=0;entryX=0.5;entryY=1;entryDx=0;entryDy=0;endArrow=block;endFill=0;dashed=1;dashPattern=8 8;" parent="1" source="f_wC157JiwR1pDFYYjTe-271" target="f_wC157JiwR1pDFYYjTe-50" edge="1">
          <mxGeometry relative="1" as="geometry" />
        </mxCell>
        <mxCell id="f_wC157JiwR1pDFYYjTe-271" value="THIRD PARTY APPS SIGNUP ADAPTOR" style="swimlane;fontStyle=1;align=center;verticalAlign=top;childLayout=stackLayout;horizontal=1;startSize=40;horizontalStack=0;resizeParent=1;resizeParentMax=0;resizeLast=0;collapsible=1;marginBottom=0;whiteSpace=wrap;html=1;" parent="1" vertex="1">
          <mxGeometry x="-39" y="680" width="170" height="130" as="geometry">
            <mxRectangle x="160" y="290" width="130" height="30" as="alternateBounds" />
          </mxGeometry>
        </mxCell>
        <mxCell id="f_wC157JiwR1pDFYYjTe-272" value="-adaptee: THIRD PARTY SIGN UP FORMAT" style="text;strokeColor=none;fillColor=none;align=left;verticalAlign=top;spacingLeft=4;spacingRight=4;overflow=hidden;rotatable=0;points=[[0,0.5],[1,0.5]];portConstraint=eastwest;whiteSpace=wrap;html=1;" parent="f_wC157JiwR1pDFYYjTe-271" vertex="1">
          <mxGeometry y="40" width="170" height="40" as="geometry" />
        </mxCell>
        <mxCell id="f_wC157JiwR1pDFYYjTe-273" value="" style="line;strokeWidth=1;fillColor=none;align=left;verticalAlign=middle;spacingTop=-1;spacingLeft=3;spacingRight=3;rotatable=0;labelPosition=right;points=[];portConstraint=eastwest;strokeColor=inherit;" parent="f_wC157JiwR1pDFYYjTe-271" vertex="1">
          <mxGeometry y="80" width="170" height="8" as="geometry" />
        </mxCell>
        <mxCell id="f_wC157JiwR1pDFYYjTe-274" value="+enterTheSystem() : boolean&lt;br&gt;" style="text;strokeColor=none;fillColor=none;align=left;verticalAlign=top;spacingLeft=4;spacingRight=4;overflow=hidden;rotatable=0;points=[[0,0.5],[1,0.5]];portConstraint=eastwest;whiteSpace=wrap;html=1;" parent="f_wC157JiwR1pDFYYjTe-271" vertex="1">
          <mxGeometry y="88" width="170" height="42" as="geometry" />
        </mxCell>
        <mxCell id="f_wC157JiwR1pDFYYjTe-275" value="THIRD PARTY SERVICE&lt;br&gt;FOR SIGN UP" style="swimlane;fontStyle=1;align=center;verticalAlign=top;childLayout=stackLayout;horizontal=1;startSize=40;horizontalStack=0;resizeParent=1;resizeParentMax=0;resizeLast=0;collapsible=1;marginBottom=0;whiteSpace=wrap;html=1;" parent="1" vertex="1">
          <mxGeometry x="-499" y="716" width="160" height="48" as="geometry">
            <mxRectangle x="160" y="290" width="130" height="30" as="alternateBounds" />
          </mxGeometry>
        </mxCell>
        <mxCell id="f_wC157JiwR1pDFYYjTe-277" value="" style="line;strokeWidth=1;fillColor=none;align=left;verticalAlign=middle;spacingTop=-1;spacingLeft=3;spacingRight=3;rotatable=0;labelPosition=right;points=[];portConstraint=eastwest;strokeColor=inherit;" parent="f_wC157JiwR1pDFYYjTe-275" vertex="1">
          <mxGeometry y="40" width="160" height="8" as="geometry" />
        </mxCell>
        <mxCell id="f_wC157JiwR1pDFYYjTe-287" style="edgeStyle=orthogonalEdgeStyle;rounded=0;orthogonalLoop=1;jettySize=auto;html=1;exitX=0;exitY=0.5;exitDx=0;exitDy=0;entryX=1;entryY=0.5;entryDx=0;entryDy=0;" parent="1" source="f_wC157JiwR1pDFYYjTe-272" target="f_wC157JiwR1pDFYYjTe-275" edge="1">
          <mxGeometry relative="1" as="geometry" />
        </mxCell>
        <mxCell id="f_wC157JiwR1pDFYYjTe-326" style="edgeStyle=orthogonalEdgeStyle;rounded=0;orthogonalLoop=1;jettySize=auto;html=1;exitX=0.5;exitY=1;exitDx=0;exitDy=0;entryX=0.5;entryY=0;entryDx=0;entryDy=0;endArrow=none;endFill=0;dashed=1;dashPattern=8 8;startArrow=block;startFill=0;" parent="1" source="f_wC157JiwR1pDFYYjTe-305" target="f_wC157JiwR1pDFYYjTe-313" edge="1">
          <mxGeometry relative="1" as="geometry" />
        </mxCell>
        <mxCell id="f_wC157JiwR1pDFYYjTe-327" style="edgeStyle=orthogonalEdgeStyle;rounded=0;orthogonalLoop=1;jettySize=auto;html=1;exitX=0.5;exitY=1;exitDx=0;exitDy=0;entryX=0.5;entryY=0;entryDx=0;entryDy=0;endArrow=none;endFill=0;dashed=1;dashPattern=8 8;startArrow=block;startFill=0;" parent="1" source="f_wC157JiwR1pDFYYjTe-305" target="f_wC157JiwR1pDFYYjTe-321" edge="1">
          <mxGeometry relative="1" as="geometry" />
        </mxCell>
        <mxCell id="f_wC157JiwR1pDFYYjTe-329" style="edgeStyle=orthogonalEdgeStyle;rounded=0;orthogonalLoop=1;jettySize=auto;html=1;exitX=0.5;exitY=1;exitDx=0;exitDy=0;endArrow=none;endFill=0;dashed=1;dashPattern=8 8;startArrow=block;startFill=0;" parent="1" source="f_wC157JiwR1pDFYYjTe-305" target="f_wC157JiwR1pDFYYjTe-317" edge="1">
          <mxGeometry relative="1" as="geometry" />
        </mxCell>
        <mxCell id="f_wC157JiwR1pDFYYjTe-330" style="edgeStyle=orthogonalEdgeStyle;rounded=0;orthogonalLoop=1;jettySize=auto;html=1;exitX=0.5;exitY=1;exitDx=0;exitDy=0;entryX=0.5;entryY=0;entryDx=0;entryDy=0;endArrow=none;endFill=0;startArrow=block;startFill=0;dashed=1;dashPattern=8 8;" parent="1" source="f_wC157JiwR1pDFYYjTe-305" target="f_wC157JiwR1pDFYYjTe-309" edge="1">
          <mxGeometry relative="1" as="geometry" />
        </mxCell>
        <mxCell id="f_wC157JiwR1pDFYYjTe-422" style="edgeStyle=orthogonalEdgeStyle;rounded=0;orthogonalLoop=1;jettySize=auto;html=1;exitX=0.5;exitY=1;exitDx=0;exitDy=0;entryX=0.5;entryY=0;entryDx=0;entryDy=0;endArrow=none;endFill=0;startArrow=block;startFill=0;dashed=1;dashPattern=8 8;" parent="1" source="f_wC157JiwR1pDFYYjTe-305" target="f_wC157JiwR1pDFYYjTe-417" edge="1">
          <mxGeometry relative="1" as="geometry">
            <mxPoint x="3210" y="2276" as="targetPoint" />
            <Array as="points">
              <mxPoint x="3175" y="1950" />
              <mxPoint x="3205" y="1950" />
            </Array>
          </mxGeometry>
        </mxCell>
        <mxCell id="f_wC157JiwR1pDFYYjTe-504" style="edgeStyle=orthogonalEdgeStyle;rounded=0;orthogonalLoop=1;jettySize=auto;html=1;exitX=0.5;exitY=1;exitDx=0;exitDy=0;entryX=0.5;entryY=0;entryDx=0;entryDy=0;endArrow=none;endFill=0;dashed=1;dashPattern=8 8;startArrow=block;startFill=0;" parent="1" source="f_wC157JiwR1pDFYYjTe-305" target="f_wC157JiwR1pDFYYjTe-497" edge="1">
          <mxGeometry relative="1" as="geometry">
            <mxPoint x="3560" y="1920" as="targetPoint" />
            <Array as="points">
              <mxPoint x="3175" y="1950" />
              <mxPoint x="3695" y="1950" />
            </Array>
          </mxGeometry>
        </mxCell>
        <mxCell id="1QSR1i9DhKROp5-wo-e_-170" style="edgeStyle=orthogonalEdgeStyle;rounded=0;orthogonalLoop=1;jettySize=auto;html=1;exitX=0;exitY=0.25;exitDx=0;exitDy=0;entryX=1;entryY=0.5;entryDx=0;entryDy=0;endArrow=block;endFill=0;" edge="1" parent="1" source="f_wC157JiwR1pDFYYjTe-305" target="f_wC157JiwR1pDFYYjTe-536">
          <mxGeometry relative="1" as="geometry">
            <mxPoint x="990" y="1560" as="targetPoint" />
            <Array as="points">
              <mxPoint x="3080" y="1824" />
              <mxPoint x="3080" y="1680" />
              <mxPoint x="120" y="1680" />
              <mxPoint x="120" y="1254" />
            </Array>
          </mxGeometry>
        </mxCell>
        <mxCell id="f_wC157JiwR1pDFYYjTe-305" value="&lt;i style=&quot;font-weight: normal;&quot;&gt;&amp;lt;&amp;lt;interfaces&amp;gt;&amp;gt;&lt;br&gt;PAYMENT SERVICES&lt;/i&gt;" style="swimlane;fontStyle=1;align=center;verticalAlign=top;childLayout=stackLayout;horizontal=1;startSize=40;horizontalStack=0;resizeParent=1;resizeParentMax=0;resizeLast=0;collapsible=1;marginBottom=0;whiteSpace=wrap;html=1;" parent="1" vertex="1">
          <mxGeometry x="3090" y="1799" width="170" height="100" as="geometry" />
        </mxCell>
        <mxCell id="f_wC157JiwR1pDFYYjTe-307" value="" style="line;strokeWidth=1;fillColor=none;align=left;verticalAlign=middle;spacingTop=-1;spacingLeft=3;spacingRight=3;rotatable=0;labelPosition=right;points=[];portConstraint=eastwest;strokeColor=inherit;" parent="f_wC157JiwR1pDFYYjTe-305" vertex="1">
          <mxGeometry y="40" width="170" height="8" as="geometry" />
        </mxCell>
        <mxCell id="f_wC157JiwR1pDFYYjTe-308" value="+ performPayment(): boolean&lt;br&gt;+ cancelPayment():boolean" style="text;strokeColor=none;fillColor=none;align=left;verticalAlign=top;spacingLeft=4;spacingRight=4;overflow=hidden;rotatable=0;points=[[0,0.5],[1,0.5]];portConstraint=eastwest;whiteSpace=wrap;html=1;" parent="f_wC157JiwR1pDFYYjTe-305" vertex="1">
          <mxGeometry y="48" width="170" height="52" as="geometry" />
        </mxCell>
        <mxCell id="1QSR1i9DhKROp5-wo-e_-100" style="edgeStyle=orthogonalEdgeStyle;rounded=0;orthogonalLoop=1;jettySize=auto;html=1;exitX=0.5;exitY=1;exitDx=0;exitDy=0;entryX=0.5;entryY=0;entryDx=0;entryDy=0;endArrow=none;endFill=0;" edge="1" parent="1" source="f_wC157JiwR1pDFYYjTe-309" target="1QSR1i9DhKROp5-wo-e_-52">
          <mxGeometry relative="1" as="geometry">
            <mxPoint x="3700" y="2250" as="targetPoint" />
            <Array as="points">
              <mxPoint x="2905" y="2240" />
              <mxPoint x="3820" y="2240" />
            </Array>
          </mxGeometry>
        </mxCell>
        <mxCell id="1QSR1i9DhKROp5-wo-e_-101" style="edgeStyle=orthogonalEdgeStyle;rounded=0;orthogonalLoop=1;jettySize=auto;html=1;exitX=0.5;exitY=1;exitDx=0;exitDy=0;endArrow=none;endFill=0;" edge="1" parent="1" source="f_wC157JiwR1pDFYYjTe-309">
          <mxGeometry relative="1" as="geometry">
            <mxPoint x="4010" y="2280" as="targetPoint" />
            <Array as="points">
              <mxPoint x="2905" y="2240" />
              <mxPoint x="4011" y="2240" />
              <mxPoint x="4011" y="2280" />
            </Array>
          </mxGeometry>
        </mxCell>
        <mxCell id="f_wC157JiwR1pDFYYjTe-309" value="CREDIT CARD PAYMENT" style="swimlane;fontStyle=1;align=center;verticalAlign=top;childLayout=stackLayout;horizontal=1;startSize=44;horizontalStack=0;resizeParent=1;resizeParentMax=0;resizeLast=0;collapsible=1;marginBottom=0;whiteSpace=wrap;html=1;" parent="1" vertex="1">
          <mxGeometry x="2820" y="2002" width="170" height="148" as="geometry" />
        </mxCell>
        <mxCell id="f_wC157JiwR1pDFYYjTe-310" value="+" style="text;strokeColor=none;fillColor=none;align=left;verticalAlign=top;spacingLeft=4;spacingRight=4;overflow=hidden;rotatable=0;points=[[0,0.5],[1,0.5]];portConstraint=eastwest;whiteSpace=wrap;html=1;" parent="f_wC157JiwR1pDFYYjTe-309" vertex="1">
          <mxGeometry y="44" width="170" height="26" as="geometry" />
        </mxCell>
        <mxCell id="f_wC157JiwR1pDFYYjTe-311" value="" style="line;strokeWidth=1;fillColor=none;align=left;verticalAlign=middle;spacingTop=-1;spacingLeft=3;spacingRight=3;rotatable=0;labelPosition=right;points=[];portConstraint=eastwest;strokeColor=inherit;" parent="f_wC157JiwR1pDFYYjTe-309" vertex="1">
          <mxGeometry y="70" width="170" height="8" as="geometry" />
        </mxCell>
        <mxCell id="f_wC157JiwR1pDFYYjTe-312" value="+ performPayment(): boolean&lt;br style=&quot;border-color: var(--border-color);&quot;&gt;+ cancelPayment():boolean" style="text;strokeColor=none;fillColor=none;align=left;verticalAlign=top;spacingLeft=4;spacingRight=4;overflow=hidden;rotatable=0;points=[[0,0.5],[1,0.5]];portConstraint=eastwest;whiteSpace=wrap;html=1;" parent="f_wC157JiwR1pDFYYjTe-309" vertex="1">
          <mxGeometry y="78" width="170" height="70" as="geometry" />
        </mxCell>
        <mxCell id="1QSR1i9DhKROp5-wo-e_-87" style="edgeStyle=orthogonalEdgeStyle;rounded=0;orthogonalLoop=1;jettySize=auto;html=1;exitX=0.5;exitY=1;exitDx=0;exitDy=0;entryX=0.5;entryY=0;entryDx=0;entryDy=0;endArrow=none;endFill=0;" edge="1" parent="1" source="f_wC157JiwR1pDFYYjTe-313" target="1QSR1i9DhKROp5-wo-e_-52">
          <mxGeometry relative="1" as="geometry">
            <mxPoint x="3730" y="2260" as="targetPoint" />
            <Array as="points">
              <mxPoint x="3105" y="2240" />
              <mxPoint x="3820" y="2240" />
            </Array>
          </mxGeometry>
        </mxCell>
        <mxCell id="1QSR1i9DhKROp5-wo-e_-88" style="edgeStyle=orthogonalEdgeStyle;rounded=0;orthogonalLoop=1;jettySize=auto;html=1;exitX=0.5;exitY=1;exitDx=0;exitDy=0;entryX=0.5;entryY=0;entryDx=0;entryDy=0;endArrow=none;endFill=0;" edge="1" parent="1" source="f_wC157JiwR1pDFYYjTe-313" target="1QSR1i9DhKROp5-wo-e_-48">
          <mxGeometry relative="1" as="geometry">
            <mxPoint x="3870" y="2240" as="targetPoint" />
            <Array as="points">
              <mxPoint x="3105" y="2240" />
              <mxPoint x="4010" y="2240" />
            </Array>
          </mxGeometry>
        </mxCell>
        <mxCell id="f_wC157JiwR1pDFYYjTe-313" value="BILLS PAYMENT" style="swimlane;fontStyle=1;align=center;verticalAlign=top;childLayout=stackLayout;horizontal=1;startSize=44;horizontalStack=0;resizeParent=1;resizeParentMax=0;resizeLast=0;collapsible=1;marginBottom=0;whiteSpace=wrap;html=1;" parent="1" vertex="1">
          <mxGeometry x="3020" y="2002" width="170" height="148" as="geometry" />
        </mxCell>
        <mxCell id="f_wC157JiwR1pDFYYjTe-314" value="+" style="text;strokeColor=none;fillColor=none;align=left;verticalAlign=top;spacingLeft=4;spacingRight=4;overflow=hidden;rotatable=0;points=[[0,0.5],[1,0.5]];portConstraint=eastwest;whiteSpace=wrap;html=1;" parent="f_wC157JiwR1pDFYYjTe-313" vertex="1">
          <mxGeometry y="44" width="170" height="26" as="geometry" />
        </mxCell>
        <mxCell id="f_wC157JiwR1pDFYYjTe-315" value="" style="line;strokeWidth=1;fillColor=none;align=left;verticalAlign=middle;spacingTop=-1;spacingLeft=3;spacingRight=3;rotatable=0;labelPosition=right;points=[];portConstraint=eastwest;strokeColor=inherit;" parent="f_wC157JiwR1pDFYYjTe-313" vertex="1">
          <mxGeometry y="70" width="170" height="8" as="geometry" />
        </mxCell>
        <mxCell id="f_wC157JiwR1pDFYYjTe-316" value="+ performPayment(): boolean&lt;br style=&quot;border-color: var(--border-color);&quot;&gt;+ cancelPayment():boolean" style="text;strokeColor=none;fillColor=none;align=left;verticalAlign=top;spacingLeft=4;spacingRight=4;overflow=hidden;rotatable=0;points=[[0,0.5],[1,0.5]];portConstraint=eastwest;whiteSpace=wrap;html=1;" parent="f_wC157JiwR1pDFYYjTe-313" vertex="1">
          <mxGeometry y="78" width="170" height="70" as="geometry" />
        </mxCell>
        <mxCell id="f_wC157JiwR1pDFYYjTe-317" value="REDEEMING POINTS FOR MONEY" style="swimlane;fontStyle=1;align=center;verticalAlign=top;childLayout=stackLayout;horizontal=1;startSize=42;horizontalStack=0;resizeParent=1;resizeParentMax=0;resizeLast=0;collapsible=1;marginBottom=0;whiteSpace=wrap;html=1;" parent="1" vertex="1">
          <mxGeometry x="3420" y="2002" width="170" height="150" as="geometry" />
        </mxCell>
        <mxCell id="f_wC157JiwR1pDFYYjTe-318" value="+" style="text;strokeColor=none;fillColor=none;align=left;verticalAlign=top;spacingLeft=4;spacingRight=4;overflow=hidden;rotatable=0;points=[[0,0.5],[1,0.5]];portConstraint=eastwest;whiteSpace=wrap;html=1;" parent="f_wC157JiwR1pDFYYjTe-317" vertex="1">
          <mxGeometry y="42" width="170" height="26" as="geometry" />
        </mxCell>
        <mxCell id="f_wC157JiwR1pDFYYjTe-319" value="" style="line;strokeWidth=1;fillColor=none;align=left;verticalAlign=middle;spacingTop=-1;spacingLeft=3;spacingRight=3;rotatable=0;labelPosition=right;points=[];portConstraint=eastwest;strokeColor=inherit;" parent="f_wC157JiwR1pDFYYjTe-317" vertex="1">
          <mxGeometry y="68" width="170" height="8" as="geometry" />
        </mxCell>
        <mxCell id="f_wC157JiwR1pDFYYjTe-320" value="+ performPayment(): boolean&lt;br style=&quot;border-color: var(--border-color);&quot;&gt;+ cancelPayment():boolean" style="text;strokeColor=none;fillColor=none;align=left;verticalAlign=top;spacingLeft=4;spacingRight=4;overflow=hidden;rotatable=0;points=[[0,0.5],[1,0.5]];portConstraint=eastwest;whiteSpace=wrap;html=1;" parent="f_wC157JiwR1pDFYYjTe-317" vertex="1">
          <mxGeometry y="76" width="170" height="74" as="geometry" />
        </mxCell>
        <mxCell id="1QSR1i9DhKROp5-wo-e_-102" style="edgeStyle=orthogonalEdgeStyle;rounded=0;orthogonalLoop=1;jettySize=auto;html=1;exitX=0.5;exitY=1;exitDx=0;exitDy=0;endArrow=none;endFill=0;entryX=0.5;entryY=0;entryDx=0;entryDy=0;" edge="1" parent="1" source="f_wC157JiwR1pDFYYjTe-321" target="1QSR1i9DhKROp5-wo-e_-52">
          <mxGeometry relative="1" as="geometry">
            <mxPoint x="3850.6060606060605" y="2220" as="targetPoint" />
            <Array as="points">
              <mxPoint x="3317" y="2240" />
              <mxPoint x="3820" y="2240" />
            </Array>
          </mxGeometry>
        </mxCell>
        <mxCell id="1QSR1i9DhKROp5-wo-e_-104" style="edgeStyle=orthogonalEdgeStyle;rounded=0;orthogonalLoop=1;jettySize=auto;html=1;exitX=0.5;exitY=1;exitDx=0;exitDy=0;endArrow=none;endFill=0;" edge="1" parent="1" source="f_wC157JiwR1pDFYYjTe-321">
          <mxGeometry relative="1" as="geometry">
            <mxPoint x="4010" y="2280" as="targetPoint" />
            <Array as="points">
              <mxPoint x="3317" y="2240" />
              <mxPoint x="4011" y="2240" />
              <mxPoint x="4011" y="2280" />
            </Array>
          </mxGeometry>
        </mxCell>
        <mxCell id="f_wC157JiwR1pDFYYjTe-321" value="LOAN PAYMENT" style="swimlane;fontStyle=1;align=center;verticalAlign=top;childLayout=stackLayout;horizontal=1;startSize=44;horizontalStack=0;resizeParent=1;resizeParentMax=0;resizeLast=0;collapsible=1;marginBottom=0;whiteSpace=wrap;html=1;" parent="1" vertex="1">
          <mxGeometry x="3232" y="2002" width="170" height="150" as="geometry" />
        </mxCell>
        <mxCell id="f_wC157JiwR1pDFYYjTe-322" value="+" style="text;strokeColor=none;fillColor=none;align=left;verticalAlign=top;spacingLeft=4;spacingRight=4;overflow=hidden;rotatable=0;points=[[0,0.5],[1,0.5]];portConstraint=eastwest;whiteSpace=wrap;html=1;" parent="f_wC157JiwR1pDFYYjTe-321" vertex="1">
          <mxGeometry y="44" width="170" height="26" as="geometry" />
        </mxCell>
        <mxCell id="f_wC157JiwR1pDFYYjTe-323" value="" style="line;strokeWidth=1;fillColor=none;align=left;verticalAlign=middle;spacingTop=-1;spacingLeft=3;spacingRight=3;rotatable=0;labelPosition=right;points=[];portConstraint=eastwest;strokeColor=inherit;" parent="f_wC157JiwR1pDFYYjTe-321" vertex="1">
          <mxGeometry y="70" width="170" height="8" as="geometry" />
        </mxCell>
        <mxCell id="f_wC157JiwR1pDFYYjTe-324" value="+ performPayment(): boolean&lt;br style=&quot;border-color: var(--border-color);&quot;&gt;+ cancelPayment():boolean" style="text;strokeColor=none;fillColor=none;align=left;verticalAlign=top;spacingLeft=4;spacingRight=4;overflow=hidden;rotatable=0;points=[[0,0.5],[1,0.5]];portConstraint=eastwest;whiteSpace=wrap;html=1;" parent="f_wC157JiwR1pDFYYjTe-321" vertex="1">
          <mxGeometry y="78" width="170" height="72" as="geometry" />
        </mxCell>
        <mxCell id="f_wC157JiwR1pDFYYjTe-331" value="&lt;span style=&quot;font-weight: normal;&quot;&gt;&lt;i&gt;&amp;lt;&amp;lt;interface&amp;gt;&amp;gt;&lt;br&gt;PAYMENT RECEIVERS&lt;/i&gt;&lt;/span&gt;" style="swimlane;fontStyle=1;align=center;verticalAlign=top;childLayout=stackLayout;horizontal=1;startSize=49;horizontalStack=0;resizeParent=1;resizeParentMax=0;resizeLast=0;collapsible=1;marginBottom=0;whiteSpace=wrap;html=1;" parent="1" vertex="1">
          <mxGeometry x="2350" y="1763" width="180" height="100" as="geometry" />
        </mxCell>
        <mxCell id="f_wC157JiwR1pDFYYjTe-333" value="" style="line;strokeWidth=1;fillColor=none;align=left;verticalAlign=middle;spacingTop=-1;spacingLeft=3;spacingRight=3;rotatable=0;labelPosition=right;points=[];portConstraint=eastwest;strokeColor=inherit;" parent="f_wC157JiwR1pDFYYjTe-331" vertex="1">
          <mxGeometry y="49" width="180" height="8" as="geometry" />
        </mxCell>
        <mxCell id="f_wC157JiwR1pDFYYjTe-334" value="+ executePayment(): boolean&lt;br style=&quot;border-color: var(--border-color);&quot;&gt;+ cancelPayment(): boolean" style="text;strokeColor=none;fillColor=none;align=left;verticalAlign=top;spacingLeft=4;spacingRight=4;overflow=hidden;rotatable=0;points=[[0,0.5],[1,0.5]];portConstraint=eastwest;whiteSpace=wrap;html=1;" parent="f_wC157JiwR1pDFYYjTe-331" vertex="1">
          <mxGeometry y="57" width="180" height="43" as="geometry" />
        </mxCell>
        <mxCell id="f_wC157JiwR1pDFYYjTe-390" style="edgeStyle=orthogonalEdgeStyle;rounded=0;orthogonalLoop=1;jettySize=auto;html=1;exitX=0.5;exitY=1;exitDx=0;exitDy=0;endArrow=block;endFill=0;dashed=1;dashPattern=8 8;" parent="1" source="f_wC157JiwR1pDFYYjTe-372" target="f_wC157JiwR1pDFYYjTe-331" edge="1">
          <mxGeometry relative="1" as="geometry">
            <mxPoint x="2850" y="680" as="targetPoint" />
          </mxGeometry>
        </mxCell>
        <mxCell id="f_wC157JiwR1pDFYYjTe-372" value="POINTS" style="swimlane;fontStyle=1;align=center;verticalAlign=top;childLayout=stackLayout;horizontal=1;startSize=26;horizontalStack=0;resizeParent=1;resizeParentMax=0;resizeLast=0;collapsible=1;marginBottom=0;whiteSpace=wrap;html=1;" parent="1" vertex="1">
          <mxGeometry x="2340" y="440" width="200" height="160" as="geometry" />
        </mxCell>
        <mxCell id="f_wC157JiwR1pDFYYjTe-373" value="points_balance: int&lt;br&gt;expiration_date: date" style="text;strokeColor=none;fillColor=none;align=left;verticalAlign=top;spacingLeft=4;spacingRight=4;overflow=hidden;rotatable=0;points=[[0,0.5],[1,0.5]];portConstraint=eastwest;whiteSpace=wrap;html=1;" parent="f_wC157JiwR1pDFYYjTe-372" vertex="1">
          <mxGeometry y="26" width="200" height="44" as="geometry" />
        </mxCell>
        <mxCell id="f_wC157JiwR1pDFYYjTe-374" value="" style="line;strokeWidth=1;fillColor=none;align=left;verticalAlign=middle;spacingTop=-1;spacingLeft=3;spacingRight=3;rotatable=0;labelPosition=right;points=[];portConstraint=eastwest;strokeColor=inherit;" parent="f_wC157JiwR1pDFYYjTe-372" vertex="1">
          <mxGeometry y="70" width="200" height="8" as="geometry" />
        </mxCell>
        <mxCell id="f_wC157JiwR1pDFYYjTe-375" value="+ redeemPoints(): boolean&lt;br&gt;+ cancelRedeemPoints(): boolean&lt;br&gt;+ executePayment(): boolean&lt;br style=&quot;border-color: var(--border-color);&quot;&gt;+ cancelPayment(): boolean&lt;br&gt;" style="text;strokeColor=none;fillColor=none;align=left;verticalAlign=top;spacingLeft=4;spacingRight=4;overflow=hidden;rotatable=0;points=[[0,0.5],[1,0.5]];portConstraint=eastwest;whiteSpace=wrap;html=1;" parent="f_wC157JiwR1pDFYYjTe-372" vertex="1">
          <mxGeometry y="78" width="200" height="82" as="geometry" />
        </mxCell>
        <mxCell id="f_wC157JiwR1pDFYYjTe-391" style="edgeStyle=orthogonalEdgeStyle;rounded=0;orthogonalLoop=1;jettySize=auto;html=1;exitX=0.5;exitY=1;exitDx=0;exitDy=0;entryX=0.5;entryY=0;entryDx=0;entryDy=0;dashed=1;dashPattern=8 8;endArrow=block;endFill=0;" parent="1" source="f_wC157JiwR1pDFYYjTe-380" target="f_wC157JiwR1pDFYYjTe-331" edge="1">
          <mxGeometry relative="1" as="geometry">
            <mxPoint x="2950" y="880" as="targetPoint" />
          </mxGeometry>
        </mxCell>
        <mxCell id="f_wC157JiwR1pDFYYjTe-380" value="BILLS" style="swimlane;fontStyle=1;align=center;verticalAlign=top;childLayout=stackLayout;horizontal=1;startSize=26;horizontalStack=0;resizeParent=1;resizeParentMax=0;resizeLast=0;collapsible=1;marginBottom=0;whiteSpace=wrap;html=1;" parent="1" vertex="1">
          <mxGeometry x="2580" y="440" width="190" height="188" as="geometry" />
        </mxCell>
        <mxCell id="f_wC157JiwR1pDFYYjTe-381" value="+ bill_amount: int&lt;br&gt;+ dueDate: date&lt;br&gt;+ issueDate: date&lt;br&gt;+ type: String&lt;br&gt;+ status: int" style="text;strokeColor=none;fillColor=none;align=left;verticalAlign=top;spacingLeft=4;spacingRight=4;overflow=hidden;rotatable=0;points=[[0,0.5],[1,0.5]];portConstraint=eastwest;whiteSpace=wrap;html=1;" parent="f_wC157JiwR1pDFYYjTe-380" vertex="1">
          <mxGeometry y="26" width="190" height="74" as="geometry" />
        </mxCell>
        <mxCell id="f_wC157JiwR1pDFYYjTe-382" value="" style="line;strokeWidth=1;fillColor=none;align=left;verticalAlign=middle;spacingTop=-1;spacingLeft=3;spacingRight=3;rotatable=0;labelPosition=right;points=[];portConstraint=eastwest;strokeColor=inherit;" parent="f_wC157JiwR1pDFYYjTe-380" vertex="1">
          <mxGeometry y="100" width="190" height="8" as="geometry" />
        </mxCell>
        <mxCell id="f_wC157JiwR1pDFYYjTe-383" value="+ billsPayment(): boolean&lt;br&gt;+ cancelBillsPayment(): boolean&lt;br&gt;+ executePayment(): boolean&lt;br style=&quot;border-color: var(--border-color);&quot;&gt;+ cancelPayment(): boolean" style="text;strokeColor=none;fillColor=none;align=left;verticalAlign=top;spacingLeft=4;spacingRight=4;overflow=hidden;rotatable=0;points=[[0,0.5],[1,0.5]];portConstraint=eastwest;whiteSpace=wrap;html=1;" parent="f_wC157JiwR1pDFYYjTe-380" vertex="1">
          <mxGeometry y="108" width="190" height="80" as="geometry" />
        </mxCell>
        <mxCell id="f_wC157JiwR1pDFYYjTe-387" value="HAS" style="text;html=1;align=center;verticalAlign=middle;resizable=0;points=[];autosize=1;strokeColor=none;fillColor=none;" parent="1" vertex="1">
          <mxGeometry x="2635" y="210" width="50" height="30" as="geometry" />
        </mxCell>
        <mxCell id="f_wC157JiwR1pDFYYjTe-407" style="edgeStyle=orthogonalEdgeStyle;rounded=0;orthogonalLoop=1;jettySize=auto;html=1;exitX=0;exitY=0.5;exitDx=0;exitDy=0;entryX=1;entryY=0.25;entryDx=0;entryDy=0;startArrow=diamond;startFill=0;" parent="1" source="f_wC157JiwR1pDFYYjTe-310" target="f_wC157JiwR1pDFYYjTe-331" edge="1">
          <mxGeometry relative="1" as="geometry">
            <Array as="points">
              <mxPoint x="2700" y="2059" />
              <mxPoint x="2700" y="1788" />
            </Array>
          </mxGeometry>
        </mxCell>
        <mxCell id="f_wC157JiwR1pDFYYjTe-409" style="edgeStyle=orthogonalEdgeStyle;rounded=0;orthogonalLoop=1;jettySize=auto;html=1;exitX=0;exitY=0.5;exitDx=0;exitDy=0;entryX=1;entryY=0.25;entryDx=0;entryDy=0;startArrow=diamond;startFill=0;" parent="1" source="f_wC157JiwR1pDFYYjTe-314" target="f_wC157JiwR1pDFYYjTe-331" edge="1">
          <mxGeometry relative="1" as="geometry">
            <mxPoint x="2610" y="1876" as="targetPoint" />
            <Array as="points">
              <mxPoint x="3010" y="2059" />
              <mxPoint x="3010" y="2200" />
              <mxPoint x="2700" y="2200" />
              <mxPoint x="2700" y="1788" />
            </Array>
          </mxGeometry>
        </mxCell>
        <mxCell id="f_wC157JiwR1pDFYYjTe-410" style="edgeStyle=orthogonalEdgeStyle;rounded=0;orthogonalLoop=1;jettySize=auto;html=1;exitX=0;exitY=0.5;exitDx=0;exitDy=0;entryX=1;entryY=0.25;entryDx=0;entryDy=0;startArrow=diamond;startFill=0;" parent="1" source="f_wC157JiwR1pDFYYjTe-322" target="f_wC157JiwR1pDFYYjTe-331" edge="1">
          <mxGeometry relative="1" as="geometry">
            <mxPoint x="2610" y="1826" as="targetPoint" />
            <Array as="points">
              <mxPoint x="3220" y="2059" />
              <mxPoint x="3220" y="2200" />
              <mxPoint x="2700" y="2200" />
              <mxPoint x="2700" y="1788" />
            </Array>
          </mxGeometry>
        </mxCell>
        <mxCell id="f_wC157JiwR1pDFYYjTe-411" style="edgeStyle=orthogonalEdgeStyle;rounded=0;orthogonalLoop=1;jettySize=auto;html=1;exitX=0;exitY=0.5;exitDx=0;exitDy=0;entryX=1;entryY=0.25;entryDx=0;entryDy=0;startArrow=diamond;startFill=0;" parent="1" source="f_wC157JiwR1pDFYYjTe-318" target="f_wC157JiwR1pDFYYjTe-331" edge="1">
          <mxGeometry relative="1" as="geometry">
            <mxPoint x="2590" y="1846" as="targetPoint" />
            <Array as="points">
              <mxPoint x="3410" y="2057" />
              <mxPoint x="3410" y="2200" />
              <mxPoint x="2700" y="2200" />
              <mxPoint x="2700" y="1788" />
            </Array>
          </mxGeometry>
        </mxCell>
        <mxCell id="f_wC157JiwR1pDFYYjTe-412" style="edgeStyle=orthogonalEdgeStyle;rounded=0;orthogonalLoop=1;jettySize=auto;html=1;exitX=1;exitY=0.5;exitDx=0;exitDy=0;entryX=0;entryY=0.25;entryDx=0;entryDy=0;startArrow=diamond;startFill=0;" parent="1" source="f_wC157JiwR1pDFYYjTe-221" target="f_wC157JiwR1pDFYYjTe-236" edge="1">
          <mxGeometry relative="1" as="geometry">
            <Array as="points">
              <mxPoint x="740" y="2030" />
              <mxPoint x="740" y="2160" />
              <mxPoint x="960" y="2160" />
              <mxPoint x="960" y="1790" />
              <mxPoint x="1150" y="1790" />
            </Array>
          </mxGeometry>
        </mxCell>
        <mxCell id="f_wC157JiwR1pDFYYjTe-413" style="edgeStyle=orthogonalEdgeStyle;rounded=0;orthogonalLoop=1;jettySize=auto;html=1;entryX=0;entryY=0.25;entryDx=0;entryDy=0;startArrow=diamond;startFill=0;exitX=1;exitY=0.5;exitDx=0;exitDy=0;" parent="1" source="f_wC157JiwR1pDFYYjTe-203" target="f_wC157JiwR1pDFYYjTe-236" edge="1">
          <mxGeometry relative="1" as="geometry">
            <mxPoint x="1740" y="1838.0000000000002" as="targetPoint" />
            <Array as="points">
              <mxPoint x="540" y="2049" />
              <mxPoint x="540" y="2160" />
              <mxPoint x="960" y="2160" />
              <mxPoint x="960" y="1790" />
              <mxPoint x="1150" y="1790" />
              <mxPoint x="1150" y="1791" />
            </Array>
            <mxPoint x="530" y="2030" as="sourcePoint" />
          </mxGeometry>
        </mxCell>
        <mxCell id="f_wC157JiwR1pDFYYjTe-415" style="edgeStyle=orthogonalEdgeStyle;rounded=0;orthogonalLoop=1;jettySize=auto;html=1;entryX=0;entryY=0.25;entryDx=0;entryDy=0;startArrow=diamond;startFill=0;exitX=1.003;exitY=0.358;exitDx=0;exitDy=0;exitPerimeter=0;" parent="1" source="f_wC157JiwR1pDFYYjTe-198" target="f_wC157JiwR1pDFYYjTe-236" edge="1">
          <mxGeometry relative="1" as="geometry">
            <mxPoint x="1670" y="1878.0000000000002" as="targetPoint" />
            <Array as="points">
              <mxPoint x="350" y="2040" />
              <mxPoint x="350" y="2160" />
              <mxPoint x="960" y="2160" />
              <mxPoint x="960" y="1790" />
              <mxPoint x="1150" y="1790" />
              <mxPoint x="1150" y="1791" />
            </Array>
            <mxPoint x="340" y="2030" as="sourcePoint" />
          </mxGeometry>
        </mxCell>
        <mxCell id="f_wC157JiwR1pDFYYjTe-425" style="edgeStyle=orthogonalEdgeStyle;rounded=0;orthogonalLoop=1;jettySize=auto;html=1;exitX=1;exitY=0;exitDx=0;exitDy=0;entryX=0;entryY=0;entryDx=0;entryDy=0;" parent="1" source="f_wC157JiwR1pDFYYjTe-417" target="f_wC157JiwR1pDFYYjTe-423" edge="1">
          <mxGeometry relative="1" as="geometry">
            <Array as="points">
              <mxPoint x="3350" y="2296" />
              <mxPoint x="3350" y="2296" />
            </Array>
          </mxGeometry>
        </mxCell>
        <mxCell id="f_wC157JiwR1pDFYYjTe-417" value="THIRD PARTY APPS Bill PAYMENT ADAPTOR" style="swimlane;fontStyle=1;align=center;verticalAlign=top;childLayout=stackLayout;horizontal=1;startSize=40;horizontalStack=0;resizeParent=1;resizeParentMax=0;resizeLast=0;collapsible=1;marginBottom=0;whiteSpace=wrap;html=1;" parent="1" vertex="1">
          <mxGeometry x="3120" y="2296" width="170" height="130" as="geometry">
            <mxRectangle x="160" y="290" width="130" height="30" as="alternateBounds" />
          </mxGeometry>
        </mxCell>
        <mxCell id="f_wC157JiwR1pDFYYjTe-418" value="- adaptee: THIRD PARTY PAYMENT FORMAT" style="text;strokeColor=none;fillColor=none;align=left;verticalAlign=top;spacingLeft=4;spacingRight=4;overflow=hidden;rotatable=0;points=[[0,0.5],[1,0.5]];portConstraint=eastwest;whiteSpace=wrap;html=1;" parent="f_wC157JiwR1pDFYYjTe-417" vertex="1">
          <mxGeometry y="40" width="170" height="40" as="geometry" />
        </mxCell>
        <mxCell id="f_wC157JiwR1pDFYYjTe-419" value="" style="line;strokeWidth=1;fillColor=none;align=left;verticalAlign=middle;spacingTop=-1;spacingLeft=3;spacingRight=3;rotatable=0;labelPosition=right;points=[];portConstraint=eastwest;strokeColor=inherit;" parent="f_wC157JiwR1pDFYYjTe-417" vertex="1">
          <mxGeometry y="80" width="170" height="8" as="geometry" />
        </mxCell>
        <mxCell id="f_wC157JiwR1pDFYYjTe-420" value="+ performPayment(): boolean&lt;br style=&quot;border-color: var(--border-color);&quot;&gt;+ cancelPayment():boolean" style="text;strokeColor=none;fillColor=none;align=left;verticalAlign=top;spacingLeft=4;spacingRight=4;overflow=hidden;rotatable=0;points=[[0,0.5],[1,0.5]];portConstraint=eastwest;whiteSpace=wrap;html=1;" parent="f_wC157JiwR1pDFYYjTe-417" vertex="1">
          <mxGeometry y="88" width="170" height="42" as="geometry" />
        </mxCell>
        <mxCell id="f_wC157JiwR1pDFYYjTe-423" value="THIRD PARTY SERVICE&lt;br&gt;FOR SIGN UP" style="swimlane;fontStyle=1;align=center;verticalAlign=top;childLayout=stackLayout;horizontal=1;startSize=40;horizontalStack=0;resizeParent=1;resizeParentMax=0;resizeLast=0;collapsible=1;marginBottom=0;whiteSpace=wrap;html=1;" parent="1" vertex="1">
          <mxGeometry x="3400" y="2296" width="160" height="48" as="geometry">
            <mxRectangle x="160" y="290" width="130" height="30" as="alternateBounds" />
          </mxGeometry>
        </mxCell>
        <mxCell id="f_wC157JiwR1pDFYYjTe-424" value="" style="line;strokeWidth=1;fillColor=none;align=left;verticalAlign=middle;spacingTop=-1;spacingLeft=3;spacingRight=3;rotatable=0;labelPosition=right;points=[];portConstraint=eastwest;strokeColor=inherit;" parent="f_wC157JiwR1pDFYYjTe-423" vertex="1">
          <mxGeometry y="40" width="160" height="8" as="geometry" />
        </mxCell>
        <mxCell id="f_wC157JiwR1pDFYYjTe-487" value="USES" style="text;html=1;align=center;verticalAlign=middle;resizable=0;points=[];autosize=1;strokeColor=none;fillColor=none;flipV=1;flipH=1;rotation=0;fontSize=10;" parent="1" vertex="1">
          <mxGeometry x="1521" y="2061" width="50" height="30" as="geometry" />
        </mxCell>
        <mxCell id="f_wC157JiwR1pDFYYjTe-488" value="USES" style="text;html=1;align=center;verticalAlign=middle;resizable=0;points=[];autosize=1;strokeColor=none;fillColor=none;flipV=1;flipH=1;rotation=0;fontSize=10;" parent="1" vertex="1">
          <mxGeometry x="1770" y="2061" width="50" height="30" as="geometry" />
        </mxCell>
        <mxCell id="f_wC157JiwR1pDFYYjTe-489" value="USES" style="text;html=1;align=center;verticalAlign=middle;resizable=0;points=[];autosize=1;strokeColor=none;fillColor=none;flipV=1;flipH=1;rotation=0;fontSize=10;" parent="1" vertex="1">
          <mxGeometry x="2050" y="2061" width="50" height="30" as="geometry" />
        </mxCell>
        <mxCell id="1QSR1i9DhKROp5-wo-e_-219" style="edgeStyle=orthogonalEdgeStyle;rounded=0;orthogonalLoop=1;jettySize=auto;html=1;exitX=0.5;exitY=1;exitDx=0;exitDy=0;entryX=0.5;entryY=0;entryDx=0;entryDy=0;endArrow=none;endFill=0;" edge="1" parent="1" source="f_wC157JiwR1pDFYYjTe-497" target="1QSR1i9DhKROp5-wo-e_-52">
          <mxGeometry relative="1" as="geometry">
            <mxPoint x="3695.0526315789475" y="2170" as="targetPoint" />
            <Array as="points">
              <mxPoint x="3695" y="2240" />
              <mxPoint x="3820" y="2240" />
            </Array>
          </mxGeometry>
        </mxCell>
        <mxCell id="1QSR1i9DhKROp5-wo-e_-220" style="edgeStyle=orthogonalEdgeStyle;rounded=0;orthogonalLoop=1;jettySize=auto;html=1;exitX=0.5;exitY=1;exitDx=0;exitDy=0;entryX=0.5;entryY=0;entryDx=0;entryDy=0;endArrow=none;endFill=0;" edge="1" parent="1" source="f_wC157JiwR1pDFYYjTe-497" target="1QSR1i9DhKROp5-wo-e_-48">
          <mxGeometry relative="1" as="geometry">
            <mxPoint x="3990" y="2260" as="targetPoint" />
            <Array as="points">
              <mxPoint x="3695" y="2240" />
              <mxPoint x="4010" y="2240" />
            </Array>
          </mxGeometry>
        </mxCell>
        <mxCell id="f_wC157JiwR1pDFYYjTe-497" value="DONATION" style="swimlane;fontStyle=1;align=center;verticalAlign=top;childLayout=stackLayout;horizontal=1;startSize=42;horizontalStack=0;resizeParent=1;resizeParentMax=0;resizeLast=0;collapsible=1;marginBottom=0;whiteSpace=wrap;html=1;" parent="1" vertex="1">
          <mxGeometry x="3610" y="2000" width="170" height="150" as="geometry" />
        </mxCell>
        <mxCell id="f_wC157JiwR1pDFYYjTe-498" value="+" style="text;strokeColor=none;fillColor=none;align=left;verticalAlign=top;spacingLeft=4;spacingRight=4;overflow=hidden;rotatable=0;points=[[0,0.5],[1,0.5]];portConstraint=eastwest;whiteSpace=wrap;html=1;" parent="f_wC157JiwR1pDFYYjTe-497" vertex="1">
          <mxGeometry y="42" width="170" height="26" as="geometry" />
        </mxCell>
        <mxCell id="f_wC157JiwR1pDFYYjTe-499" value="" style="line;strokeWidth=1;fillColor=none;align=left;verticalAlign=middle;spacingTop=-1;spacingLeft=3;spacingRight=3;rotatable=0;labelPosition=right;points=[];portConstraint=eastwest;strokeColor=inherit;" parent="f_wC157JiwR1pDFYYjTe-497" vertex="1">
          <mxGeometry y="68" width="170" height="8" as="geometry" />
        </mxCell>
        <mxCell id="f_wC157JiwR1pDFYYjTe-500" value="+ performPayment(): boolean&lt;br style=&quot;border-color: var(--border-color);&quot;&gt;+ cancelPayment():boolean" style="text;strokeColor=none;fillColor=none;align=left;verticalAlign=top;spacingLeft=4;spacingRight=4;overflow=hidden;rotatable=0;points=[[0,0.5],[1,0.5]];portConstraint=eastwest;whiteSpace=wrap;html=1;" parent="f_wC157JiwR1pDFYYjTe-497" vertex="1">
          <mxGeometry y="76" width="170" height="74" as="geometry" />
        </mxCell>
        <mxCell id="f_wC157JiwR1pDFYYjTe-505" style="edgeStyle=orthogonalEdgeStyle;rounded=0;orthogonalLoop=1;jettySize=auto;html=1;exitX=0;exitY=0.5;exitDx=0;exitDy=0;entryX=1;entryY=0.25;entryDx=0;entryDy=0;startArrow=diamond;startFill=0;" parent="1" source="f_wC157JiwR1pDFYYjTe-498" target="f_wC157JiwR1pDFYYjTe-331" edge="1">
          <mxGeometry relative="1" as="geometry">
            <mxPoint x="2630" y="1880" as="targetPoint" />
            <Array as="points">
              <mxPoint x="3600" y="2055" />
              <mxPoint x="3600" y="2200" />
              <mxPoint x="2700" y="2200" />
              <mxPoint x="2700" y="1788" />
            </Array>
          </mxGeometry>
        </mxCell>
        <mxCell id="1QSR1i9DhKROp5-wo-e_-150" style="edgeStyle=orthogonalEdgeStyle;rounded=0;orthogonalLoop=1;jettySize=auto;html=1;exitX=0.5;exitY=1;exitDx=0;exitDy=0;endArrow=block;endFill=0;" edge="1" parent="1" source="f_wC157JiwR1pDFYYjTe-506" target="1QSR1i9DhKROp5-wo-e_-145">
          <mxGeometry relative="1" as="geometry">
            <mxPoint x="60" y="2140" as="targetPoint" />
          </mxGeometry>
        </mxCell>
        <mxCell id="f_wC157JiwR1pDFYYjTe-506" value="REQUEST CHEQUE" style="swimlane;fontStyle=1;align=center;verticalAlign=top;childLayout=stackLayout;horizontal=1;startSize=26;horizontalStack=0;resizeParent=1;resizeParentMax=0;resizeLast=0;collapsible=1;marginBottom=0;whiteSpace=wrap;html=1;" parent="1" vertex="1">
          <mxGeometry x="-20" y="1991" width="160" height="100" as="geometry">
            <mxRectangle x="750" y="200" width="80" height="30" as="alternateBounds" />
          </mxGeometry>
        </mxCell>
        <mxCell id="f_wC157JiwR1pDFYYjTe-507" value="+ status: int" style="text;strokeColor=none;fillColor=none;align=left;verticalAlign=top;spacingLeft=4;spacingRight=4;overflow=hidden;rotatable=0;points=[[0,0.5],[1,0.5]];portConstraint=eastwest;whiteSpace=wrap;html=1;" parent="f_wC157JiwR1pDFYYjTe-506" vertex="1">
          <mxGeometry y="26" width="160" height="26" as="geometry" />
        </mxCell>
        <mxCell id="f_wC157JiwR1pDFYYjTe-508" value="" style="line;strokeWidth=1;fillColor=none;align=left;verticalAlign=middle;spacingTop=-1;spacingLeft=3;spacingRight=3;rotatable=0;labelPosition=right;points=[];portConstraint=eastwest;strokeColor=inherit;" parent="f_wC157JiwR1pDFYYjTe-506" vertex="1">
          <mxGeometry y="52" width="160" height="8" as="geometry" />
        </mxCell>
        <mxCell id="f_wC157JiwR1pDFYYjTe-509" value="+ requestService(): boolean&lt;br style=&quot;border-color: var(--border-color);&quot;&gt;+ cancelRequest(): boolean" style="text;strokeColor=none;fillColor=none;align=left;verticalAlign=top;spacingLeft=4;spacingRight=4;overflow=hidden;rotatable=0;points=[[0,0.5],[1,0.5]];portConstraint=eastwest;whiteSpace=wrap;html=1;" parent="f_wC157JiwR1pDFYYjTe-506" vertex="1">
          <mxGeometry y="60" width="160" height="40" as="geometry" />
        </mxCell>
        <mxCell id="f_wC157JiwR1pDFYYjTe-510" style="edgeStyle=orthogonalEdgeStyle;rounded=0;orthogonalLoop=1;jettySize=auto;html=1;exitX=1;exitY=0.5;exitDx=0;exitDy=0;entryX=0;entryY=0.25;entryDx=0;entryDy=0;startArrow=diamond;startFill=0;" parent="1" source="f_wC157JiwR1pDFYYjTe-507" target="f_wC157JiwR1pDFYYjTe-236" edge="1">
          <mxGeometry relative="1" as="geometry">
            <Array as="points">
              <mxPoint x="160" y="2030" />
              <mxPoint x="160" y="2160" />
              <mxPoint x="960" y="2160" />
              <mxPoint x="960" y="1791" />
            </Array>
          </mxGeometry>
        </mxCell>
        <mxCell id="f_wC157JiwR1pDFYYjTe-560" style="edgeStyle=orthogonalEdgeStyle;rounded=0;orthogonalLoop=1;jettySize=auto;html=1;exitX=0.5;exitY=1;exitDx=0;exitDy=0;startArrow=block;startFill=0;endArrow=none;endFill=0;dashed=1;dashPattern=8 8;" parent="1" source="f_wC157JiwR1pDFYYjTe-515" target="f_wC157JiwR1pDFYYjTe-527" edge="1">
          <mxGeometry relative="1" as="geometry">
            <mxPoint x="-2016.9608938547485" y="1259" as="targetPoint" />
            <Array as="points">
              <mxPoint x="-2033" y="1289" />
              <mxPoint x="-2137" y="1289" />
            </Array>
          </mxGeometry>
        </mxCell>
        <mxCell id="f_wC157JiwR1pDFYYjTe-561" style="edgeStyle=orthogonalEdgeStyle;rounded=0;orthogonalLoop=1;jettySize=auto;html=1;exitX=0.5;exitY=1;exitDx=0;exitDy=0;dashed=1;dashPattern=8 8;endArrow=none;endFill=0;startArrow=block;startFill=0;" parent="1" source="f_wC157JiwR1pDFYYjTe-515" target="f_wC157JiwR1pDFYYjTe-523" edge="1">
          <mxGeometry relative="1" as="geometry">
            <mxPoint x="-2003" y="1259" as="targetPoint" />
            <Array as="points">
              <mxPoint x="-2033" y="1289" />
              <mxPoint x="-1917" y="1289" />
            </Array>
          </mxGeometry>
        </mxCell>
        <mxCell id="f_wC157JiwR1pDFYYjTe-515" value="&lt;i style=&quot;font-weight: normal;&quot;&gt;&amp;lt;&amp;lt;interface&amp;gt;&amp;gt;&lt;br&gt;INFORMATION&lt;/i&gt;" style="swimlane;fontStyle=1;align=center;verticalAlign=top;childLayout=stackLayout;horizontal=1;startSize=40;horizontalStack=0;resizeParent=1;resizeParentMax=0;resizeLast=0;collapsible=1;marginBottom=0;whiteSpace=wrap;html=1;" parent="1" vertex="1">
          <mxGeometry x="-2113" y="1149" width="160" height="100" as="geometry" />
        </mxCell>
        <mxCell id="f_wC157JiwR1pDFYYjTe-516" value="+" style="text;strokeColor=none;fillColor=none;align=left;verticalAlign=top;spacingLeft=4;spacingRight=4;overflow=hidden;rotatable=0;points=[[0,0.5],[1,0.5]];portConstraint=eastwest;whiteSpace=wrap;html=1;" parent="f_wC157JiwR1pDFYYjTe-515" vertex="1">
          <mxGeometry y="40" width="160" height="26" as="geometry" />
        </mxCell>
        <mxCell id="f_wC157JiwR1pDFYYjTe-517" value="" style="line;strokeWidth=1;fillColor=none;align=left;verticalAlign=middle;spacingTop=-1;spacingLeft=3;spacingRight=3;rotatable=0;labelPosition=right;points=[];portConstraint=eastwest;strokeColor=inherit;" parent="f_wC157JiwR1pDFYYjTe-515" vertex="1">
          <mxGeometry y="66" width="160" height="8" as="geometry" />
        </mxCell>
        <mxCell id="f_wC157JiwR1pDFYYjTe-518" value="+display(): void" style="text;strokeColor=none;fillColor=none;align=left;verticalAlign=top;spacingLeft=4;spacingRight=4;overflow=hidden;rotatable=0;points=[[0,0.5],[1,0.5]];portConstraint=eastwest;whiteSpace=wrap;html=1;" parent="f_wC157JiwR1pDFYYjTe-515" vertex="1">
          <mxGeometry y="74" width="160" height="26" as="geometry" />
        </mxCell>
        <mxCell id="1QSR1i9DhKROp5-wo-e_-22" style="edgeStyle=orthogonalEdgeStyle;rounded=0;orthogonalLoop=1;jettySize=auto;html=1;exitX=0.5;exitY=1;exitDx=0;exitDy=0;entryX=0.502;entryY=0.021;entryDx=0;entryDy=0;entryPerimeter=0;endArrow=none;endFill=0;startArrow=block;startFill=0;" edge="1" parent="1" source="f_wC157JiwR1pDFYYjTe-519" target="1QSR1i9DhKROp5-wo-e_-18">
          <mxGeometry relative="1" as="geometry">
            <mxPoint x="-1049.0218068535826" y="1809" as="targetPoint" />
          </mxGeometry>
        </mxCell>
        <mxCell id="1QSR1i9DhKROp5-wo-e_-23" style="edgeStyle=orthogonalEdgeStyle;rounded=0;orthogonalLoop=1;jettySize=auto;html=1;exitX=0.5;exitY=1;exitDx=0;exitDy=0;entryX=0.5;entryY=0;entryDx=0;entryDy=0;endArrow=none;endFill=0;startArrow=block;startFill=0;" edge="1" parent="1" source="f_wC157JiwR1pDFYYjTe-519" target="1QSR1i9DhKROp5-wo-e_-14">
          <mxGeometry relative="1" as="geometry">
            <mxPoint x="-1029" y="1809" as="targetPoint" />
            <Array as="points">
              <mxPoint x="-1039" y="1838" />
              <mxPoint x="-905" y="1838" />
            </Array>
          </mxGeometry>
        </mxCell>
        <mxCell id="f_wC157JiwR1pDFYYjTe-519" value="&lt;i style=&quot;font-weight: normal;&quot;&gt;&amp;lt;&amp;lt;ABSTRACT&amp;gt;&amp;gt;&lt;br&gt;REPORTS&lt;/i&gt;" style="swimlane;fontStyle=1;align=center;verticalAlign=top;childLayout=stackLayout;horizontal=1;startSize=40;horizontalStack=0;resizeParent=1;resizeParentMax=0;resizeLast=0;collapsible=1;marginBottom=0;whiteSpace=wrap;html=1;" parent="1" vertex="1">
          <mxGeometry x="-1119" y="1690" width="160" height="128" as="geometry" />
        </mxCell>
        <mxCell id="f_wC157JiwR1pDFYYjTe-520" value="&lt;font style=&quot;font-size: 10px;&quot;&gt;+description: String&lt;br&gt;+time: date&lt;br&gt;+status: int&lt;/font&gt;" style="text;strokeColor=none;fillColor=none;align=left;verticalAlign=top;spacingLeft=4;spacingRight=4;overflow=hidden;rotatable=0;points=[[0,0.5],[1,0.5]];portConstraint=eastwest;whiteSpace=wrap;html=1;" parent="f_wC157JiwR1pDFYYjTe-519" vertex="1">
          <mxGeometry y="40" width="160" height="54" as="geometry" />
        </mxCell>
        <mxCell id="f_wC157JiwR1pDFYYjTe-521" value="" style="line;strokeWidth=1;fillColor=none;align=left;verticalAlign=middle;spacingTop=-1;spacingLeft=3;spacingRight=3;rotatable=0;labelPosition=right;points=[];portConstraint=eastwest;strokeColor=inherit;" parent="f_wC157JiwR1pDFYYjTe-519" vertex="1">
          <mxGeometry y="94" width="160" height="8" as="geometry" />
        </mxCell>
        <mxCell id="f_wC157JiwR1pDFYYjTe-522" value="+report(): boolean" style="text;strokeColor=none;fillColor=none;align=left;verticalAlign=top;spacingLeft=4;spacingRight=4;overflow=hidden;rotatable=0;points=[[0,0.5],[1,0.5]];portConstraint=eastwest;whiteSpace=wrap;html=1;" parent="f_wC157JiwR1pDFYYjTe-519" vertex="1">
          <mxGeometry y="102" width="160" height="26" as="geometry" />
        </mxCell>
        <mxCell id="f_wC157JiwR1pDFYYjTe-562" style="edgeStyle=orthogonalEdgeStyle;rounded=0;orthogonalLoop=1;jettySize=auto;html=1;exitX=0.5;exitY=1;exitDx=0;exitDy=0;entryX=0.5;entryY=0;entryDx=0;entryDy=0;startArrow=block;startFill=0;endArrow=none;endFill=0;dashed=1;dashPattern=8 8;" parent="1" source="f_wC157JiwR1pDFYYjTe-523" target="f_wC157JiwR1pDFYYjTe-547" edge="1">
          <mxGeometry relative="1" as="geometry">
            <mxPoint x="-1914" y="1489" as="targetPoint" />
          </mxGeometry>
        </mxCell>
        <mxCell id="f_wC157JiwR1pDFYYjTe-563" style="edgeStyle=orthogonalEdgeStyle;rounded=0;orthogonalLoop=1;jettySize=auto;html=1;exitX=0.5;exitY=1;exitDx=0;exitDy=0;dashed=1;dashPattern=8 8;endArrow=none;endFill=0;startArrow=block;startFill=0;" parent="1" source="f_wC157JiwR1pDFYYjTe-523" target="f_wC157JiwR1pDFYYjTe-555" edge="1">
          <mxGeometry relative="1" as="geometry">
            <mxPoint x="-1714" y="1519" as="targetPoint" />
          </mxGeometry>
        </mxCell>
        <mxCell id="f_wC157JiwR1pDFYYjTe-564" style="edgeStyle=orthogonalEdgeStyle;rounded=0;orthogonalLoop=1;jettySize=auto;html=1;exitX=0.5;exitY=1;exitDx=0;exitDy=0;entryX=0.5;entryY=0;entryDx=0;entryDy=0;dashed=1;dashPattern=8 8;endArrow=none;endFill=0;startArrow=block;startFill=0;" parent="1" source="f_wC157JiwR1pDFYYjTe-523" target="f_wC157JiwR1pDFYYjTe-551" edge="1">
          <mxGeometry relative="1" as="geometry">
            <mxPoint x="-1944" y="1449" as="targetPoint" />
          </mxGeometry>
        </mxCell>
        <mxCell id="f_wC157JiwR1pDFYYjTe-523" value="&lt;i style=&quot;font-weight: normal;&quot;&gt;&amp;lt;&amp;lt;ABSTARCT&amp;gt;&amp;gt;&lt;br&gt;NOTIFICATIONTYPE&lt;/i&gt;" style="swimlane;fontStyle=1;align=center;verticalAlign=top;childLayout=stackLayout;horizontal=1;startSize=40;horizontalStack=0;resizeParent=1;resizeParentMax=0;resizeLast=0;collapsible=1;marginBottom=0;whiteSpace=wrap;html=1;" parent="1" vertex="1">
          <mxGeometry x="-1953" y="1318" width="160" height="180" as="geometry" />
        </mxCell>
        <mxCell id="f_wC157JiwR1pDFYYjTe-524" value="&lt;font style=&quot;font-size: 10px;&quot;&gt;+ type:int&lt;br&gt;+ content: String&lt;br&gt;+ time: date&lt;br&gt;+ importance: int&lt;br&gt;+reminder: boolean&lt;br&gt;+status: int&lt;br&gt;&lt;/font&gt;" style="text;strokeColor=none;fillColor=none;align=left;verticalAlign=top;spacingLeft=4;spacingRight=4;overflow=hidden;rotatable=0;points=[[0,0.5],[1,0.5]];portConstraint=eastwest;whiteSpace=wrap;html=1;" parent="f_wC157JiwR1pDFYYjTe-523" vertex="1">
          <mxGeometry y="40" width="160" height="90" as="geometry" />
        </mxCell>
        <mxCell id="f_wC157JiwR1pDFYYjTe-525" value="" style="line;strokeWidth=1;fillColor=none;align=left;verticalAlign=middle;spacingTop=-1;spacingLeft=3;spacingRight=3;rotatable=0;labelPosition=right;points=[];portConstraint=eastwest;strokeColor=inherit;" parent="f_wC157JiwR1pDFYYjTe-523" vertex="1">
          <mxGeometry y="130" width="160" height="8" as="geometry" />
        </mxCell>
        <mxCell id="f_wC157JiwR1pDFYYjTe-526" value="+setReminder(data for reminder): void" style="text;strokeColor=none;fillColor=none;align=left;verticalAlign=top;spacingLeft=4;spacingRight=4;overflow=hidden;rotatable=0;points=[[0,0.5],[1,0.5]];portConstraint=eastwest;whiteSpace=wrap;html=1;" parent="f_wC157JiwR1pDFYYjTe-523" vertex="1">
          <mxGeometry y="138" width="160" height="42" as="geometry" />
        </mxCell>
        <mxCell id="f_wC157JiwR1pDFYYjTe-527" value="USER INFORMATION" style="swimlane;fontStyle=1;align=center;verticalAlign=top;childLayout=stackLayout;horizontal=1;startSize=40;horizontalStack=0;resizeParent=1;resizeParentMax=0;resizeLast=0;collapsible=1;marginBottom=0;whiteSpace=wrap;html=1;" parent="1" vertex="1">
          <mxGeometry x="-2203" y="1316" width="220" height="150" as="geometry" />
        </mxCell>
        <mxCell id="f_wC157JiwR1pDFYYjTe-528" value="+" style="text;strokeColor=none;fillColor=none;align=left;verticalAlign=top;spacingLeft=4;spacingRight=4;overflow=hidden;rotatable=0;points=[[0,0.5],[1,0.5]];portConstraint=eastwest;whiteSpace=wrap;html=1;" parent="f_wC157JiwR1pDFYYjTe-527" vertex="1">
          <mxGeometry y="40" width="220" height="26" as="geometry" />
        </mxCell>
        <mxCell id="f_wC157JiwR1pDFYYjTe-529" value="" style="line;strokeWidth=1;fillColor=none;align=left;verticalAlign=middle;spacingTop=-1;spacingLeft=3;spacingRight=3;rotatable=0;labelPosition=right;points=[];portConstraint=eastwest;strokeColor=inherit;" parent="f_wC157JiwR1pDFYYjTe-527" vertex="1">
          <mxGeometry y="66" width="220" height="8" as="geometry" />
        </mxCell>
        <mxCell id="f_wC157JiwR1pDFYYjTe-530" value="+ USER_INFORMATION()&lt;br&gt;+ display(Client c): String" style="text;strokeColor=none;fillColor=none;align=left;verticalAlign=top;spacingLeft=4;spacingRight=4;overflow=hidden;rotatable=0;points=[[0,0.5],[1,0.5]];portConstraint=eastwest;whiteSpace=wrap;html=1;" parent="f_wC157JiwR1pDFYYjTe-527" vertex="1">
          <mxGeometry y="74" width="220" height="76" as="geometry" />
        </mxCell>
        <mxCell id="1QSR1i9DhKROp5-wo-e_-39" style="edgeStyle=orthogonalEdgeStyle;rounded=0;orthogonalLoop=1;jettySize=auto;html=1;exitX=0.5;exitY=1;exitDx=0;exitDy=0;entryX=1;entryY=0.5;entryDx=0;entryDy=0;dashed=1;dashPattern=8 8;endArrow=none;endFill=0;startArrow=block;startFill=0;" edge="1" parent="1" source="f_wC157JiwR1pDFYYjTe-535" target="1QSR1i9DhKROp5-wo-e_-15">
          <mxGeometry relative="1" as="geometry">
            <mxPoint x="-30" y="1439.9999999999998" as="targetPoint" />
            <Array as="points">
              <mxPoint x="-280" y="1888" />
              <mxPoint x="-781" y="1888" />
            </Array>
          </mxGeometry>
        </mxCell>
        <mxCell id="f_wC157JiwR1pDFYYjTe-535" value="&lt;i style=&quot;border-color: var(--border-color); font-weight: normal;&quot;&gt;&amp;lt;&amp;lt;interface&amp;gt;&amp;gt;&lt;br style=&quot;border-color: var(--border-color);&quot;&gt;&lt;/i&gt;&lt;span style=&quot;font-weight: 400;&quot;&gt;&lt;i&gt;SUBJECT&lt;/i&gt;&lt;/span&gt;" style="swimlane;fontStyle=1;align=center;verticalAlign=top;childLayout=stackLayout;horizontal=1;startSize=49;horizontalStack=0;resizeParent=1;resizeParentMax=0;resizeLast=0;collapsible=1;marginBottom=0;whiteSpace=wrap;html=1;" parent="1" vertex="1">
          <mxGeometry x="-390" y="1190" width="220" height="160" as="geometry" />
        </mxCell>
        <mxCell id="f_wC157JiwR1pDFYYjTe-536" value="+" style="text;strokeColor=none;fillColor=none;align=left;verticalAlign=top;spacingLeft=4;spacingRight=4;overflow=hidden;rotatable=0;points=[[0,0.5],[1,0.5]];portConstraint=eastwest;whiteSpace=wrap;html=1;" parent="f_wC157JiwR1pDFYYjTe-535" vertex="1">
          <mxGeometry y="49" width="220" height="30" as="geometry" />
        </mxCell>
        <mxCell id="f_wC157JiwR1pDFYYjTe-537" value="" style="line;strokeWidth=1;fillColor=none;align=left;verticalAlign=middle;spacingTop=-1;spacingLeft=3;spacingRight=3;rotatable=0;labelPosition=right;points=[];portConstraint=eastwest;strokeColor=inherit;" parent="f_wC157JiwR1pDFYYjTe-535" vertex="1">
          <mxGeometry y="79" width="220" height="8" as="geometry" />
        </mxCell>
        <mxCell id="f_wC157JiwR1pDFYYjTe-538" value="+ notify(): void&lt;br&gt;+ subscribe(): boolean&lt;br style=&quot;border-color: var(--border-color);&quot;&gt;+ unsubscribe(): boolean" style="text;strokeColor=none;fillColor=none;align=left;verticalAlign=top;spacingLeft=4;spacingRight=4;overflow=hidden;rotatable=0;points=[[0,0.5],[1,0.5]];portConstraint=eastwest;whiteSpace=wrap;html=1;" parent="f_wC157JiwR1pDFYYjTe-535" vertex="1">
          <mxGeometry y="87" width="220" height="73" as="geometry" />
        </mxCell>
        <mxCell id="f_wC157JiwR1pDFYYjTe-586" style="edgeStyle=orthogonalEdgeStyle;rounded=0;orthogonalLoop=1;jettySize=auto;html=1;entryX=0.462;entryY=1.022;entryDx=0;entryDy=0;entryPerimeter=0;dashed=1;dashPattern=8 8;endArrow=none;endFill=0;startArrow=block;startFill=0;" parent="1" source="f_wC157JiwR1pDFYYjTe-543" target="f_wC157JiwR1pDFYYjTe-585" edge="1">
          <mxGeometry relative="1" as="geometry">
            <Array as="points">
              <mxPoint x="-540" y="1170" />
              <mxPoint x="-1370" y="1170" />
              <mxPoint x="-1370" y="1139" />
            </Array>
          </mxGeometry>
        </mxCell>
        <mxCell id="f_wC157JiwR1pDFYYjTe-543" value="&lt;i style=&quot;border-color: var(--border-color); font-weight: normal;&quot;&gt;&amp;lt;&amp;lt;interface&amp;gt;&amp;gt;&lt;br style=&quot;border-color: var(--border-color);&quot;&gt;&lt;/i&gt;&lt;span style=&quot;font-weight: 400;&quot;&gt;&lt;i&gt;SUBSCRIBER/OBSERVER&lt;/i&gt;&lt;/span&gt;" style="swimlane;fontStyle=1;align=center;verticalAlign=top;childLayout=stackLayout;horizontal=1;startSize=50;horizontalStack=0;resizeParent=1;resizeParentMax=0;resizeLast=0;collapsible=1;marginBottom=0;whiteSpace=wrap;html=1;" parent="1" vertex="1">
          <mxGeometry x="-620" y="1204.5" width="160" height="98" as="geometry" />
        </mxCell>
        <mxCell id="f_wC157JiwR1pDFYYjTe-545" value="" style="line;strokeWidth=1;fillColor=none;align=left;verticalAlign=middle;spacingTop=-1;spacingLeft=3;spacingRight=3;rotatable=0;labelPosition=right;points=[];portConstraint=eastwest;strokeColor=inherit;" parent="f_wC157JiwR1pDFYYjTe-543" vertex="1">
          <mxGeometry y="50" width="160" height="8" as="geometry" />
        </mxCell>
        <mxCell id="f_wC157JiwR1pDFYYjTe-546" value="+ update(): void" style="text;strokeColor=none;fillColor=none;align=left;verticalAlign=top;spacingLeft=4;spacingRight=4;overflow=hidden;rotatable=0;points=[[0,0.5],[1,0.5]];portConstraint=eastwest;whiteSpace=wrap;html=1;" parent="f_wC157JiwR1pDFYYjTe-543" vertex="1">
          <mxGeometry y="58" width="160" height="40" as="geometry" />
        </mxCell>
        <mxCell id="f_wC157JiwR1pDFYYjTe-547" value="TEXTMSG" style="swimlane;fontStyle=1;align=center;verticalAlign=top;childLayout=stackLayout;horizontal=1;startSize=40;horizontalStack=0;resizeParent=1;resizeParentMax=0;resizeLast=0;collapsible=1;marginBottom=0;whiteSpace=wrap;html=1;" parent="1" vertex="1">
          <mxGeometry x="-2043" y="1539" width="220" height="164" as="geometry" />
        </mxCell>
        <mxCell id="f_wC157JiwR1pDFYYjTe-548" value="+ reminder: boolean&lt;br style=&quot;border-color: var(--border-color);&quot;&gt;" style="text;strokeColor=none;fillColor=none;align=left;verticalAlign=top;spacingLeft=4;spacingRight=4;overflow=hidden;rotatable=0;points=[[0,0.5],[1,0.5]];portConstraint=eastwest;whiteSpace=wrap;html=1;" parent="f_wC157JiwR1pDFYYjTe-547" vertex="1">
          <mxGeometry y="40" width="220" height="50" as="geometry" />
        </mxCell>
        <mxCell id="f_wC157JiwR1pDFYYjTe-549" value="" style="line;strokeWidth=1;fillColor=none;align=left;verticalAlign=middle;spacingTop=-1;spacingLeft=3;spacingRight=3;rotatable=0;labelPosition=right;points=[];portConstraint=eastwest;strokeColor=inherit;" parent="f_wC157JiwR1pDFYYjTe-547" vertex="1">
          <mxGeometry y="90" width="220" height="8" as="geometry" />
        </mxCell>
        <mxCell id="f_wC157JiwR1pDFYYjTe-550" value="+ display(): String&lt;br&gt;+ setReminder(data for reminder): void&lt;br&gt;+ update(): void" style="text;strokeColor=none;fillColor=none;align=left;verticalAlign=top;spacingLeft=4;spacingRight=4;overflow=hidden;rotatable=0;points=[[0,0.5],[1,0.5]];portConstraint=eastwest;whiteSpace=wrap;html=1;" parent="f_wC157JiwR1pDFYYjTe-547" vertex="1">
          <mxGeometry y="98" width="220" height="66" as="geometry" />
        </mxCell>
        <mxCell id="f_wC157JiwR1pDFYYjTe-551" value="EMAILMSG" style="swimlane;fontStyle=1;align=center;verticalAlign=top;childLayout=stackLayout;horizontal=1;startSize=40;horizontalStack=0;resizeParent=1;resizeParentMax=0;resizeLast=0;collapsible=1;marginBottom=0;whiteSpace=wrap;html=1;" parent="1" vertex="1">
          <mxGeometry x="-2290" y="1539" width="220" height="164" as="geometry" />
        </mxCell>
        <mxCell id="f_wC157JiwR1pDFYYjTe-552" value="+ reminder: boolean&lt;br&gt;" style="text;strokeColor=none;fillColor=none;align=left;verticalAlign=top;spacingLeft=4;spacingRight=4;overflow=hidden;rotatable=0;points=[[0,0.5],[1,0.5]];portConstraint=eastwest;whiteSpace=wrap;html=1;" parent="f_wC157JiwR1pDFYYjTe-551" vertex="1">
          <mxGeometry y="40" width="220" height="50" as="geometry" />
        </mxCell>
        <mxCell id="f_wC157JiwR1pDFYYjTe-553" value="" style="line;strokeWidth=1;fillColor=none;align=left;verticalAlign=middle;spacingTop=-1;spacingLeft=3;spacingRight=3;rotatable=0;labelPosition=right;points=[];portConstraint=eastwest;strokeColor=inherit;" parent="f_wC157JiwR1pDFYYjTe-551" vertex="1">
          <mxGeometry y="90" width="220" height="8" as="geometry" />
        </mxCell>
        <mxCell id="f_wC157JiwR1pDFYYjTe-554" value="+ display(): String&lt;br&gt;+ setReminder(data for reminder): void&lt;br&gt;+ update(): void" style="text;strokeColor=none;fillColor=none;align=left;verticalAlign=top;spacingLeft=4;spacingRight=4;overflow=hidden;rotatable=0;points=[[0,0.5],[1,0.5]];portConstraint=eastwest;whiteSpace=wrap;html=1;" parent="f_wC157JiwR1pDFYYjTe-551" vertex="1">
          <mxGeometry y="98" width="220" height="66" as="geometry" />
        </mxCell>
        <mxCell id="f_wC157JiwR1pDFYYjTe-555" value="INAPPMSG" style="swimlane;fontStyle=1;align=center;verticalAlign=top;childLayout=stackLayout;horizontal=1;startSize=40;horizontalStack=0;resizeParent=1;resizeParentMax=0;resizeLast=0;collapsible=1;marginBottom=0;whiteSpace=wrap;html=1;" parent="1" vertex="1">
          <mxGeometry x="-1791" y="1539" width="220" height="164" as="geometry" />
        </mxCell>
        <mxCell id="f_wC157JiwR1pDFYYjTe-556" value="+ reminder: boolean&lt;br style=&quot;border-color: var(--border-color);&quot;&gt;" style="text;strokeColor=none;fillColor=none;align=left;verticalAlign=top;spacingLeft=4;spacingRight=4;overflow=hidden;rotatable=0;points=[[0,0.5],[1,0.5]];portConstraint=eastwest;whiteSpace=wrap;html=1;" parent="f_wC157JiwR1pDFYYjTe-555" vertex="1">
          <mxGeometry y="40" width="220" height="50" as="geometry" />
        </mxCell>
        <mxCell id="f_wC157JiwR1pDFYYjTe-557" value="" style="line;strokeWidth=1;fillColor=none;align=left;verticalAlign=middle;spacingTop=-1;spacingLeft=3;spacingRight=3;rotatable=0;labelPosition=right;points=[];portConstraint=eastwest;strokeColor=inherit;" parent="f_wC157JiwR1pDFYYjTe-555" vertex="1">
          <mxGeometry y="90" width="220" height="8" as="geometry" />
        </mxCell>
        <mxCell id="f_wC157JiwR1pDFYYjTe-558" value="+ display(): String&lt;br&gt;+ setReminder(data for reminder): void&lt;br&gt;+ update(): void" style="text;strokeColor=none;fillColor=none;align=left;verticalAlign=top;spacingLeft=4;spacingRight=4;overflow=hidden;rotatable=0;points=[[0,0.5],[1,0.5]];portConstraint=eastwest;whiteSpace=wrap;html=1;" parent="f_wC157JiwR1pDFYYjTe-555" vertex="1">
          <mxGeometry y="98" width="220" height="66" as="geometry" />
        </mxCell>
        <mxCell id="f_wC157JiwR1pDFYYjTe-579" style="edgeStyle=orthogonalEdgeStyle;rounded=0;orthogonalLoop=1;jettySize=auto;html=1;exitX=0;exitY=0.25;exitDx=0;exitDy=0;entryX=1;entryY=0.25;entryDx=0;entryDy=0;startArrow=diamond;startFill=0;" parent="1" source="f_wC157JiwR1pDFYYjTe-535" target="f_wC157JiwR1pDFYYjTe-543" edge="1">
          <mxGeometry relative="1" as="geometry">
            <mxPoint x="-930" y="1271.5" as="targetPoint" />
          </mxGeometry>
        </mxCell>
        <mxCell id="f_wC157JiwR1pDFYYjTe-580" style="edgeStyle=orthogonalEdgeStyle;rounded=0;orthogonalLoop=1;jettySize=auto;html=1;exitX=0;exitY=0.5;exitDx=0;exitDy=0;entryX=0.5;entryY=0;entryDx=0;entryDy=0;endArrow=classic;endFill=1;dashed=1;dashPattern=8 8;" parent="1" source="f_wC157JiwR1pDFYYjTe-22" target="f_wC157JiwR1pDFYYjTe-582" edge="1">
          <mxGeometry relative="1" as="geometry">
            <mxPoint x="-1250" y="930" as="targetPoint" />
            <Array as="points">
              <mxPoint x="736" y="393" />
              <mxPoint x="300" y="393" />
              <mxPoint x="300" y="880" />
              <mxPoint x="-1360" y="880" />
            </Array>
          </mxGeometry>
        </mxCell>
        <mxCell id="f_wC157JiwR1pDFYYjTe-582" value="NOTIFICATIONS FACADE" style="swimlane;fontStyle=1;align=center;verticalAlign=top;childLayout=stackLayout;horizontal=1;startSize=40;horizontalStack=0;resizeParent=1;resizeParentMax=0;resizeLast=0;collapsible=1;marginBottom=0;whiteSpace=wrap;html=1;" parent="1" vertex="1">
          <mxGeometry x="-1470" y="990" width="220" height="148" as="geometry" />
        </mxCell>
        <mxCell id="f_wC157JiwR1pDFYYjTe-583" value="+USER: user&lt;br&gt;+NotificationType: notifciationType" style="text;strokeColor=none;fillColor=none;align=left;verticalAlign=top;spacingLeft=4;spacingRight=4;overflow=hidden;rotatable=0;points=[[0,0.5],[1,0.5]];portConstraint=eastwest;whiteSpace=wrap;html=1;" parent="f_wC157JiwR1pDFYYjTe-582" vertex="1">
          <mxGeometry y="40" width="220" height="60" as="geometry" />
        </mxCell>
        <mxCell id="f_wC157JiwR1pDFYYjTe-584" value="" style="line;strokeWidth=1;fillColor=none;align=left;verticalAlign=middle;spacingTop=-1;spacingLeft=3;spacingRight=3;rotatable=0;labelPosition=right;points=[];portConstraint=eastwest;strokeColor=inherit;" parent="f_wC157JiwR1pDFYYjTe-582" vertex="1">
          <mxGeometry y="100" width="220" height="8" as="geometry" />
        </mxCell>
        <mxCell id="f_wC157JiwR1pDFYYjTe-585" value="+setNotification(User,Notification,Subject)&lt;br&gt;+update(): void" style="text;strokeColor=none;fillColor=none;align=left;verticalAlign=top;spacingLeft=4;spacingRight=4;overflow=hidden;rotatable=0;points=[[0,0.5],[1,0.5]];portConstraint=eastwest;whiteSpace=wrap;html=1;" parent="f_wC157JiwR1pDFYYjTe-582" vertex="1">
          <mxGeometry y="108" width="220" height="40" as="geometry" />
        </mxCell>
        <mxCell id="f_wC157JiwR1pDFYYjTe-591" style="edgeStyle=orthogonalEdgeStyle;rounded=0;orthogonalLoop=1;jettySize=auto;html=1;exitX=0;exitY=0.5;exitDx=0;exitDy=0;endArrow=classic;endFill=1;dashed=1;dashPattern=8 8;entryX=0;entryY=0;entryDx=0;entryDy=0;" parent="1" source="f_wC157JiwR1pDFYYjTe-22" target="f_wC157JiwR1pDFYYjTe-527" edge="1">
          <mxGeometry relative="1" as="geometry">
            <Array as="points">
              <mxPoint x="736" y="393" />
              <mxPoint x="300" y="393" />
              <mxPoint x="300" y="880" />
              <mxPoint x="-2210" y="880" />
              <mxPoint x="-2210" y="1316" />
            </Array>
            <mxPoint x="-2200" y="1250" as="targetPoint" />
          </mxGeometry>
        </mxCell>
        <mxCell id="1QSR1i9DhKROp5-wo-e_-155" style="edgeStyle=orthogonalEdgeStyle;rounded=0;orthogonalLoop=1;jettySize=auto;html=1;exitX=0.5;exitY=1;exitDx=0;exitDy=0;entryX=0.5;entryY=0;entryDx=0;entryDy=0;endArrow=block;endFill=0;" edge="1" parent="1" source="f_wC157JiwR1pDFYYjTe-593" target="1QSR1i9DhKROp5-wo-e_-145">
          <mxGeometry relative="1" as="geometry">
            <mxPoint x="57.391304347826086" y="2200" as="targetPoint" />
            <Array as="points">
              <mxPoint x="840" y="2160" />
              <mxPoint x="60" y="2160" />
            </Array>
          </mxGeometry>
        </mxCell>
        <mxCell id="f_wC157JiwR1pDFYYjTe-593" value="NEW BANK ACCOUNT REQUEST" style="swimlane;fontStyle=1;align=center;verticalAlign=top;childLayout=stackLayout;horizontal=1;startSize=39;horizontalStack=0;resizeParent=1;resizeParentMax=0;resizeLast=0;collapsible=1;marginBottom=0;whiteSpace=wrap;html=1;" parent="1" vertex="1">
          <mxGeometry x="760" y="1991" width="160" height="113" as="geometry">
            <mxRectangle x="750" y="200" width="80" height="30" as="alternateBounds" />
          </mxGeometry>
        </mxCell>
        <mxCell id="f_wC157JiwR1pDFYYjTe-594" value="+status: int" style="text;strokeColor=none;fillColor=none;align=left;verticalAlign=top;spacingLeft=4;spacingRight=4;overflow=hidden;rotatable=0;points=[[0,0.5],[1,0.5]];portConstraint=eastwest;whiteSpace=wrap;html=1;" parent="f_wC157JiwR1pDFYYjTe-593" vertex="1">
          <mxGeometry y="39" width="160" height="26" as="geometry" />
        </mxCell>
        <mxCell id="f_wC157JiwR1pDFYYjTe-595" value="" style="line;strokeWidth=1;fillColor=none;align=left;verticalAlign=middle;spacingTop=-1;spacingLeft=3;spacingRight=3;rotatable=0;labelPosition=right;points=[];portConstraint=eastwest;strokeColor=inherit;" parent="f_wC157JiwR1pDFYYjTe-593" vertex="1">
          <mxGeometry y="65" width="160" height="8" as="geometry" />
        </mxCell>
        <mxCell id="f_wC157JiwR1pDFYYjTe-596" value="+&amp;nbsp;requestService(): boolean&lt;br&gt;+ cancelRequest(): boolean" style="text;strokeColor=none;fillColor=none;align=left;verticalAlign=top;spacingLeft=4;spacingRight=4;overflow=hidden;rotatable=0;points=[[0,0.5],[1,0.5]];portConstraint=eastwest;whiteSpace=wrap;html=1;" parent="f_wC157JiwR1pDFYYjTe-593" vertex="1">
          <mxGeometry y="73" width="160" height="40" as="geometry" />
        </mxCell>
        <mxCell id="1QSR1i9DhKROp5-wo-e_-1" style="edgeStyle=orthogonalEdgeStyle;rounded=0;orthogonalLoop=1;jettySize=auto;html=1;exitX=0;exitY=0.5;exitDx=0;exitDy=0;entryX=1.006;entryY=0.071;entryDx=0;entryDy=0;entryPerimeter=0;dashed=1;dashPattern=8 8;" edge="1" parent="1" source="f_wC157JiwR1pDFYYjTe-162" target="f_wC157JiwR1pDFYYjTe-116">
          <mxGeometry relative="1" as="geometry">
            <Array as="points">
              <mxPoint x="1760" y="155" />
              <mxPoint x="1760" y="726" />
            </Array>
          </mxGeometry>
        </mxCell>
        <mxCell id="1QSR1i9DhKROp5-wo-e_-7" value="has" style="text;html=1;align=center;verticalAlign=middle;resizable=0;points=[];autosize=1;strokeColor=none;fillColor=none;" vertex="1" parent="1">
          <mxGeometry x="1911" y="860" width="40" height="30" as="geometry" />
        </mxCell>
        <mxCell id="1QSR1i9DhKROp5-wo-e_-14" value="TECHNICAL_ISSUES" style="swimlane;fontStyle=1;align=center;verticalAlign=top;childLayout=stackLayout;horizontal=1;startSize=26;horizontalStack=0;resizeParent=1;resizeParentMax=0;resizeLast=0;collapsible=1;marginBottom=0;whiteSpace=wrap;html=1;" vertex="1" parent="1">
          <mxGeometry x="-1030" y="1849" width="249" height="150" as="geometry" />
        </mxCell>
        <mxCell id="1QSR1i9DhKROp5-wo-e_-15" value="&lt;font style=&quot;font-size: 10px;&quot;&gt;+ static allIssues:ArrayList&amp;lt;TechnicalIssues&amp;gt;&lt;br&gt;+ severity: int&lt;br&gt;+ component_affected: String&lt;br&gt;+ error_message_associated: String&lt;/font&gt;" style="text;strokeColor=none;fillColor=none;align=left;verticalAlign=top;spacingLeft=4;spacingRight=4;overflow=hidden;rotatable=0;points=[[0,0.5],[1,0.5]];portConstraint=eastwest;whiteSpace=wrap;html=1;" vertex="1" parent="1QSR1i9DhKROp5-wo-e_-14">
          <mxGeometry y="26" width="249" height="64" as="geometry" />
        </mxCell>
        <mxCell id="1QSR1i9DhKROp5-wo-e_-16" value="" style="line;strokeWidth=1;fillColor=none;align=left;verticalAlign=middle;spacingTop=-1;spacingLeft=3;spacingRight=3;rotatable=0;labelPosition=right;points=[];portConstraint=eastwest;strokeColor=inherit;" vertex="1" parent="1QSR1i9DhKROp5-wo-e_-14">
          <mxGeometry y="90" width="249" height="8" as="geometry" />
        </mxCell>
        <mxCell id="1QSR1i9DhKROp5-wo-e_-17" value="+ resolveIssue(someIssue String):boolean&lt;br&gt;+update():void" style="text;strokeColor=none;fillColor=none;align=left;verticalAlign=top;spacingLeft=4;spacingRight=4;overflow=hidden;rotatable=0;points=[[0,0.5],[1,0.5]];portConstraint=eastwest;whiteSpace=wrap;html=1;" vertex="1" parent="1QSR1i9DhKROp5-wo-e_-14">
          <mxGeometry y="98" width="249" height="52" as="geometry" />
        </mxCell>
        <mxCell id="1QSR1i9DhKROp5-wo-e_-18" value="THEFT_MANAGEMENT" style="swimlane;fontStyle=1;align=center;verticalAlign=top;childLayout=stackLayout;horizontal=1;startSize=26;horizontalStack=0;resizeParent=1;resizeParentMax=0;resizeLast=0;collapsible=1;marginBottom=0;whiteSpace=wrap;html=1;" vertex="1" parent="1">
          <mxGeometry x="-1219" y="1849" width="160" height="150" as="geometry" />
        </mxCell>
        <mxCell id="1QSR1i9DhKROp5-wo-e_-19" value="&lt;font style=&quot;font-size: 10px;&quot;&gt;+location_of_theft: String&lt;br&gt;+type: int&lt;/font&gt;" style="text;strokeColor=none;fillColor=none;align=left;verticalAlign=top;spacingLeft=4;spacingRight=4;overflow=hidden;rotatable=0;points=[[0,0.5],[1,0.5]];portConstraint=eastwest;whiteSpace=wrap;html=1;" vertex="1" parent="1QSR1i9DhKROp5-wo-e_-18">
          <mxGeometry y="26" width="160" height="44" as="geometry" />
        </mxCell>
        <mxCell id="1QSR1i9DhKROp5-wo-e_-20" value="" style="line;strokeWidth=1;fillColor=none;align=left;verticalAlign=middle;spacingTop=-1;spacingLeft=3;spacingRight=3;rotatable=0;labelPosition=right;points=[];portConstraint=eastwest;strokeColor=inherit;" vertex="1" parent="1QSR1i9DhKROp5-wo-e_-18">
          <mxGeometry y="70" width="160" height="8" as="geometry" />
        </mxCell>
        <mxCell id="1QSR1i9DhKROp5-wo-e_-21" value="+resolveTheft(): boolean" style="text;strokeColor=none;fillColor=none;align=left;verticalAlign=top;spacingLeft=4;spacingRight=4;overflow=hidden;rotatable=0;points=[[0,0.5],[1,0.5]];portConstraint=eastwest;whiteSpace=wrap;html=1;" vertex="1" parent="1QSR1i9DhKROp5-wo-e_-18">
          <mxGeometry y="78" width="160" height="72" as="geometry" />
        </mxCell>
        <mxCell id="1QSR1i9DhKROp5-wo-e_-24" style="edgeStyle=orthogonalEdgeStyle;rounded=0;orthogonalLoop=1;jettySize=auto;html=1;exitX=0;exitY=0.5;exitDx=0;exitDy=0;entryX=0.75;entryY=0;entryDx=0;entryDy=0;dashed=1;dashPattern=8 8;" edge="1" parent="1" source="f_wC157JiwR1pDFYYjTe-22" target="1QSR1i9DhKROp5-wo-e_-14">
          <mxGeometry relative="1" as="geometry">
            <mxPoint x="-880" y="1420" as="targetPoint" />
            <Array as="points">
              <mxPoint x="736" y="393" />
              <mxPoint x="300" y="393" />
              <mxPoint x="300" y="880" />
              <mxPoint x="-843" y="880" />
            </Array>
          </mxGeometry>
        </mxCell>
        <mxCell id="1QSR1i9DhKROp5-wo-e_-25" value="report" style="text;html=1;align=center;verticalAlign=middle;resizable=0;points=[];autosize=1;strokeColor=none;fillColor=none;" vertex="1" parent="1">
          <mxGeometry x="-840" y="898" width="50" height="30" as="geometry" />
        </mxCell>
        <mxCell id="1QSR1i9DhKROp5-wo-e_-26" value="set/define" style="text;html=1;align=center;verticalAlign=middle;resizable=0;points=[];autosize=1;strokeColor=none;fillColor=none;" vertex="1" parent="1">
          <mxGeometry x="-1360" y="898" width="80" height="30" as="geometry" />
        </mxCell>
        <mxCell id="1QSR1i9DhKROp5-wo-e_-27" value="view" style="text;html=1;align=center;verticalAlign=middle;resizable=0;points=[];autosize=1;strokeColor=none;fillColor=none;" vertex="1" parent="1">
          <mxGeometry x="-2210" y="890" width="50" height="30" as="geometry" />
        </mxCell>
        <mxCell id="1QSR1i9DhKROp5-wo-e_-169" style="edgeStyle=orthogonalEdgeStyle;rounded=0;orthogonalLoop=1;jettySize=auto;html=1;exitX=0;exitY=0.25;exitDx=0;exitDy=0;entryX=1;entryY=0.5;entryDx=0;entryDy=0;endArrow=block;endFill=0;" edge="1" parent="1" source="1QSR1i9DhKROp5-wo-e_-35" target="f_wC157JiwR1pDFYYjTe-536">
          <mxGeometry relative="1" as="geometry">
            <mxPoint x="-130" y="1300" as="targetPoint" />
            <Array as="points">
              <mxPoint x="120" y="1822" />
              <mxPoint x="120" y="1254" />
            </Array>
          </mxGeometry>
        </mxCell>
        <mxCell id="1QSR1i9DhKROp5-wo-e_-171" style="edgeStyle=orthogonalEdgeStyle;rounded=0;orthogonalLoop=1;jettySize=auto;html=1;exitX=0.5;exitY=1;exitDx=0;exitDy=0;entryX=0.5;entryY=0;entryDx=0;entryDy=0;endArrow=none;endFill=0;dashed=1;dashPattern=8 8;startArrow=block;startFill=0;" edge="1" parent="1" source="1QSR1i9DhKROp5-wo-e_-35" target="f_wC157JiwR1pDFYYjTe-202">
          <mxGeometry relative="1" as="geometry">
            <mxPoint x="440" y="1930" as="targetPoint" />
          </mxGeometry>
        </mxCell>
        <mxCell id="1QSR1i9DhKROp5-wo-e_-173" style="edgeStyle=orthogonalEdgeStyle;rounded=0;orthogonalLoop=1;jettySize=auto;html=1;exitX=0.5;exitY=1;exitDx=0;exitDy=0;startArrow=block;startFill=0;endArrow=none;endFill=0;dashed=1;dashPattern=8 8;" edge="1" parent="1" source="1QSR1i9DhKROp5-wo-e_-35" target="f_wC157JiwR1pDFYYjTe-220">
          <mxGeometry relative="1" as="geometry">
            <mxPoint x="480" y="1930" as="targetPoint" />
          </mxGeometry>
        </mxCell>
        <mxCell id="1QSR1i9DhKROp5-wo-e_-174" style="edgeStyle=orthogonalEdgeStyle;rounded=0;orthogonalLoop=1;jettySize=auto;html=1;exitX=0.5;exitY=1;exitDx=0;exitDy=0;startArrow=block;startFill=0;endArrow=none;endFill=0;dashed=1;dashPattern=8 8;" edge="1" parent="1" source="1QSR1i9DhKROp5-wo-e_-35" target="f_wC157JiwR1pDFYYjTe-197">
          <mxGeometry relative="1" as="geometry">
            <mxPoint x="400" y="1930" as="targetPoint" />
          </mxGeometry>
        </mxCell>
        <mxCell id="1QSR1i9DhKROp5-wo-e_-175" style="edgeStyle=orthogonalEdgeStyle;rounded=0;orthogonalLoop=1;jettySize=auto;html=1;exitX=0.5;exitY=1;exitDx=0;exitDy=0;entryX=0.484;entryY=0.004;entryDx=0;entryDy=0;entryPerimeter=0;endArrow=none;endFill=0;startArrow=block;startFill=0;dashed=1;dashPattern=8 8;" edge="1" parent="1" source="1QSR1i9DhKROp5-wo-e_-35" target="f_wC157JiwR1pDFYYjTe-506">
          <mxGeometry relative="1" as="geometry">
            <mxPoint x="290" y="1960" as="targetPoint" />
          </mxGeometry>
        </mxCell>
        <mxCell id="1QSR1i9DhKROp5-wo-e_-176" style="edgeStyle=orthogonalEdgeStyle;rounded=0;orthogonalLoop=1;jettySize=auto;html=1;exitX=0.5;exitY=1;exitDx=0;exitDy=0;endArrow=none;endFill=0;startArrow=block;startFill=0;dashed=1;dashPattern=8 8;" edge="1" parent="1" source="1QSR1i9DhKROp5-wo-e_-35" target="f_wC157JiwR1pDFYYjTe-593">
          <mxGeometry relative="1" as="geometry">
            <mxPoint x="770" y="1950" as="targetPoint" />
          </mxGeometry>
        </mxCell>
        <mxCell id="1QSR1i9DhKROp5-wo-e_-35" value="&lt;i style=&quot;border-color: var(--border-color); font-weight: 400;&quot;&gt;&amp;lt;&amp;lt;interface&amp;gt;&amp;gt;&lt;br style=&quot;border-color: var(--border-color);&quot;&gt;REQUEST SERVICES&lt;/i&gt;" style="swimlane;fontStyle=1;align=center;verticalAlign=top;childLayout=stackLayout;horizontal=1;startSize=42;horizontalStack=0;resizeParent=1;resizeParentMax=0;resizeLast=0;collapsible=1;marginBottom=0;whiteSpace=wrap;html=1;" vertex="1" parent="1">
          <mxGeometry x="360" y="1799" width="160" height="94" as="geometry">
            <mxRectangle x="750" y="200" width="80" height="30" as="alternateBounds" />
          </mxGeometry>
        </mxCell>
        <mxCell id="1QSR1i9DhKROp5-wo-e_-37" value="" style="line;strokeWidth=1;fillColor=none;align=left;verticalAlign=middle;spacingTop=-1;spacingLeft=3;spacingRight=3;rotatable=0;labelPosition=right;points=[];portConstraint=eastwest;strokeColor=inherit;" vertex="1" parent="1QSR1i9DhKROp5-wo-e_-35">
          <mxGeometry y="42" width="160" height="8" as="geometry" />
        </mxCell>
        <mxCell id="1QSR1i9DhKROp5-wo-e_-38" value="+ requestService(): boolean&lt;br style=&quot;border-color: var(--border-color);&quot;&gt;+ cancelRequest(): boolean" style="text;strokeColor=none;fillColor=none;align=left;verticalAlign=top;spacingLeft=4;spacingRight=4;overflow=hidden;rotatable=0;points=[[0,0.5],[1,0.5]];portConstraint=eastwest;whiteSpace=wrap;html=1;" vertex="1" parent="1QSR1i9DhKROp5-wo-e_-35">
          <mxGeometry y="50" width="160" height="44" as="geometry" />
        </mxCell>
        <mxCell id="1QSR1i9DhKROp5-wo-e_-40" style="edgeStyle=orthogonalEdgeStyle;rounded=0;orthogonalLoop=1;jettySize=auto;html=1;exitX=0;exitY=0.5;exitDx=0;exitDy=0;dashed=1;dashPattern=8 8;entryX=0;entryY=0;entryDx=0;entryDy=0;" edge="1" parent="1" source="f_wC157JiwR1pDFYYjTe-22" target="1QSR1i9DhKROp5-wo-e_-18">
          <mxGeometry relative="1" as="geometry">
            <mxPoint x="-1100" y="1840" as="targetPoint" />
            <Array as="points">
              <mxPoint x="736" y="393" />
              <mxPoint x="300" y="393" />
              <mxPoint x="300" y="880" />
              <mxPoint x="-1219" y="880" />
            </Array>
          </mxGeometry>
        </mxCell>
        <mxCell id="1QSR1i9DhKROp5-wo-e_-41" value="report theft/stolen" style="text;html=1;align=center;verticalAlign=middle;resizable=0;points=[];autosize=1;strokeColor=none;fillColor=none;" vertex="1" parent="1">
          <mxGeometry x="-1219" y="898" width="120" height="30" as="geometry" />
        </mxCell>
        <mxCell id="1QSR1i9DhKROp5-wo-e_-86" style="edgeStyle=orthogonalEdgeStyle;rounded=0;orthogonalLoop=1;jettySize=auto;html=1;exitX=1;exitY=0;exitDx=0;exitDy=0;entryX=0;entryY=0;entryDx=0;entryDy=0;" edge="1" parent="1" source="1QSR1i9DhKROp5-wo-e_-44" target="1QSR1i9DhKROp5-wo-e_-74">
          <mxGeometry relative="1" as="geometry">
            <Array as="points">
              <mxPoint x="4070" y="2440" />
              <mxPoint x="4070" y="2440" />
            </Array>
          </mxGeometry>
        </mxCell>
        <mxCell id="1QSR1i9DhKROp5-wo-e_-44" value="&lt;span style=&quot;font-weight: normal;&quot;&gt;&lt;i&gt;&amp;lt;&amp;lt;ABSTRACT&amp;gt;&amp;gt;&lt;br&gt;PAYMENT&lt;/i&gt;&lt;/span&gt;" style="swimlane;fontStyle=1;align=center;verticalAlign=top;childLayout=stackLayout;horizontal=1;startSize=40;horizontalStack=0;resizeParent=1;resizeParentMax=0;resizeLast=0;collapsible=1;marginBottom=0;whiteSpace=wrap;html=1;" vertex="1" parent="1">
          <mxGeometry x="3795" y="2440" width="220" height="178" as="geometry" />
        </mxCell>
        <mxCell id="1QSR1i9DhKROp5-wo-e_-45" value="+ amount :int&lt;br&gt;+ date: date&lt;br&gt;+ paymentDescription: String&lt;br&gt;+ paymentCurrency: String&lt;br&gt;+ payment_method: payment_method&lt;br&gt;+PayeeName: String&lt;br&gt;+status: String" style="text;strokeColor=none;fillColor=none;align=left;verticalAlign=top;spacingLeft=4;spacingRight=4;overflow=hidden;rotatable=0;points=[[0,0.5],[1,0.5]];portConstraint=eastwest;whiteSpace=wrap;html=1;" vertex="1" parent="1QSR1i9DhKROp5-wo-e_-44">
          <mxGeometry y="40" width="220" height="104" as="geometry" />
        </mxCell>
        <mxCell id="1QSR1i9DhKROp5-wo-e_-46" value="" style="line;strokeWidth=1;fillColor=none;align=left;verticalAlign=middle;spacingTop=-1;spacingLeft=3;spacingRight=3;rotatable=0;labelPosition=right;points=[];portConstraint=eastwest;strokeColor=inherit;" vertex="1" parent="1QSR1i9DhKROp5-wo-e_-44">
          <mxGeometry y="144" width="220" height="8" as="geometry" />
        </mxCell>
        <mxCell id="1QSR1i9DhKROp5-wo-e_-47" value="+" style="text;strokeColor=none;fillColor=none;align=left;verticalAlign=top;spacingLeft=4;spacingRight=4;overflow=hidden;rotatable=0;points=[[0,0.5],[1,0.5]];portConstraint=eastwest;whiteSpace=wrap;html=1;" vertex="1" parent="1QSR1i9DhKROp5-wo-e_-44">
          <mxGeometry y="152" width="220" height="26" as="geometry" />
        </mxCell>
        <mxCell id="1QSR1i9DhKROp5-wo-e_-85" style="edgeStyle=orthogonalEdgeStyle;rounded=0;orthogonalLoop=1;jettySize=auto;html=1;exitX=0.5;exitY=1;exitDx=0;exitDy=0;entryX=0.5;entryY=0;entryDx=0;entryDy=0;endArrow=block;endFill=0;" edge="1" parent="1" source="1QSR1i9DhKROp5-wo-e_-48" target="1QSR1i9DhKROp5-wo-e_-44">
          <mxGeometry relative="1" as="geometry" />
        </mxCell>
        <mxCell id="1QSR1i9DhKROp5-wo-e_-48" value="PARTIALPAYMENT" style="swimlane;fontStyle=1;align=center;verticalAlign=top;childLayout=stackLayout;horizontal=1;startSize=26;horizontalStack=0;resizeParent=1;resizeParentMax=0;resizeLast=0;collapsible=1;marginBottom=0;whiteSpace=wrap;html=1;" vertex="1" parent="1">
          <mxGeometry x="3930" y="2280" width="160" height="100" as="geometry" />
        </mxCell>
        <mxCell id="1QSR1i9DhKROp5-wo-e_-49" value="+ field: type" style="text;strokeColor=none;fillColor=none;align=left;verticalAlign=top;spacingLeft=4;spacingRight=4;overflow=hidden;rotatable=0;points=[[0,0.5],[1,0.5]];portConstraint=eastwest;whiteSpace=wrap;html=1;" vertex="1" parent="1QSR1i9DhKROp5-wo-e_-48">
          <mxGeometry y="26" width="160" height="26" as="geometry" />
        </mxCell>
        <mxCell id="1QSR1i9DhKROp5-wo-e_-50" value="" style="line;strokeWidth=1;fillColor=none;align=left;verticalAlign=middle;spacingTop=-1;spacingLeft=3;spacingRight=3;rotatable=0;labelPosition=right;points=[];portConstraint=eastwest;strokeColor=inherit;" vertex="1" parent="1QSR1i9DhKROp5-wo-e_-48">
          <mxGeometry y="52" width="160" height="8" as="geometry" />
        </mxCell>
        <mxCell id="1QSR1i9DhKROp5-wo-e_-51" value="+ method(type): type" style="text;strokeColor=none;fillColor=none;align=left;verticalAlign=top;spacingLeft=4;spacingRight=4;overflow=hidden;rotatable=0;points=[[0,0.5],[1,0.5]];portConstraint=eastwest;whiteSpace=wrap;html=1;" vertex="1" parent="1QSR1i9DhKROp5-wo-e_-48">
          <mxGeometry y="60" width="160" height="40" as="geometry" />
        </mxCell>
        <mxCell id="1QSR1i9DhKROp5-wo-e_-84" style="edgeStyle=orthogonalEdgeStyle;rounded=0;orthogonalLoop=1;jettySize=auto;html=1;exitX=0.5;exitY=1;exitDx=0;exitDy=0;entryX=0.5;entryY=0;entryDx=0;entryDy=0;endArrow=block;endFill=0;" edge="1" parent="1" source="1QSR1i9DhKROp5-wo-e_-52" target="1QSR1i9DhKROp5-wo-e_-44">
          <mxGeometry relative="1" as="geometry">
            <mxPoint x="3820" y="2400" as="targetPoint" />
          </mxGeometry>
        </mxCell>
        <mxCell id="1QSR1i9DhKROp5-wo-e_-52" value="FULLPAYMENT" style="swimlane;fontStyle=1;align=center;verticalAlign=top;childLayout=stackLayout;horizontal=1;startSize=26;horizontalStack=0;resizeParent=1;resizeParentMax=0;resizeLast=0;collapsible=1;marginBottom=0;whiteSpace=wrap;html=1;" vertex="1" parent="1">
          <mxGeometry x="3740" y="2280" width="160" height="100" as="geometry" />
        </mxCell>
        <mxCell id="1QSR1i9DhKROp5-wo-e_-53" value="+ field: type" style="text;strokeColor=none;fillColor=none;align=left;verticalAlign=top;spacingLeft=4;spacingRight=4;overflow=hidden;rotatable=0;points=[[0,0.5],[1,0.5]];portConstraint=eastwest;whiteSpace=wrap;html=1;" vertex="1" parent="1QSR1i9DhKROp5-wo-e_-52">
          <mxGeometry y="26" width="160" height="26" as="geometry" />
        </mxCell>
        <mxCell id="1QSR1i9DhKROp5-wo-e_-54" value="" style="line;strokeWidth=1;fillColor=none;align=left;verticalAlign=middle;spacingTop=-1;spacingLeft=3;spacingRight=3;rotatable=0;labelPosition=right;points=[];portConstraint=eastwest;strokeColor=inherit;" vertex="1" parent="1QSR1i9DhKROp5-wo-e_-52">
          <mxGeometry y="52" width="160" height="8" as="geometry" />
        </mxCell>
        <mxCell id="1QSR1i9DhKROp5-wo-e_-55" value="+ method(type): type" style="text;strokeColor=none;fillColor=none;align=left;verticalAlign=top;spacingLeft=4;spacingRight=4;overflow=hidden;rotatable=0;points=[[0,0.5],[1,0.5]];portConstraint=eastwest;whiteSpace=wrap;html=1;" vertex="1" parent="1QSR1i9DhKROp5-wo-e_-52">
          <mxGeometry y="60" width="160" height="40" as="geometry" />
        </mxCell>
        <mxCell id="1QSR1i9DhKROp5-wo-e_-59" value="has" style="text;html=1;align=center;verticalAlign=middle;resizable=0;points=[];autosize=1;strokeColor=none;fillColor=none;" vertex="1" parent="1">
          <mxGeometry x="2100" y="430" width="40" height="30" as="geometry" />
        </mxCell>
        <mxCell id="1QSR1i9DhKROp5-wo-e_-65" value="&lt;span style=&quot;font-weight: normal;&quot;&gt;&lt;i&gt;TRANSFER&lt;/i&gt;&lt;/span&gt;" style="swimlane;fontStyle=1;align=center;verticalAlign=top;childLayout=stackLayout;horizontal=1;startSize=40;horizontalStack=0;resizeParent=1;resizeParentMax=0;resizeLast=0;collapsible=1;marginBottom=0;whiteSpace=wrap;html=1;" vertex="1" parent="1">
          <mxGeometry x="780" y="1060" width="261" height="176" as="geometry">
            <mxRectangle x="750" y="200" width="80" height="30" as="alternateBounds" />
          </mxGeometry>
        </mxCell>
        <mxCell id="1QSR1i9DhKROp5-wo-e_-66" value="+ processing_fee: int&lt;br&gt;+ exchange_rate: String&lt;br&gt;+ amount: int&lt;br&gt;+ date: date&lt;br&gt;+ method: String&lt;br&gt;+ status: int" style="text;strokeColor=none;fillColor=none;align=left;verticalAlign=top;spacingLeft=4;spacingRight=4;overflow=hidden;rotatable=0;points=[[0,0.5],[1,0.5]];portConstraint=eastwest;whiteSpace=wrap;html=1;" vertex="1" parent="1QSR1i9DhKROp5-wo-e_-65">
          <mxGeometry y="40" width="261" height="90" as="geometry" />
        </mxCell>
        <mxCell id="1QSR1i9DhKROp5-wo-e_-67" value="" style="line;strokeWidth=1;fillColor=none;align=left;verticalAlign=middle;spacingTop=-1;spacingLeft=3;spacingRight=3;rotatable=0;labelPosition=right;points=[];portConstraint=eastwest;strokeColor=inherit;" vertex="1" parent="1QSR1i9DhKROp5-wo-e_-65">
          <mxGeometry y="130" width="261" height="8" as="geometry" />
        </mxCell>
        <mxCell id="1QSR1i9DhKROp5-wo-e_-68" value="+" style="text;strokeColor=none;fillColor=none;align=left;verticalAlign=top;spacingLeft=4;spacingRight=4;overflow=hidden;rotatable=0;points=[[0,0.5],[1,0.5]];portConstraint=eastwest;whiteSpace=wrap;html=1;" vertex="1" parent="1QSR1i9DhKROp5-wo-e_-65">
          <mxGeometry y="138" width="261" height="38" as="geometry" />
        </mxCell>
        <mxCell id="1QSR1i9DhKROp5-wo-e_-74" value="&lt;span style=&quot;font-style: italic; font-weight: normal;&quot;&gt;&amp;lt;&amp;lt;ENUMERATION&amp;gt;&amp;gt;&lt;/span&gt;&lt;br&gt;PAYMENT_METHOD" style="swimlane;fontStyle=1;align=center;verticalAlign=top;childLayout=stackLayout;horizontal=1;startSize=70;horizontalStack=0;resizeParent=1;resizeParentMax=0;resizeLast=0;collapsible=1;marginBottom=0;whiteSpace=wrap;html=1;" vertex="1" parent="1">
          <mxGeometry x="4120" y="2440" width="190" height="152" as="geometry" />
        </mxCell>
        <mxCell id="1QSR1i9DhKROp5-wo-e_-75" value="VISA&lt;br&gt;MASTERCARD&lt;br&gt;PAYPAPL" style="text;strokeColor=none;fillColor=none;align=left;verticalAlign=top;spacingLeft=4;spacingRight=4;overflow=hidden;rotatable=0;points=[[0,0.5],[1,0.5]];portConstraint=eastwest;whiteSpace=wrap;html=1;" vertex="1" parent="1QSR1i9DhKROp5-wo-e_-74">
          <mxGeometry y="70" width="190" height="74" as="geometry" />
        </mxCell>
        <mxCell id="1QSR1i9DhKROp5-wo-e_-76" value="" style="line;strokeWidth=1;fillColor=none;align=left;verticalAlign=middle;spacingTop=-1;spacingLeft=3;spacingRight=3;rotatable=0;labelPosition=right;points=[];portConstraint=eastwest;strokeColor=inherit;" vertex="1" parent="1QSR1i9DhKROp5-wo-e_-74">
          <mxGeometry y="144" width="190" height="8" as="geometry" />
        </mxCell>
        <mxCell id="1QSR1i9DhKROp5-wo-e_-92" value="CHEQUE" style="swimlane;fontStyle=1;align=center;verticalAlign=top;childLayout=stackLayout;horizontal=1;startSize=40;horizontalStack=0;resizeParent=1;resizeParentMax=0;resizeLast=0;collapsible=1;marginBottom=0;whiteSpace=wrap;html=1;" vertex="1" parent="1">
          <mxGeometry x="2250" y="2120" width="280" height="260" as="geometry">
            <mxRectangle x="750" y="200" width="80" height="30" as="alternateBounds" />
          </mxGeometry>
        </mxCell>
        <mxCell id="1QSR1i9DhKROp5-wo-e_-93" value="+ status: int" style="text;strokeColor=none;fillColor=none;align=left;verticalAlign=top;spacingLeft=4;spacingRight=4;overflow=hidden;rotatable=0;points=[[0,0.5],[1,0.5]];portConstraint=eastwest;whiteSpace=wrap;html=1;" vertex="1" parent="1QSR1i9DhKROp5-wo-e_-92">
          <mxGeometry y="40" width="280" height="26" as="geometry" />
        </mxCell>
        <mxCell id="1QSR1i9DhKROp5-wo-e_-94" value="" style="line;strokeWidth=1;fillColor=none;align=left;verticalAlign=middle;spacingTop=-1;spacingLeft=3;spacingRight=3;rotatable=0;labelPosition=right;points=[];portConstraint=eastwest;strokeColor=inherit;" vertex="1" parent="1QSR1i9DhKROp5-wo-e_-92">
          <mxGeometry y="66" width="280" height="8" as="geometry" />
        </mxCell>
        <mxCell id="1QSR1i9DhKROp5-wo-e_-95" value="+ executeRequest(): boolean&lt;br style=&quot;border-color: var(--border-color);&quot;&gt;+ cancelRequest(): boolean&lt;br&gt;+findBanker()" style="text;strokeColor=none;fillColor=none;align=left;verticalAlign=top;spacingLeft=4;spacingRight=4;overflow=hidden;rotatable=0;points=[[0,0.5],[1,0.5]];portConstraint=eastwest;whiteSpace=wrap;html=1;" vertex="1" parent="1QSR1i9DhKROp5-wo-e_-92">
          <mxGeometry y="74" width="280" height="186" as="geometry" />
        </mxCell>
        <mxCell id="1QSR1i9DhKROp5-wo-e_-96" value="&lt;span style=&quot;font-style: italic; font-weight: normal;&quot;&gt;&amp;lt;&amp;lt;ENUMERATION&amp;gt;&amp;gt;&lt;/span&gt;&lt;br&gt;APPLICATION_TYPE" style="swimlane;fontStyle=1;align=center;verticalAlign=top;childLayout=stackLayout;horizontal=1;startSize=70;horizontalStack=0;resizeParent=1;resizeParentMax=0;resizeLast=0;collapsible=1;marginBottom=0;whiteSpace=wrap;html=1;" vertex="1" parent="1">
          <mxGeometry x="346" y="2270" width="190" height="152" as="geometry" />
        </mxCell>
        <mxCell id="1QSR1i9DhKROp5-wo-e_-97" value="&lt;b&gt;NEW&lt;/b&gt;&lt;br&gt;&lt;b&gt;REPLACEMENT&lt;/b&gt;" style="text;strokeColor=none;fillColor=none;align=left;verticalAlign=top;spacingLeft=4;spacingRight=4;overflow=hidden;rotatable=0;points=[[0,0.5],[1,0.5]];portConstraint=eastwest;whiteSpace=wrap;html=1;" vertex="1" parent="1QSR1i9DhKROp5-wo-e_-96">
          <mxGeometry y="70" width="190" height="74" as="geometry" />
        </mxCell>
        <mxCell id="1QSR1i9DhKROp5-wo-e_-98" value="" style="line;strokeWidth=1;fillColor=none;align=left;verticalAlign=middle;spacingTop=-1;spacingLeft=3;spacingRight=3;rotatable=0;labelPosition=right;points=[];portConstraint=eastwest;strokeColor=inherit;" vertex="1" parent="1QSR1i9DhKROp5-wo-e_-96">
          <mxGeometry y="144" width="190" height="8" as="geometry" />
        </mxCell>
        <mxCell id="1QSR1i9DhKROp5-wo-e_-123" value="PERSONAL_LOAN" style="swimlane;fontStyle=1;align=center;verticalAlign=top;childLayout=stackLayout;horizontal=1;startSize=40;horizontalStack=0;resizeParent=1;resizeParentMax=0;resizeLast=0;collapsible=1;marginBottom=0;whiteSpace=wrap;html=1;" vertex="1" parent="1">
          <mxGeometry x="1555.5" y="2640" width="190" height="138" as="geometry">
            <mxRectangle x="750" y="200" width="80" height="30" as="alternateBounds" />
          </mxGeometry>
        </mxCell>
        <mxCell id="1QSR1i9DhKROp5-wo-e_-124" value="+income: Double" style="text;strokeColor=none;fillColor=none;align=left;verticalAlign=top;spacingLeft=4;spacingRight=4;overflow=hidden;rotatable=0;points=[[0,0.5],[1,0.5]];portConstraint=eastwest;whiteSpace=wrap;html=1;" vertex="1" parent="1QSR1i9DhKROp5-wo-e_-123">
          <mxGeometry y="40" width="190" height="90" as="geometry" />
        </mxCell>
        <mxCell id="1QSR1i9DhKROp5-wo-e_-125" value="" style="line;strokeWidth=1;fillColor=none;align=left;verticalAlign=middle;spacingTop=-1;spacingLeft=3;spacingRight=3;rotatable=0;labelPosition=right;points=[];portConstraint=eastwest;strokeColor=inherit;" vertex="1" parent="1QSR1i9DhKROp5-wo-e_-123">
          <mxGeometry y="130" width="190" height="8" as="geometry" />
        </mxCell>
        <mxCell id="1QSR1i9DhKROp5-wo-e_-127" value="CAR_LOAN" style="swimlane;fontStyle=1;align=center;verticalAlign=top;childLayout=stackLayout;horizontal=1;startSize=40;horizontalStack=0;resizeParent=1;resizeParentMax=0;resizeLast=0;collapsible=1;marginBottom=0;whiteSpace=wrap;html=1;" vertex="1" parent="1">
          <mxGeometry x="1346.5" y="2640" width="190" height="138" as="geometry">
            <mxRectangle x="750" y="200" width="80" height="30" as="alternateBounds" />
          </mxGeometry>
        </mxCell>
        <mxCell id="1QSR1i9DhKROp5-wo-e_-128" value="+PURCHASE_PRICE: DOUBLE&lt;br&gt;+vehicle_id_number: String&lt;br&gt;" style="text;strokeColor=none;fillColor=none;align=left;verticalAlign=top;spacingLeft=4;spacingRight=4;overflow=hidden;rotatable=0;points=[[0,0.5],[1,0.5]];portConstraint=eastwest;whiteSpace=wrap;html=1;" vertex="1" parent="1QSR1i9DhKROp5-wo-e_-127">
          <mxGeometry y="40" width="190" height="90" as="geometry" />
        </mxCell>
        <mxCell id="1QSR1i9DhKROp5-wo-e_-129" value="" style="line;strokeWidth=1;fillColor=none;align=left;verticalAlign=middle;spacingTop=-1;spacingLeft=3;spacingRight=3;rotatable=0;labelPosition=right;points=[];portConstraint=eastwest;strokeColor=inherit;" vertex="1" parent="1QSR1i9DhKROp5-wo-e_-127">
          <mxGeometry y="130" width="190" height="8" as="geometry" />
        </mxCell>
        <mxCell id="1QSR1i9DhKROp5-wo-e_-145" value="&lt;span style=&quot;font-weight: 400;&quot;&gt;&lt;i&gt;&amp;lt;&amp;lt;ABSTRACT&amp;gt;&amp;gt;&lt;br&gt;REQUESTS&lt;/i&gt;&lt;/span&gt;" style="swimlane;fontStyle=1;align=center;verticalAlign=top;childLayout=stackLayout;horizontal=1;startSize=42;horizontalStack=0;resizeParent=1;resizeParentMax=0;resizeLast=0;collapsible=1;marginBottom=0;whiteSpace=wrap;html=1;" vertex="1" parent="1">
          <mxGeometry x="-20" y="2201" width="160" height="108" as="geometry">
            <mxRectangle x="750" y="200" width="80" height="30" as="alternateBounds" />
          </mxGeometry>
        </mxCell>
        <mxCell id="1QSR1i9DhKROp5-wo-e_-146" value="+ status: int&lt;br&gt;+annual_income: double&lt;br&gt;+submission_date: date" style="text;strokeColor=none;fillColor=none;align=left;verticalAlign=top;spacingLeft=4;spacingRight=4;overflow=hidden;rotatable=0;points=[[0,0.5],[1,0.5]];portConstraint=eastwest;whiteSpace=wrap;html=1;" vertex="1" parent="1QSR1i9DhKROp5-wo-e_-145">
          <mxGeometry y="42" width="160" height="58" as="geometry" />
        </mxCell>
        <mxCell id="1QSR1i9DhKROp5-wo-e_-147" value="" style="line;strokeWidth=1;fillColor=none;align=left;verticalAlign=middle;spacingTop=-1;spacingLeft=3;spacingRight=3;rotatable=0;labelPosition=right;points=[];portConstraint=eastwest;strokeColor=inherit;" vertex="1" parent="1QSR1i9DhKROp5-wo-e_-145">
          <mxGeometry y="100" width="160" height="8" as="geometry" />
        </mxCell>
        <mxCell id="1QSR1i9DhKROp5-wo-e_-165" style="edgeStyle=orthogonalEdgeStyle;rounded=0;orthogonalLoop=1;jettySize=auto;html=1;exitX=0.5;exitY=1;exitDx=0;exitDy=0;endArrow=none;endFill=0;startArrow=block;startFill=0;entryX=0.569;entryY=-0.003;entryDx=0;entryDy=0;entryPerimeter=0;" edge="1" parent="1" source="1QSR1i9DhKROp5-wo-e_-157" target="1QSR1i9DhKROp5-wo-e_-44">
          <mxGeometry relative="1" as="geometry">
            <mxPoint x="3990" y="1910" as="targetPoint" />
            <Array as="points">
              <mxPoint x="3005" y="1602" />
              <mxPoint x="3920" y="1602" />
            </Array>
          </mxGeometry>
        </mxCell>
        <mxCell id="1QSR1i9DhKROp5-wo-e_-218" style="edgeStyle=orthogonalEdgeStyle;rounded=0;orthogonalLoop=1;jettySize=auto;html=1;exitX=1;exitY=0;exitDx=0;exitDy=0;entryX=0;entryY=0;entryDx=0;entryDy=0;" edge="1" parent="1" source="1QSR1i9DhKROp5-wo-e_-157" target="1QSR1i9DhKROp5-wo-e_-215">
          <mxGeometry relative="1" as="geometry">
            <Array as="points">
              <mxPoint x="3170" y="1074" />
              <mxPoint x="3170" y="1074" />
            </Array>
          </mxGeometry>
        </mxCell>
        <mxCell id="1QSR1i9DhKROp5-wo-e_-157" value="&lt;span style=&quot;font-weight: normal;&quot;&gt;&lt;i&gt;&amp;lt;&amp;lt;ABSTARCT&amp;gt;&amp;gt;&lt;br&gt;TRANSACTION&lt;/i&gt;&lt;/span&gt;" style="swimlane;fontStyle=1;align=center;verticalAlign=top;childLayout=stackLayout;horizontal=1;startSize=42;horizontalStack=0;resizeParent=1;resizeParentMax=0;resizeLast=0;collapsible=1;marginBottom=0;whiteSpace=wrap;html=1;" vertex="1" parent="1">
          <mxGeometry x="2920" y="1074" width="170" height="152" as="geometry" />
        </mxCell>
        <mxCell id="1QSR1i9DhKROp5-wo-e_-158" value="&lt;font style=&quot;font-size: 9px;&quot;&gt;+amount: double&lt;br&gt;+date: date&lt;br&gt;+description: String&lt;br&gt;+status: int&lt;br&gt;+type:TRANSACTION_TYPE&lt;br&gt;&lt;/font&gt;" style="text;strokeColor=none;fillColor=none;align=left;verticalAlign=top;spacingLeft=4;spacingRight=4;overflow=hidden;rotatable=0;points=[[0,0.5],[1,0.5]];portConstraint=eastwest;whiteSpace=wrap;html=1;" vertex="1" parent="1QSR1i9DhKROp5-wo-e_-157">
          <mxGeometry y="42" width="170" height="80" as="geometry" />
        </mxCell>
        <mxCell id="1QSR1i9DhKROp5-wo-e_-159" value="" style="line;strokeWidth=1;fillColor=none;align=left;verticalAlign=middle;spacingTop=-1;spacingLeft=3;spacingRight=3;rotatable=0;labelPosition=right;points=[];portConstraint=eastwest;strokeColor=inherit;" vertex="1" parent="1QSR1i9DhKROp5-wo-e_-157">
          <mxGeometry y="122" width="170" height="8" as="geometry" />
        </mxCell>
        <mxCell id="1QSR1i9DhKROp5-wo-e_-160" value="+" style="text;strokeColor=none;fillColor=none;align=left;verticalAlign=top;spacingLeft=4;spacingRight=4;overflow=hidden;rotatable=0;points=[[0,0.5],[1,0.5]];portConstraint=eastwest;whiteSpace=wrap;html=1;" vertex="1" parent="1QSR1i9DhKROp5-wo-e_-157">
          <mxGeometry y="130" width="170" height="22" as="geometry" />
        </mxCell>
        <mxCell id="1QSR1i9DhKROp5-wo-e_-161" style="edgeStyle=orthogonalEdgeStyle;rounded=0;orthogonalLoop=1;jettySize=auto;html=1;exitX=0;exitY=0.5;exitDx=0;exitDy=0;entryX=1;entryY=0.5;entryDx=0;entryDy=0;endArrow=none;endFill=0;startArrow=block;startFill=0;" edge="1" parent="1" source="1QSR1i9DhKROp5-wo-e_-158" target="1QSR1i9DhKROp5-wo-e_-66">
          <mxGeometry relative="1" as="geometry" />
        </mxCell>
        <mxCell id="1QSR1i9DhKROp5-wo-e_-168" style="edgeStyle=orthogonalEdgeStyle;rounded=0;orthogonalLoop=1;jettySize=auto;html=1;exitX=0;exitY=0.5;exitDx=0;exitDy=0;endArrow=block;endFill=0;entryX=1;entryY=0.5;entryDx=0;entryDy=0;" edge="1" parent="1" source="f_wC157JiwR1pDFYYjTe-116" target="f_wC157JiwR1pDFYYjTe-536">
          <mxGeometry relative="1" as="geometry">
            <mxPoint x="-167" y="1275" as="targetPoint" />
            <Array as="points">
              <mxPoint x="490" y="737" />
              <mxPoint x="490" y="1254" />
            </Array>
          </mxGeometry>
        </mxCell>
        <mxCell id="1QSR1i9DhKROp5-wo-e_-182" style="edgeStyle=orthogonalEdgeStyle;rounded=0;orthogonalLoop=1;jettySize=auto;html=1;exitX=0.5;exitY=0;exitDx=0;exitDy=0;entryX=0;entryY=0.5;entryDx=0;entryDy=0;endArrow=block;endFill=0;" edge="1" parent="1" source="1QSR1i9DhKROp5-wo-e_-178" target="1QSR1i9DhKROp5-wo-e_-160">
          <mxGeometry relative="1" as="geometry" />
        </mxCell>
        <mxCell id="1QSR1i9DhKROp5-wo-e_-183" style="edgeStyle=orthogonalEdgeStyle;rounded=0;orthogonalLoop=1;jettySize=auto;html=1;exitX=0;exitY=0.25;exitDx=0;exitDy=0;entryX=0.647;entryY=0.009;entryDx=0;entryDy=0;entryPerimeter=0;endArrow=none;endFill=0;startArrow=diamond;startFill=0;" edge="1" parent="1" source="1QSR1i9DhKROp5-wo-e_-178" target="f_wC157JiwR1pDFYYjTe-212">
          <mxGeometry relative="1" as="geometry" />
        </mxCell>
        <mxCell id="1QSR1i9DhKROp5-wo-e_-178" value="&lt;i&gt;CREDIT_CARD TRANSACTIONS&lt;/i&gt;" style="swimlane;fontStyle=1;align=center;verticalAlign=top;childLayout=stackLayout;horizontal=1;startSize=42;horizontalStack=0;resizeParent=1;resizeParentMax=0;resizeLast=0;collapsible=1;marginBottom=0;whiteSpace=wrap;html=1;" vertex="1" parent="1">
          <mxGeometry x="2770" y="1290" width="170" height="72" as="geometry" />
        </mxCell>
        <mxCell id="1QSR1i9DhKROp5-wo-e_-180" value="" style="line;strokeWidth=1;fillColor=none;align=left;verticalAlign=middle;spacingTop=-1;spacingLeft=3;spacingRight=3;rotatable=0;labelPosition=right;points=[];portConstraint=eastwest;strokeColor=inherit;" vertex="1" parent="1QSR1i9DhKROp5-wo-e_-178">
          <mxGeometry y="42" width="170" height="8" as="geometry" />
        </mxCell>
        <mxCell id="1QSR1i9DhKROp5-wo-e_-181" value="+" style="text;strokeColor=none;fillColor=none;align=left;verticalAlign=top;spacingLeft=4;spacingRight=4;overflow=hidden;rotatable=0;points=[[0,0.5],[1,0.5]];portConstraint=eastwest;whiteSpace=wrap;html=1;" vertex="1" parent="1QSR1i9DhKROp5-wo-e_-178">
          <mxGeometry y="50" width="170" height="22" as="geometry" />
        </mxCell>
        <mxCell id="1QSR1i9DhKROp5-wo-e_-184" value="HAS" style="text;html=1;align=center;verticalAlign=middle;resizable=0;points=[];autosize=1;strokeColor=none;fillColor=none;" vertex="1" parent="1">
          <mxGeometry x="2540" y="1288" width="50" height="30" as="geometry" />
        </mxCell>
        <mxCell id="1QSR1i9DhKROp5-wo-e_-187" value="USES" style="text;html=1;align=center;verticalAlign=middle;resizable=0;points=[];autosize=1;strokeColor=none;fillColor=none;flipV=1;flipH=1;rotation=0;fontSize=10;" vertex="1" parent="1">
          <mxGeometry x="2290" y="2062" width="50" height="30" as="geometry" />
        </mxCell>
        <mxCell id="1QSR1i9DhKROp5-wo-e_-195" style="edgeStyle=orthogonalEdgeStyle;rounded=0;orthogonalLoop=1;jettySize=auto;html=1;exitX=0;exitY=0.5;exitDx=0;exitDy=0;entryX=1;entryY=0.25;entryDx=0;entryDy=0;dashed=1;dashPattern=12 12;endArrow=block;endFill=0;" edge="1" parent="1" source="f_wC157JiwR1pDFYYjTe-164" target="f_wC157JiwR1pDFYYjTe-236">
          <mxGeometry relative="1" as="geometry">
            <Array as="points">
              <mxPoint x="1860" y="274" />
              <mxPoint x="1860" y="1040" />
              <mxPoint x="1350" y="1040" />
              <mxPoint x="1350" y="1791" />
            </Array>
          </mxGeometry>
        </mxCell>
        <mxCell id="1QSR1i9DhKROp5-wo-e_-198" value="1..1&lt;br&gt;" style="text;html=1;align=center;verticalAlign=middle;resizable=0;points=[];autosize=1;strokeColor=none;fillColor=none;" vertex="1" parent="1">
          <mxGeometry x="2270" y="90" width="40" height="30" as="geometry" />
        </mxCell>
        <mxCell id="1QSR1i9DhKROp5-wo-e_-200" value="0..*&lt;br&gt;" style="text;html=1;align=center;verticalAlign=middle;resizable=0;points=[];autosize=1;strokeColor=none;fillColor=none;" vertex="1" parent="1">
          <mxGeometry x="2630" y="410" width="40" height="30" as="geometry" />
        </mxCell>
        <mxCell id="1QSR1i9DhKROp5-wo-e_-202" value="1..1&lt;br&gt;" style="text;html=1;align=center;verticalAlign=middle;resizable=0;points=[];autosize=1;strokeColor=none;fillColor=none;" vertex="1" parent="1">
          <mxGeometry x="2140" y="360" width="40" height="30" as="geometry" />
        </mxCell>
        <mxCell id="1QSR1i9DhKROp5-wo-e_-203" value="0..*&lt;br&gt;" style="text;html=1;align=center;verticalAlign=middle;resizable=0;points=[];autosize=1;strokeColor=none;fillColor=none;" vertex="1" parent="1">
          <mxGeometry x="1671" y="2086" width="40" height="30" as="geometry" />
        </mxCell>
        <mxCell id="1QSR1i9DhKROp5-wo-e_-204" value="0..*&lt;br&gt;" style="text;html=1;align=center;verticalAlign=middle;resizable=0;points=[];autosize=1;strokeColor=none;fillColor=none;" vertex="1" parent="1">
          <mxGeometry x="1931" y="2086" width="40" height="30" as="geometry" />
        </mxCell>
        <mxCell id="1QSR1i9DhKROp5-wo-e_-205" value="0..*&lt;br&gt;" style="text;html=1;align=center;verticalAlign=middle;resizable=0;points=[];autosize=1;strokeColor=none;fillColor=none;" vertex="1" parent="1">
          <mxGeometry x="1445.5" y="2086" width="40" height="30" as="geometry" />
        </mxCell>
        <mxCell id="1QSR1i9DhKROp5-wo-e_-207" value="0..*&lt;br&gt;" style="text;html=1;align=center;verticalAlign=middle;resizable=0;points=[];autosize=1;strokeColor=none;fillColor=none;" vertex="1" parent="1">
          <mxGeometry x="2280" y="2099" width="40" height="30" as="geometry" />
        </mxCell>
        <mxCell id="1QSR1i9DhKROp5-wo-e_-209" value="0..*&lt;br&gt;" style="text;html=1;align=center;verticalAlign=middle;resizable=0;points=[];autosize=1;strokeColor=none;fillColor=none;" vertex="1" parent="1">
          <mxGeometry x="2290" y="460" width="40" height="30" as="geometry" />
        </mxCell>
        <mxCell id="1QSR1i9DhKROp5-wo-e_-210" value="1..1&lt;br&gt;" style="text;html=1;align=center;verticalAlign=middle;resizable=0;points=[];autosize=1;strokeColor=none;fillColor=none;" vertex="1" parent="1">
          <mxGeometry x="1871" y="2090" width="40" height="30" as="geometry" />
        </mxCell>
        <mxCell id="1QSR1i9DhKROp5-wo-e_-211" style="edgeStyle=orthogonalEdgeStyle;rounded=0;orthogonalLoop=1;jettySize=auto;html=1;exitX=1;exitY=0.5;exitDx=0;exitDy=0;entryX=0.5;entryY=0;entryDx=0;entryDy=0;endArrow=none;endFill=0;" edge="1" parent="1" source="f_wC157JiwR1pDFYYjTe-162" target="f_wC157JiwR1pDFYYjTe-372">
          <mxGeometry relative="1" as="geometry" />
        </mxCell>
        <mxCell id="1QSR1i9DhKROp5-wo-e_-212" value="1..1&lt;br&gt;" style="text;html=1;align=center;verticalAlign=middle;resizable=0;points=[];autosize=1;strokeColor=none;fillColor=none;" vertex="1" parent="1">
          <mxGeometry x="2400" y="410" width="40" height="30" as="geometry" />
        </mxCell>
        <mxCell id="1QSR1i9DhKROp5-wo-e_-213" value="1..1&lt;br&gt;" style="text;html=1;align=center;verticalAlign=middle;resizable=0;points=[];autosize=1;strokeColor=none;fillColor=none;" vertex="1" parent="1">
          <mxGeometry x="2270" y="130" width="40" height="30" as="geometry" />
        </mxCell>
        <mxCell id="1QSR1i9DhKROp5-wo-e_-214" value="HAS" style="text;html=1;align=center;verticalAlign=middle;resizable=0;points=[];autosize=1;strokeColor=none;fillColor=none;" vertex="1" parent="1">
          <mxGeometry x="2445" y="208" width="50" height="30" as="geometry" />
        </mxCell>
        <mxCell id="1QSR1i9DhKROp5-wo-e_-215" value="&lt;span style=&quot;font-style: italic; font-weight: normal;&quot;&gt;&amp;lt;&amp;lt;ENUMERATION&amp;gt;&amp;gt;&lt;/span&gt;&lt;br&gt;TRANSACTION_TYPE" style="swimlane;fontStyle=1;align=center;verticalAlign=top;childLayout=stackLayout;horizontal=1;startSize=70;horizontalStack=0;resizeParent=1;resizeParentMax=0;resizeLast=0;collapsible=1;marginBottom=0;whiteSpace=wrap;html=1;" vertex="1" parent="1">
          <mxGeometry x="3222" y="1074" width="190" height="198" as="geometry" />
        </mxCell>
        <mxCell id="1QSR1i9DhKROp5-wo-e_-216" value="DEPOSIT&lt;br&gt;WITHDRAWL&lt;br&gt;TRANSFER&lt;br&gt;PAYMENT&lt;br&gt;REFUND&lt;br&gt;CASHBACK&lt;br&gt;REVERSAL" style="text;strokeColor=none;fillColor=none;align=left;verticalAlign=top;spacingLeft=4;spacingRight=4;overflow=hidden;rotatable=0;points=[[0,0.5],[1,0.5]];portConstraint=eastwest;whiteSpace=wrap;html=1;" vertex="1" parent="1QSR1i9DhKROp5-wo-e_-215">
          <mxGeometry y="70" width="190" height="120" as="geometry" />
        </mxCell>
        <mxCell id="1QSR1i9DhKROp5-wo-e_-217" value="" style="line;strokeWidth=1;fillColor=none;align=left;verticalAlign=middle;spacingTop=-1;spacingLeft=3;spacingRight=3;rotatable=0;labelPosition=right;points=[];portConstraint=eastwest;strokeColor=inherit;" vertex="1" parent="1QSR1i9DhKROp5-wo-e_-215">
          <mxGeometry y="190" width="190" height="8" as="geometry" />
        </mxCell>
        <mxCell id="1QSR1i9DhKROp5-wo-e_-221" value="1..1&lt;br&gt;" style="text;html=1;align=center;verticalAlign=middle;resizable=0;points=[];autosize=1;strokeColor=none;fillColor=none;" vertex="1" parent="1">
          <mxGeometry x="3780" y="2256" width="40" height="30" as="geometry" />
        </mxCell>
        <mxCell id="1QSR1i9DhKROp5-wo-e_-222" value="2..*" style="text;html=1;align=center;verticalAlign=middle;resizable=0;points=[];autosize=1;strokeColor=none;fillColor=none;" vertex="1" parent="1">
          <mxGeometry x="3970" y="2256" width="40" height="30" as="geometry" />
        </mxCell>
        <mxCell id="1QSR1i9DhKROp5-wo-e_-223" value="1..1&lt;br&gt;" style="text;html=1;align=center;verticalAlign=middle;resizable=0;points=[];autosize=1;strokeColor=none;fillColor=none;" vertex="1" parent="1">
          <mxGeometry x="3690" y="2150" width="40" height="30" as="geometry" />
        </mxCell>
        <mxCell id="1QSR1i9DhKROp5-wo-e_-225" value="1..1&lt;br&gt;" style="text;html=1;align=center;verticalAlign=middle;resizable=0;points=[];autosize=1;strokeColor=none;fillColor=none;" vertex="1" parent="1">
          <mxGeometry x="3308" y="2152" width="40" height="30" as="geometry" />
        </mxCell>
        <mxCell id="1QSR1i9DhKROp5-wo-e_-226" value="1..1&lt;br&gt;" style="text;html=1;align=center;verticalAlign=middle;resizable=0;points=[];autosize=1;strokeColor=none;fillColor=none;" vertex="1" parent="1">
          <mxGeometry x="3095" y="2150" width="40" height="30" as="geometry" />
        </mxCell>
        <mxCell id="1QSR1i9DhKROp5-wo-e_-227" value="1..1&lt;br&gt;" style="text;html=1;align=center;verticalAlign=middle;resizable=0;points=[];autosize=1;strokeColor=none;fillColor=none;" vertex="1" parent="1">
          <mxGeometry x="2900" y="2150" width="40" height="30" as="geometry" />
        </mxCell>
        <mxCell id="1QSR1i9DhKROp5-wo-e_-228" style="edgeStyle=orthogonalEdgeStyle;rounded=0;orthogonalLoop=1;jettySize=auto;html=1;exitX=0;exitY=0.5;exitDx=0;exitDy=0;dashed=1;dashPattern=8 8;" edge="1" parent="1" source="f_wC157JiwR1pDFYYjTe-162" target="f_wC157JiwR1pDFYYjTe-34">
          <mxGeometry relative="1" as="geometry" />
        </mxCell>
        <mxCell id="1QSR1i9DhKROp5-wo-e_-229" value="USES" style="edgeLabel;html=1;align=center;verticalAlign=middle;resizable=0;points=[];" vertex="1" connectable="0" parent="1QSR1i9DhKROp5-wo-e_-228">
          <mxGeometry x="-0.1739" y="3" relative="1" as="geometry">
            <mxPoint as="offset" />
          </mxGeometry>
        </mxCell>
        <mxCell id="1QSR1i9DhKROp5-wo-e_-232" value="1..1" style="text;html=1;align=center;verticalAlign=middle;resizable=0;points=[];autosize=1;strokeColor=none;fillColor=none;" vertex="1" parent="1">
          <mxGeometry x="1940" y="10" width="40" height="30" as="geometry" />
        </mxCell>
        <mxCell id="1QSR1i9DhKROp5-wo-e_-233" value="0..*&lt;br&gt;" style="text;html=1;align=center;verticalAlign=middle;resizable=0;points=[];autosize=1;strokeColor=none;fillColor=none;" vertex="1" parent="1">
          <mxGeometry x="1031.5" y="654" width="40" height="30" as="geometry" />
        </mxCell>
        <mxCell id="1QSR1i9DhKROp5-wo-e_-234" style="edgeStyle=orthogonalEdgeStyle;rounded=0;orthogonalLoop=1;jettySize=auto;html=1;exitX=0;exitY=0.5;exitDx=0;exitDy=0;entryX=1;entryY=0;entryDx=0;entryDy=0;" edge="1" parent="1" source="f_wC157JiwR1pDFYYjTe-585" target="f_wC157JiwR1pDFYYjTe-523">
          <mxGeometry relative="1" as="geometry" />
        </mxCell>
        <mxCell id="1QSR1i9DhKROp5-wo-e_-235" value="0..*" style="text;html=1;align=center;verticalAlign=middle;resizable=0;points=[];autosize=1;strokeColor=none;fillColor=none;" vertex="1" parent="1">
          <mxGeometry x="-1190" y="1818" width="40" height="30" as="geometry" />
        </mxCell>
        <mxCell id="1QSR1i9DhKROp5-wo-e_-236" value="0..1" style="text;html=1;align=center;verticalAlign=middle;resizable=0;points=[];autosize=1;strokeColor=none;fillColor=none;" vertex="1" parent="1">
          <mxGeometry x="1290" y="514" width="40" height="30" as="geometry" />
        </mxCell>
        <mxCell id="1QSR1i9DhKROp5-wo-e_-237" value="resolve" style="text;html=1;align=center;verticalAlign=middle;resizable=0;points=[];autosize=1;strokeColor=none;fillColor=none;" vertex="1" parent="1">
          <mxGeometry x="-790" y="1008" width="60" height="30" as="geometry" />
        </mxCell>
        <mxCell id="1QSR1i9DhKROp5-wo-e_-238" value="0..*" style="text;html=1;align=center;verticalAlign=middle;resizable=0;points=[];autosize=1;strokeColor=none;fillColor=none;" vertex="1" parent="1">
          <mxGeometry x="-780" y="1818" width="40" height="30" as="geometry" />
        </mxCell>
        <mxCell id="1QSR1i9DhKROp5-wo-e_-239" value="0..1" style="text;html=1;align=center;verticalAlign=middle;resizable=0;points=[];autosize=1;strokeColor=none;fillColor=none;" vertex="1" parent="1">
          <mxGeometry x="1050" y="514" width="40" height="30" as="geometry" />
        </mxCell>
        <mxCell id="1QSR1i9DhKROp5-wo-e_-240" value="0..*" style="text;html=1;align=center;verticalAlign=middle;resizable=0;points=[];autosize=1;strokeColor=none;fillColor=none;" vertex="1" parent="1">
          <mxGeometry x="920" y="1996" width="40" height="30" as="geometry" />
        </mxCell>
        <mxCell id="1QSR1i9DhKROp5-wo-e_-241" value="0..*" style="text;html=1;align=center;verticalAlign=middle;resizable=0;points=[];autosize=1;strokeColor=none;fillColor=none;" vertex="1" parent="1">
          <mxGeometry x="131" y="1999" width="40" height="30" as="geometry" />
        </mxCell>
        <mxCell id="1QSR1i9DhKROp5-wo-e_-242" value="0..*" style="text;html=1;align=center;verticalAlign=middle;resizable=0;points=[];autosize=1;strokeColor=none;fillColor=none;" vertex="1" parent="1">
          <mxGeometry x="321" y="2010" width="40" height="30" as="geometry" />
        </mxCell>
        <mxCell id="1QSR1i9DhKROp5-wo-e_-243" value="0..*" style="text;html=1;align=center;verticalAlign=middle;resizable=0;points=[];autosize=1;strokeColor=none;fillColor=none;" vertex="1" parent="1">
          <mxGeometry x="511" y="2020" width="40" height="30" as="geometry" />
        </mxCell>
        <mxCell id="1QSR1i9DhKROp5-wo-e_-244" value="0..*" style="text;html=1;align=center;verticalAlign=middle;resizable=0;points=[];autosize=1;strokeColor=none;fillColor=none;" vertex="1" parent="1">
          <mxGeometry x="711" y="2002" width="40" height="30" as="geometry" />
        </mxCell>
        <mxCell id="1QSR1i9DhKROp5-wo-e_-247" value="0..*" style="text;html=1;align=center;verticalAlign=middle;resizable=0;points=[];autosize=1;strokeColor=none;fillColor=none;" vertex="1" parent="1">
          <mxGeometry x="2780" y="2032.5" width="40" height="30" as="geometry" />
        </mxCell>
        <mxCell id="1QSR1i9DhKROp5-wo-e_-248" value="0..*" style="text;html=1;align=center;verticalAlign=middle;resizable=0;points=[];autosize=1;strokeColor=none;fillColor=none;fontSize=10;" vertex="1" parent="1">
          <mxGeometry x="3390" y="2026" width="40" height="30" as="geometry" />
        </mxCell>
        <mxCell id="1QSR1i9DhKROp5-wo-e_-249" value="0..*" style="text;html=1;align=center;verticalAlign=middle;resizable=0;points=[];autosize=1;strokeColor=none;fillColor=none;" vertex="1" parent="1">
          <mxGeometry x="3200" y="2032.5" width="40" height="30" as="geometry" />
        </mxCell>
        <mxCell id="1QSR1i9DhKROp5-wo-e_-250" value="0..*" style="text;html=1;align=center;verticalAlign=middle;resizable=0;points=[];autosize=1;strokeColor=none;fillColor=none;" vertex="1" parent="1">
          <mxGeometry x="2990" y="2032.5" width="40" height="30" as="geometry" />
        </mxCell>
        <mxCell id="1QSR1i9DhKROp5-wo-e_-251" value="0..*" style="text;html=1;align=center;verticalAlign=middle;resizable=0;points=[];autosize=1;strokeColor=none;fillColor=none;fontSize=10;" vertex="1" parent="1">
          <mxGeometry x="3580" y="2029" width="40" height="30" as="geometry" />
        </mxCell>
        <mxCell id="1QSR1i9DhKROp5-wo-e_-252" value="1..1" style="text;html=1;align=center;verticalAlign=middle;resizable=0;points=[];autosize=1;strokeColor=none;fillColor=none;" vertex="1" parent="1">
          <mxGeometry x="690" y="514" width="40" height="30" as="geometry" />
        </mxCell>
        <mxCell id="1QSR1i9DhKROp5-wo-e_-253" style="edgeStyle=orthogonalEdgeStyle;rounded=0;orthogonalLoop=1;jettySize=auto;html=1;exitX=0;exitY=0.5;exitDx=0;exitDy=0;entryX=0.5;entryY=0;entryDx=0;entryDy=0;dashed=1;dashPattern=12 12;" edge="1" parent="1" source="f_wC157JiwR1pDFYYjTe-20" target="f_wC157JiwR1pDFYYjTe-50">
          <mxGeometry relative="1" as="geometry">
            <Array as="points">
              <mxPoint x="736" y="210" />
              <mxPoint x="45" y="210" />
            </Array>
          </mxGeometry>
        </mxCell>
        <mxCell id="1QSR1i9DhKROp5-wo-e_-254" style="edgeStyle=orthogonalEdgeStyle;rounded=0;orthogonalLoop=1;jettySize=auto;html=1;exitX=0;exitY=0.5;exitDx=0;exitDy=0;entryX=0.5;entryY=0;entryDx=0;entryDy=0;dashed=1;dashPattern=12 12;" edge="1" parent="1" source="f_wC157JiwR1pDFYYjTe-253" target="f_wC157JiwR1pDFYYjTe-50">
          <mxGeometry relative="1" as="geometry">
            <mxPoint x="50" y="490" as="targetPoint" />
            <Array as="points">
              <mxPoint x="1080" y="210" />
              <mxPoint x="45" y="210" />
            </Array>
          </mxGeometry>
        </mxCell>
        <mxCell id="1QSR1i9DhKROp5-wo-e_-255" style="edgeStyle=orthogonalEdgeStyle;rounded=0;orthogonalLoop=1;jettySize=auto;html=1;exitX=0;exitY=0.5;exitDx=0;exitDy=0;entryX=0.5;entryY=0;entryDx=0;entryDy=0;dashed=1;dashPattern=8 8;" edge="1" parent="1" source="f_wC157JiwR1pDFYYjTe-32" target="f_wC157JiwR1pDFYYjTe-50">
          <mxGeometry relative="1" as="geometry">
            <Array as="points">
              <mxPoint x="1330" y="210" />
              <mxPoint x="45" y="210" />
            </Array>
          </mxGeometry>
        </mxCell>
        <mxCell id="1QSR1i9DhKROp5-wo-e_-256" value="uses" style="text;html=1;align=center;verticalAlign=middle;resizable=0;points=[];autosize=1;strokeColor=none;fillColor=none;" vertex="1" parent="1">
          <mxGeometry x="35" y="238" width="50" height="30" as="geometry" />
        </mxCell>
        <mxCell id="1QSR1i9DhKROp5-wo-e_-257" value="0..*" style="text;html=1;align=center;verticalAlign=middle;resizable=0;points=[];autosize=1;strokeColor=none;fillColor=none;" vertex="1" parent="1">
          <mxGeometry x="2720" y="1280" width="40" height="30" as="geometry" />
        </mxCell>
        <mxCell id="1QSR1i9DhKROp5-wo-e_-259" value="&lt;font style=&quot;font-size: 9px;&quot;&gt;1..1&lt;/font&gt;" style="text;html=1;align=center;verticalAlign=middle;resizable=0;points=[];autosize=1;strokeColor=none;fillColor=none;" vertex="1" parent="1">
          <mxGeometry x="1820" y="2086" width="40" height="30" as="geometry" />
        </mxCell>
        <mxCell id="1QSR1i9DhKROp5-wo-e_-260" value="1..1" style="text;html=1;align=center;verticalAlign=middle;resizable=0;points=[];autosize=1;strokeColor=none;fillColor=none;" vertex="1" parent="1">
          <mxGeometry x="-1790" y="1278" width="40" height="30" as="geometry" />
        </mxCell>
        <mxCell id="1QSR1i9DhKROp5-wo-e_-261" value="0..*" style="text;html=1;align=center;verticalAlign=middle;resizable=0;points=[];autosize=1;strokeColor=none;fillColor=none;" vertex="1" parent="1">
          <mxGeometry x="-1520" y="1088" width="40" height="30" as="geometry" />
        </mxCell>
        <mxCell id="1QSR1i9DhKROp5-wo-e_-262" value="&lt;font style=&quot;font-size: 8px;&quot;&gt;0..*&lt;/font&gt;" style="text;html=1;align=center;verticalAlign=middle;resizable=0;points=[];autosize=1;strokeColor=none;fillColor=none;" vertex="1" parent="1">
          <mxGeometry x="-470" y="1206" width="40" height="30" as="geometry" />
        </mxCell>
        <mxCell id="1QSR1i9DhKROp5-wo-e_-264" value="&lt;font style=&quot;font-size: 8px;&quot;&gt;0..*&lt;/font&gt;" style="text;html=1;align=center;verticalAlign=middle;resizable=0;points=[];autosize=1;strokeColor=none;fillColor=none;" vertex="1" parent="1">
          <mxGeometry x="-420" y="1204.5" width="40" height="30" as="geometry" />
        </mxCell>
        <mxCell id="1QSR1i9DhKROp5-wo-e_-266" value="0..*" style="text;html=1;align=center;verticalAlign=middle;resizable=0;points=[];autosize=1;strokeColor=none;fillColor=none;" vertex="1" parent="1">
          <mxGeometry x="440" y="1758" width="40" height="30" as="geometry" />
        </mxCell>
        <mxCell id="1QSR1i9DhKROp5-wo-e_-267" value="1..1" style="text;html=1;align=center;verticalAlign=middle;resizable=0;points=[];autosize=1;strokeColor=none;fillColor=none;" vertex="1" parent="1">
          <mxGeometry x="1090" y="1758" width="40" height="30" as="geometry" />
        </mxCell>
        <mxCell id="1QSR1i9DhKROp5-wo-e_-268" value="1..1" style="text;html=1;align=center;verticalAlign=middle;resizable=0;points=[];autosize=1;strokeColor=none;fillColor=none;" vertex="1" parent="1">
          <mxGeometry x="2560" y="1758" width="40" height="30" as="geometry" />
        </mxCell>
        <mxCell id="1QSR1i9DhKROp5-wo-e_-269" value="1..1" style="text;html=1;align=center;verticalAlign=middle;resizable=0;points=[];autosize=1;strokeColor=none;fillColor=none;" vertex="1" parent="1">
          <mxGeometry x="2300" y="18" width="40" height="30" as="geometry" />
        </mxCell>
        <mxCell id="1QSR1i9DhKROp5-wo-e_-270" value="0..*" style="text;html=1;align=center;verticalAlign=middle;resizable=0;points=[];autosize=1;strokeColor=none;fillColor=none;" vertex="1" parent="1">
          <mxGeometry x="3180" y="1758" width="40" height="30" as="geometry" />
        </mxCell>
      </root>
    </mxGraphModel>
  </diagram>
</mxfile>
